<?xml version="1.0" encoding="utf-8"?>
<!-- Generator: Adobe Illustrator 17.1.0, SVG Export Plug-In . SVG Version: 6.00 Build 0)  -->
<!DOCTYPE svg PUBLIC "-//W3C//DTD SVG 1.1//EN" "http://www.w3.org/Graphics/SVG/1.1/DTD/svg11.dtd">
<svg version="1.1" xmlns="http://www.w3.org/2000/svg" xmlns:xlink="http://www.w3.org/1999/xlink" x="0px" y="0px"
	 viewBox="0 0 274 75" enable-background="new 0 0 274 75" xml:space="preserve">
<g id="Layer_6" display="none">
	<rect x="-40.7" y="-27.3" display="inline" fill-rule="evenodd" clip-rule="evenodd" width="341.7" height="120.7"/>
</g>
<g id="logo_1_">
	<g id="logotype_1_">
		<g id="shape">
			<g>
		<path fill="#404040" d="M96.296,25.331c0.416-0.224,1.486-0.336,3.209-0.336c1.324,0,2.416,0.039,3.278,0.116l2.724,0.278
			c1.032,0.093,1.697,0.252,1.998,0.475c0.299,0.224,0.55,0.73,0.75,1.518c0.123,0.494,0.207,0.981,0.254,1.46
			c0.031,0.386,0.165,0.579,0.403,0.579c0.411,0,0.616-0.357,0.616-1.07c0-1.69,0.131-3.038,0.394-4.046
			c0.077-0.325,0.116-0.581,0.116-0.767c0-0.356-0.17-0.535-0.51-0.535c-0.216,0-0.472,0.031-0.765,0.093
			c-0.402,0.078-1.297,0.147-2.687,0.208l-3.221,0.162c-0.834,0.046-2.71,0.069-5.63,0.069c-3.275,0-5.599-0.069-6.974-0.208
			c-0.757-0.077-1.236-0.116-1.437-0.116c-0.649,0-0.958,0.196-0.926,0.589c0.015,0.241,0.208,0.377,0.578,0.407
			c0.911,0.077,1.553,0.209,1.924,0.395c0.37,0.185,0.71,0.542,1.019,1.067c0.479,0.79,0.719,1.919,0.719,3.388v20.906
			c0,1.516-0.178,2.584-0.533,3.203c-0.355,0.619-1.027,1.037-2.015,1.253c-0.479,0.106-0.719,0.279-0.719,0.521
			c0,0.286,0.224,0.422,0.674,0.406c0.247-0.015,0.642-0.038,1.184-0.069c0.665-0.062,1.191-0.093,1.578-0.093l1.788-0.023
			l1.602,0.026c1.006,0,1.764,0.034,2.275,0.103c0.604,0.068,1.076,0.103,1.416,0.103c0.496,0,0.728-0.174,0.697-0.521
			c-0.016-0.301-0.286-0.453-0.811-0.453c-1.096,0-1.969-0.364-2.618-1.093c-0.649-0.73-0.973-1.707-0.973-2.934v-8.637
			c0-0.636,0.038-1.102,0.115-1.397c0.061-0.279,0.365-0.458,0.911-0.535c0.546-0.077,1.742-0.117,3.588-0.117
			c2,0,3.515,0.132,4.545,0.394c0.508,0.123,0.869,0.332,1.085,0.625c0.215,0.294,0.415,0.85,0.6,1.668
			c0.169,0.757,0.404,1.136,0.705,1.136c0.286,0,0.429-0.185,0.429-0.555c0-0.139-0.015-0.354-0.046-0.647
			c-0.062-0.493-0.093-1.64-0.093-3.443c0-0.647,0.008-1.117,0.024-1.41l0.139-2.287c0.031-0.478-0.104-0.717-0.404-0.717
			c-0.254,0-0.412,0.185-0.476,0.556c-0.17,1.035-0.577,1.765-1.223,2.189c-0.646,0.425-1.677,0.638-3.092,0.638L99.757,37.9
			l-0.761,0.023l-1.984-0.047c-0.815,0-1.254-0.208-1.315-0.624v-0.601l-0.023-0.439v-9.159
			C95.674,26.129,95.881,25.554,96.296,25.331z"/>
		<path fill="#404040" d="M129.291,39.754c0.078,0.247,0.116,0.425,0.116,0.533c0,0.386-0.386,0.579-1.159,0.579h-6.997
			l-0.626-0.024c-0.711,0-1.065-0.2-1.065-0.602c0-0.139,0.1-0.424,0.301-0.857l4.518-10.031c0.139-0.309,0.262-0.456,0.37-0.44
			c0.216,0.015,0.417,0.27,0.603,0.765l0.185,0.486l3.637,9.175L129.291,39.754z M130.473,43.264
			c0.185,0.132,0.44,0.623,0.765,1.475l1.158,3.064c0.942,2.446,1.413,4.078,1.413,4.899c0,0.898-0.386,1.424-1.158,1.578
			l-0.718,0.163c-0.387,0.076-0.579,0.234-0.579,0.475c0,0.317,0.2,0.475,0.602,0.475c0.154,0,0.394-0.031,0.719-0.093
			c0.54-0.092,1.884-0.139,4.031-0.139c2.054,0,3.483,0.039,4.287,0.116c0.448,0.031,0.741,0.047,0.88,0.047
			c0.417,0,0.633-0.128,0.648-0.384c0.015-0.286-0.216-0.475-0.695-0.566c-1.468-0.263-2.44-0.622-2.919-1.079
			c-0.479-0.456-1.082-1.62-1.807-3.492l-0.51-1.253l-9.963-25.523c-0.17-0.449-0.379-0.673-0.625-0.673
			c-0.247,0-0.472,0.232-0.672,0.695L113.42,49.504l-0.672,1.53c-0.339,0.711-0.772,1.395-1.297,2.052
			c-0.525,0.657-0.942,1.032-1.251,1.124l-0.857,0.256c-0.263,0.079-0.394,0.245-0.394,0.499c0,0.286,0.208,0.428,0.624,0.428
			c0.077,0,0.509-0.044,1.294-0.13c0.246-0.022,0.592-0.032,1.04-0.032c0.97,0,1.826,0.018,2.565,0.052l2.219,0.13
			c0.354,0.017,0.616,0.026,0.786,0.026c0.447,0,0.663-0.128,0.647-0.384c-0.015-0.271-0.255-0.452-0.718-0.542
			c-1.066-0.232-1.781-0.511-2.144-0.835c-0.363-0.325-0.544-0.851-0.544-1.58c0-0.758,0.343-1.918,1.029-3.482l1.519-3.413
			c0.463-1.052,0.835-1.671,1.112-1.857c0.278-0.185,0.989-0.278,2.132-0.278h8.388C129.762,43.067,130.288,43.133,130.473,43.264z"
			/>
		<path fill="#404040" d="M165.389,39.754c0.078,0.247,0.116,0.425,0.116,0.533c0,0.386-0.386,0.579-1.159,0.579h-6.996
			l-0.626-0.024c-0.711,0-1.065-0.2-1.065-0.602c0-0.139,0.1-0.424,0.301-0.857l4.518-10.031c0.138-0.309,0.262-0.456,0.371-0.44
			c0.216,0.015,0.417,0.27,0.602,0.765l0.185,0.486l3.637,9.175L165.389,39.754z M166.571,43.264
			c0.185,0.132,0.44,0.623,0.765,1.475l1.158,3.064c0.942,2.446,1.413,4.078,1.413,4.899c0,0.898-0.386,1.424-1.159,1.578
			l-0.718,0.163c-0.387,0.076-0.579,0.234-0.579,0.475c0,0.317,0.201,0.475,0.602,0.475c0.154,0,0.394-0.031,0.718-0.093
			c0.54-0.092,1.885-0.139,4.032-0.139c2.054,0,3.483,0.039,4.286,0.116c0.448,0.031,0.742,0.047,0.881,0.047
			c0.417,0,0.633-0.128,0.648-0.384c0.015-0.286-0.216-0.475-0.696-0.566c-1.468-0.263-2.44-0.622-2.919-1.079
			c-0.479-0.456-1.082-1.62-1.807-3.492l-0.51-1.253l-9.962-25.523c-0.17-0.449-0.379-0.673-0.625-0.673
			c-0.248,0-0.472,0.232-0.673,0.695l-11.909,26.455l-0.672,1.53c-0.34,0.711-0.772,1.395-1.297,2.052
			c-0.526,0.657-0.943,1.032-1.251,1.124l-0.857,0.256c-0.263,0.079-0.394,0.245-0.394,0.499c0,0.286,0.208,0.428,0.624,0.428
			c0.076,0,0.509-0.044,1.295-0.13c0.245-0.022,0.592-0.032,1.039-0.032c0.97,0,1.825,0.018,2.565,0.052l2.219,0.13
			c0.354,0.017,0.617,0.026,0.787,0.026c0.447,0,0.662-0.128,0.647-0.384c-0.015-0.271-0.254-0.452-0.718-0.542
			c-1.066-0.232-1.781-0.511-2.143-0.835c-0.363-0.325-0.544-0.851-0.544-1.58c0-0.758,0.343-1.918,1.029-3.482l1.52-3.413
			c0.463-1.052,0.835-1.671,1.112-1.857c0.278-0.185,0.989-0.278,2.132-0.278h8.387C165.861,43.067,166.386,43.133,166.571,43.264z"
			/>
		<path fill="#404040" d="M211.499,46.557l0.093,3.78c0,1.392-0.154,2.366-0.463,2.923c-0.31,0.557-0.92,0.959-1.83,1.206
			c-0.387,0.105-0.579,0.279-0.579,0.52c0,0.271,0.223,0.407,0.67,0.407c0.246,0,1.172-0.043,2.774-0.129
			c1.032-0.069,1.788-0.103,2.265-0.103c0.694,0,1.342,0.031,1.943,0.093l1.802,0.185c0.216,0.015,0.409,0.023,0.579,0.023
			c0.57,0,0.855-0.151,0.855-0.453c0-0.287-0.409-0.491-1.227-0.612c-1.143-0.17-1.932-0.511-2.364-1.021
			c-0.432-0.51-0.648-1.353-0.648-2.529l-0.115-2.924l-0.44-12.6l-0.139-5.593c0-1.779,0.158-3.058,0.475-3.84
			c0.316-0.782,0.868-1.265,1.656-1.451l0.996-0.255c0.308-0.076,0.463-0.257,0.463-0.544c0-0.317-0.155-0.468-0.463-0.453
			c-0.17,0.016-0.393,0.032-0.671,0.047c-0.587,0.062-1.367,0.093-2.34,0.093c-0.309,0-0.564-0.008-0.764-0.024
			c-0.557-0.061-0.896-0.092-1.019-0.092c-0.294,0-0.498,0.058-0.614,0.173c-0.115,0.116-0.289,0.421-0.521,0.916l-10.88,23.328
			l-0.208,0.464l-0.279,0.627c-0.138,0.293-0.254,0.44-0.346,0.44c-0.078,0-0.202-0.201-0.371-0.603l-1.182-2.386l-9.656-20.829
			l-0.255-0.533c-0.447-0.973-1.004-1.46-1.667-1.46c-0.216,0-0.502,0.024-0.857,0.069c-0.34,0.032-1.143,0.047-2.409,0.047
			c-0.833,0-1.359-0.015-1.574-0.047c-0.371-0.03-0.626-0.046-0.764-0.046c-0.386,0-0.579,0.166-0.579,0.499
			c0,0.302,0.232,0.491,0.695,0.567c1.698,0.309,2.911,1.125,3.637,2.446c0.726,1.322,1.089,3.358,1.089,6.11
			c0,1.283-0.116,4.359-0.348,9.229l-0.324,6.724c-0.093,1.902-0.363,3.246-0.811,4.035c-0.448,0.789-1.236,1.313-2.363,1.577
			c-0.371,0.075-0.556,0.241-0.556,0.498c0,0.332,0.231,0.498,0.693,0.498c0.17,0,0.408-0.024,0.717-0.069
			c1.032-0.139,2.111-0.209,3.236-0.209c0.94,0,2.274,0.077,4,0.232c0.277,0.031,0.562,0.046,0.855,0.046
			c0.446,0,0.67-0.175,0.67-0.523c0-0.303-0.471-0.53-1.412-0.682c-1.916-0.293-2.874-1.799-2.874-4.518
			c0-2.826,0.024-4.711,0.07-5.653l0.533-11.469l8.708,18.794l0.465,0.972c0.371,0.71,0.588,1.134,0.649,1.273
			c0.336,0.756,0.687,1.134,1.054,1.134c0.352,0,0.68-0.362,0.986-1.088c0.077-0.17,0.217-0.463,0.418-0.88
			c0.356-0.694,0.774-1.581,1.254-2.661c1.176-2.623,1.826-4.074,1.95-4.351l2.369-4.861l2.066-4.421
			c0.433-0.894,1.308-2.492,2.624-4.791L211.499,46.557z"/>
		<path fill="#404040" d="M243.795,39.754c0.077,0.247,0.115,0.425,0.115,0.533c0,0.386-0.386,0.579-1.158,0.579h-6.997
			l-0.626-0.024c-0.71,0-1.065-0.2-1.065-0.602c0-0.139,0.1-0.424,0.301-0.857l4.518-10.031c0.139-0.309,0.262-0.456,0.371-0.44
			c0.216,0.015,0.417,0.27,0.603,0.765l0.184,0.486l3.637,9.175L243.795,39.754z M244.977,43.264
			c0.185,0.132,0.44,0.623,0.765,1.475l1.158,3.064c0.942,2.446,1.413,4.078,1.413,4.899c0,0.898-0.386,1.424-1.158,1.578
			l-0.718,0.163c-0.387,0.076-0.579,0.234-0.579,0.475c0,0.317,0.201,0.475,0.602,0.475c0.154,0,0.394-0.031,0.719-0.093
			c0.54-0.092,1.884-0.139,4.031-0.139c2.054,0,3.483,0.039,4.286,0.116c0.449,0.031,0.742,0.047,0.881,0.047
			c0.417,0,0.633-0.128,0.648-0.384c0.015-0.286-0.216-0.475-0.695-0.566c-1.468-0.263-2.44-0.622-2.919-1.079
			c-0.479-0.456-1.082-1.62-1.807-3.492l-0.51-1.253l-9.962-25.523c-0.17-0.449-0.379-0.673-0.625-0.673
			c-0.247,0-0.472,0.232-0.672,0.695l-11.91,26.455l-0.672,1.53c-0.339,0.711-0.771,1.395-1.297,2.052
			c-0.525,0.657-0.942,1.032-1.251,1.124l-0.857,0.256c-0.263,0.079-0.394,0.245-0.394,0.499c0,0.286,0.208,0.428,0.624,0.428
			c0.077,0,0.509-0.044,1.295-0.13c0.245-0.022,0.592-0.032,1.039-0.032c0.97,0,1.826,0.018,2.565,0.052l2.219,0.13
			c0.354,0.017,0.616,0.026,0.786,0.026c0.447,0,0.662-0.128,0.647-0.384c-0.015-0.271-0.254-0.452-0.718-0.542
			c-1.067-0.232-1.781-0.511-2.144-0.835c-0.363-0.325-0.544-0.851-0.544-1.58c0-0.758,0.343-1.918,1.029-3.482l1.52-3.413
			c0.463-1.052,0.835-1.671,1.112-1.857c0.279-0.185,0.989-0.278,2.132-0.278h8.388C244.266,43.067,244.791,43.133,244.977,43.264z"
			/>
		<path fill="#404040" d="M91.451,60.335c0.105-0.057,0.377-0.086,0.815-0.086c0.336,0,0.615,0.01,0.834,0.03l0.692,0.071
			c0.263,0.024,0.432,0.064,0.509,0.12c0.076,0.058,0.139,0.186,0.19,0.386c0.031,0.126,0.053,0.249,0.065,0.371
			c0.007,0.098,0.042,0.147,0.102,0.147c0.105,0,0.157-0.091,0.157-0.272c0-0.429,0.033-0.772,0.1-1.029
			c0.02-0.082,0.03-0.148,0.03-0.195c0-0.091-0.043-0.136-0.129-0.136c-0.055,0-0.12,0.007-0.195,0.024
			c-0.102,0.019-0.33,0.037-0.683,0.052l-0.818,0.041c-0.212,0.012-0.689,0.018-1.431,0.018c-0.833,0-1.423-0.018-1.773-0.053
			c-0.193-0.019-0.314-0.029-0.365-0.029c-0.165,0-0.244,0.05-0.235,0.149c0.004,0.062,0.053,0.096,0.147,0.104
			c0.232,0.019,0.395,0.053,0.489,0.1c0.094,0.047,0.181,0.137,0.259,0.271c0.122,0.201,0.183,0.488,0.183,0.862v5.315
			c0,0.386-0.046,0.657-0.136,0.815c-0.091,0.157-0.261,0.263-0.513,0.319c-0.122,0.026-0.182,0.071-0.182,0.132
			c0,0.072,0.057,0.107,0.171,0.103c0.063-0.004,0.163-0.01,0.301-0.018c0.169-0.015,0.302-0.024,0.401-0.024l0.454-0.006
			l0.407,0.006c0.255,0,0.449,0.009,0.579,0.026c0.153,0.017,0.273,0.026,0.36,0.026c0.126,0,0.184-0.044,0.177-0.133
			c-0.004-0.076-0.073-0.114-0.207-0.114c-0.279,0-0.5-0.093-0.666-0.278c-0.165-0.186-0.247-0.435-0.247-0.746v-2.196
			c0-0.162,0.01-0.28,0.029-0.355c0.016-0.071,0.093-0.117,0.232-0.136c0.139-0.02,0.443-0.03,0.912-0.03
			c0.508,0,0.893,0.034,1.155,0.1c0.129,0.032,0.221,0.085,0.276,0.159c0.055,0.074,0.105,0.215,0.152,0.423
			c0.043,0.193,0.103,0.289,0.18,0.289c0.072,0,0.109-0.047,0.109-0.142c0-0.035-0.004-0.09-0.012-0.165
			c-0.015-0.125-0.024-0.417-0.024-0.875c0-0.165,0.002-0.284,0.006-0.359l0.035-0.581c0.008-0.121-0.027-0.182-0.103-0.182
			c-0.065,0-0.105,0.047-0.121,0.141c-0.044,0.263-0.147,0.449-0.311,0.556c-0.164,0.108-0.426,0.163-0.786,0.163l-0.692,0.012
			l-0.193,0.006l-0.505-0.012c-0.207,0-0.319-0.053-0.334-0.159v-0.154l-0.006-0.111v-2.329
			C91.293,60.538,91.346,60.392,91.451,60.335z"/>
		<path fill="#404040" d="M144.93,64.002l0.03,0.136c0,0.098-0.098,0.147-0.295,0.147h-1.779l-0.159-0.005
			c-0.18,0-0.271-0.052-0.271-0.153c0-0.035,0.025-0.108,0.076-0.218l1.148-2.551c0.036-0.078,0.067-0.116,0.094-0.112
			c0.056,0.004,0.106,0.069,0.154,0.195l0.047,0.123l0.925,2.333L144.93,64.002z M145.231,64.894
			c0.047,0.033,0.112,0.158,0.194,0.375l0.294,0.779c0.24,0.621,0.359,1.037,0.359,1.246c0,0.228-0.098,0.361-0.294,0.401
			l-0.182,0.041c-0.098,0.018-0.148,0.059-0.148,0.12c0,0.08,0.051,0.121,0.154,0.121c0.039,0,0.1-0.008,0.182-0.024
			c0.138-0.024,0.479-0.035,1.025-0.035c0.523,0,0.886,0.009,1.091,0.029c0.113,0.008,0.189,0.012,0.224,0.012
			c0.105,0,0.16-0.032,0.164-0.098c0.004-0.072-0.055-0.12-0.176-0.143c-0.373-0.067-0.621-0.159-0.742-0.275
			c-0.122-0.116-0.275-0.412-0.46-0.888l-0.13-0.319l-2.532-6.489c-0.044-0.114-0.097-0.171-0.159-0.171s-0.119,0.059-0.171,0.177
			l-3.028,6.726l-0.171,0.389c-0.086,0.181-0.197,0.355-0.33,0.522c-0.133,0.167-0.24,0.263-0.318,0.286l-0.219,0.065l-0.1,0.126
			c0,0.073,0.053,0.109,0.159,0.109c0.019,0,0.128-0.011,0.328-0.033c0.063-0.005,0.151-0.008,0.265-0.008
			c0.246,0,0.464,0.004,0.652,0.013l0.564,0.033c0.09,0.004,0.157,0.006,0.2,0.006c0.114,0,0.168-0.032,0.164-0.098
			c-0.003-0.068-0.064-0.114-0.183-0.138c-0.271-0.059-0.452-0.129-0.544-0.212c-0.092-0.083-0.139-0.217-0.139-0.402
			c0-0.193,0.089-0.488,0.262-0.885l0.387-0.868c0.117-0.268,0.211-0.425,0.282-0.472c0.072-0.047,0.251-0.071,0.542-0.071h2.132
			C145.05,64.844,145.184,64.861,145.231,64.894z M133.599,63.616c0.215-0.257,0.482-0.385,0.805-0.385
			c0.31,0,0.598,0.131,0.862,0.394c0.266,0.263,0.398,0.548,0.398,0.855c0,0.125-0.155,0.188-0.465,0.188h-1.998
			C133.253,64.224,133.385,63.873,133.599,63.616z M135.397,64.991l0.401,0.012l0.437,0.006c0.255,0,0.383-0.064,0.383-0.194
			c0-0.09-0.049-0.249-0.147-0.477c-0.098-0.227-0.194-0.408-0.288-0.542c-0.393-0.546-0.917-0.819-1.573-0.819
			c-0.601,0-1.125,0.256-1.572,0.768c-0.448,0.512-0.671,1.109-0.671,1.791c0,0.718,0.217,1.32,0.651,1.806
			c0.434,0.486,0.971,0.73,1.611,0.73c0.57,0,1.11-0.199,1.62-0.598c0.275-0.215,0.412-0.381,0.412-0.498l-0.083-0.094l-0.089,0.041
			c-0.503,0.385-0.97,0.577-1.399,0.577c-0.542,0-1-0.229-1.371-0.686c-0.372-0.458-0.558-1.022-0.558-1.694l0.006-0.13H135.397z
			 M129.619,67.262c-0.241,0.199-0.553,0.297-0.936,0.297c-0.521,0-0.972-0.236-1.353-0.709c-0.382-0.472-0.572-1.03-0.572-1.673
			c0-0.588,0.145-1.063,0.437-1.424s0.674-0.541,1.147-0.541c0.532,0,0.992,0.186,1.379,0.559c0.173,0.165,0.258,0.423,0.258,0.776
			v1.941C129.98,66.805,129.859,67.064,129.619,67.262z M129.98,67.779c0,0.2,0.046,0.297,0.137,0.293
			c0.042,0,0.102-0.022,0.177-0.065c0.087-0.044,0.26-0.085,0.52-0.124l0.331-0.053c0.043-0.007,0.145-0.02,0.307-0.035
			c0.142-0.015,0.213-0.065,0.213-0.149l-0.065-0.092l-0.054-0.006l-0.347,0.012c-0.271,0-0.407-0.222-0.407-0.666v-7.487
			l-0.006-0.106c0-0.087-0.029-0.13-0.089-0.13l-0.112,0.041c-0.516,0.31-0.978,0.491-1.383,0.542
			c-0.122,0.016-0.179,0.064-0.171,0.145l0.065,0.091l0.077,0.012l0.206-0.012c0.401-0.024,0.601,0.337,0.601,1.082v2.323
			c-0.475-0.279-0.949-0.419-1.424-0.419c-0.698,0-1.287,0.259-1.767,0.777c-0.48,0.518-0.72,1.154-0.72,1.906
			c0,0.683,0.201,1.255,0.603,1.719c0.401,0.462,0.899,0.694,1.49,0.694c0.314,0,0.595-0.06,0.844-0.178
			c0.249-0.119,0.573-0.351,0.974-0.694V67.779z M123.724,66.729c0,0.297-0.069,0.514-0.205,0.65
			c-0.223,0.215-0.497,0.323-0.826,0.323c-0.269,0-0.483-0.08-0.641-0.238c-0.159-0.158-0.238-0.372-0.238-0.641
			c0-0.344,0.166-0.626,0.498-0.847c0.331-0.221,0.802-0.358,1.411-0.412V66.729z M121.638,65.925
			c-0.412,0.249-0.617,0.6-0.617,1.052c0,0.333,0.108,0.6,0.326,0.798c0.218,0.198,0.511,0.298,0.879,0.298
			c0.486,0,1.013-0.216,1.581-0.649c0.26,0.401,0.552,0.601,0.875,0.601c0.173,0,0.35-0.037,0.531-0.109
			c0.181-0.072,0.274-0.145,0.278-0.215l-0.094-0.083c-0.024,0-0.071,0.008-0.142,0.025l-0.141,0.011
			c-0.208,0-0.356-0.078-0.445-0.232c-0.089-0.155-0.133-0.415-0.133-0.78v-2.306c0-0.432-0.147-0.766-0.441-1.003
			c-0.294-0.237-0.709-0.356-1.243-0.356c-0.585,0-1.054,0.19-1.408,0.569c-0.263,0.282-0.395,0.544-0.395,0.786
			c0,0.095,0.075,0.181,0.226,0.26c0.15,0.078,0.317,0.117,0.5,0.117c0.082,0,0.12-0.035,0.117-0.105
			c-0.004-0.054-0.018-0.116-0.041-0.187c-0.051-0.167-0.077-0.315-0.077-0.443c0-0.436,0.26-0.655,0.778-0.655
			c0.385,0,0.691,0.117,0.919,0.352c0.169,0.171,0.254,0.482,0.254,0.93v0.726C122.744,65.477,122.049,65.676,121.638,65.925z
			 M118.22,67.262c-0.241,0.199-0.553,0.297-0.936,0.297c-0.521,0-0.972-0.236-1.353-0.709c-0.382-0.472-0.572-1.03-0.572-1.673
			c0-0.588,0.145-1.063,0.437-1.424c0.292-0.361,0.675-0.541,1.147-0.541c0.532,0,0.992,0.186,1.379,0.559
			c0.173,0.165,0.258,0.423,0.258,0.776v1.941C118.581,66.805,118.461,67.064,118.22,67.262z M118.581,67.779
			c0,0.2,0.046,0.297,0.137,0.293c0.043,0,0.102-0.022,0.177-0.065c0.087-0.044,0.26-0.085,0.52-0.124l0.331-0.053
			c0.043-0.007,0.145-0.02,0.307-0.035c0.142-0.015,0.213-0.065,0.213-0.149l-0.065-0.092l-0.053-0.006l-0.347,0.012
			c-0.271,0-0.407-0.222-0.407-0.666v-7.487l-0.006-0.106c0-0.087-0.029-0.13-0.088-0.13l-0.112,0.041
			c-0.516,0.31-0.978,0.491-1.383,0.542c-0.122,0.016-0.179,0.064-0.171,0.145l0.065,0.091l0.077,0.012l0.206-0.012
			c0.401-0.024,0.601,0.337,0.601,1.082v2.323c-0.474-0.279-0.949-0.419-1.423-0.419c-0.698,0-1.287,0.259-1.767,0.777
			c-0.48,0.518-0.72,1.154-0.72,1.906c0,0.683,0.201,1.255,0.603,1.719c0.401,0.462,0.899,0.694,1.491,0.694
			c0.314,0,0.595-0.06,0.844-0.178c0.249-0.119,0.574-0.351,0.973-0.694V67.779z M113.109,59.467c0-0.177-0.029-0.264-0.088-0.26
			l-0.118,0.048c-0.106,0.079-0.297,0.173-0.573,0.282l-0.361,0.147c-0.11,0.043-0.232,0.08-0.367,0.112
			c-0.102,0.028-0.153,0.071-0.153,0.127l0.071,0.097l0.1,0.013l0.294-0.012c0.251,0,0.377,0.18,0.377,0.541v6.533
			c0,0.189-0.031,0.325-0.092,0.41c-0.061,0.085-0.179,0.153-0.356,0.204c-0.114,0.03-0.169,0.078-0.165,0.144
			c0.004,0.076,0.057,0.115,0.159,0.115c0.023,0,0.098-0.01,0.224-0.03c0.086-0.012,0.317-0.017,0.691-0.017h0.307l0.514-0.006
			c0.118,0,0.207,0.006,0.266,0.018l0.154,0.024c0.087,0,0.128-0.044,0.124-0.133c-0.004-0.061-0.061-0.101-0.17-0.12
			c-0.401-0.067-0.644-0.199-0.73-0.395c-0.075-0.173-0.112-0.42-0.112-0.742v-6.915L113.109,59.467z M109.245,67.415
			c0,0.368,0.063,0.552,0.189,0.552c0.051,0,0.123-0.012,0.218-0.035c0.075-0.02,0.24-0.035,0.495-0.048l0.371-0.024
			c0.232-0.012,0.345-0.061,0.342-0.145c-0.004-0.06-0.05-0.091-0.136-0.091l-0.083,0.006h-0.094c-0.2,0-0.333-0.048-0.397-0.145
			c-0.065-0.096-0.098-0.295-0.098-0.597v-3.824c0-0.145-0.041-0.216-0.124-0.212l-0.141,0.03c-0.173,0.054-0.326,0.086-0.46,0.093
			l-0.413,0.018l-0.194,0.012c-0.142,0.004-0.213,0.05-0.213,0.138c0,0.073,0.063,0.109,0.189,0.109c0.208,0,0.35,0.041,0.427,0.124
			c0.076,0.083,0.114,0.236,0.114,0.46v2.815c0,0.26-0.135,0.493-0.404,0.696c-0.269,0.204-0.578,0.306-0.924,0.306
			c-0.263,0-0.507-0.083-0.732-0.248c-0.224-0.165-0.378-0.373-0.46-0.625l-0.094-0.713v-0.188l0.024-2.633V63.16
			c0-0.184-0.053-0.277-0.158-0.277l-0.129,0.023c-0.196,0.047-0.342,0.075-0.44,0.082l-0.446,0.018
			c-0.238,0.012-0.36,0.052-0.364,0.121c-0.004,0.073,0.044,0.113,0.142,0.12c0.223,0.012,0.377,0.057,0.459,0.136
			c0.083,0.079,0.124,0.218,0.124,0.418v1.95l-0.006,0.389c0,0.609,0.154,1.083,0.463,1.423c0.308,0.34,0.737,0.51,1.287,0.51
			c0.652,0,1.206-0.295,1.661-0.884L109.245,67.415z M101.196,63.769c-0.501,0.527-0.751,1.168-0.751,1.921
			c0,0.675,0.211,1.24,0.633,1.698c0.422,0.457,0.948,0.685,1.576,0.685c0.683,0,1.268-0.219,1.755-0.657
			c0.189-0.167,0.283-0.295,0.283-0.381l-0.09-0.082l-0.145,0.071c-0.419,0.357-0.846,0.536-1.282,0.536
			c-0.541,0-0.998-0.226-1.373-0.679c-0.374-0.452-0.562-1.006-0.562-1.662c0-0.553,0.122-1.005,0.364-1.356
			c0.244-0.351,0.556-0.527,0.941-0.527c0.278,0,0.565,0.082,0.861,0.248c0.296,0.165,0.506,0.359,0.632,0.585
			c0.069,0.12,0.124,0.178,0.168,0.174c0.096-0.007,0.144-0.116,0.144-0.324l-0.041-0.447l0.006-0.177
			c0-0.109-0.133-0.205-0.398-0.29c-0.266-0.085-0.567-0.128-0.905-0.128C102.302,62.977,101.696,63.241,101.196,63.769z
			 M98.1,66.729c0,0.297-0.068,0.514-0.205,0.65c-0.223,0.215-0.497,0.323-0.826,0.323c-0.269,0-0.483-0.08-0.641-0.238
			c-0.159-0.158-0.238-0.372-0.238-0.641c0-0.344,0.166-0.626,0.498-0.847c0.331-0.221,0.802-0.358,1.411-0.412V66.729z
			 M96.014,65.925c-0.412,0.249-0.617,0.6-0.617,1.052c0,0.333,0.108,0.6,0.326,0.798c0.218,0.198,0.511,0.298,0.879,0.298
			c0.486,0,1.013-0.216,1.581-0.649c0.26,0.401,0.552,0.601,0.875,0.601c0.173,0,0.35-0.037,0.531-0.109
			c0.181-0.072,0.274-0.145,0.278-0.215l-0.094-0.083c-0.024,0-0.071,0.008-0.142,0.025l-0.141,0.011
			c-0.208,0-0.356-0.078-0.445-0.232c-0.089-0.155-0.133-0.415-0.133-0.78v-2.306c0-0.432-0.147-0.766-0.441-1.003
			c-0.294-0.237-0.709-0.356-1.243-0.356c-0.585,0-1.055,0.19-1.408,0.569c-0.263,0.282-0.395,0.544-0.395,0.786
			c0,0.095,0.075,0.181,0.226,0.26c0.15,0.078,0.317,0.117,0.5,0.117c0.082,0,0.12-0.035,0.117-0.105
			c-0.004-0.054-0.018-0.116-0.041-0.187c-0.051-0.167-0.077-0.315-0.077-0.443c0-0.436,0.26-0.655,0.778-0.655
			c0.385,0,0.691,0.117,0.919,0.352c0.169,0.171,0.254,0.482,0.254,0.93v0.726C97.12,65.477,96.425,65.676,96.014,65.925z"/>
		<path fill="#404040" d="M155.704,64.094c-0.071-0.165-0.106-0.296-0.106-0.393c0-0.18,0.179-0.294,0.536-0.341
			c0.111-0.012,0.165-0.048,0.165-0.108c0-0.085-0.046-0.125-0.135-0.121c-0.047,0-0.136,0.006-0.264,0.018
			c-0.095,0.007-0.261,0.012-0.5,0.012c-0.521,0-0.878-0.012-1.069-0.036l-0.135-0.012c-0.118,0-0.176,0.041-0.176,0.121
			c0,0.05,0.041,0.09,0.124,0.12c0.271,0.103,0.485,0.331,0.642,0.684l1.709,3.88c0.046,0.111,0.119,0.166,0.217,0.166
			c0.083,0,0.147-0.049,0.194-0.148l1.921-4.01c0.141-0.298,0.292-0.48,0.453-0.542c0.162-0.061,0.244-0.117,0.248-0.167
			c0.004-0.065-0.041-0.098-0.135-0.098c-0.035,0-0.107,0.004-0.218,0.012c-0.132,0.012-0.401,0.018-0.804,0.018
			c-0.204,0-0.347-0.004-0.429-0.012c-0.093-0.012-0.167-0.017-0.218-0.017c-0.102,0-0.153,0.04-0.153,0.12
			c0,0.061,0.054,0.1,0.159,0.115c0.377,0.063,0.566,0.23,0.566,0.501c0,0.306-0.101,0.675-0.302,1.108L157,67.053L155.704,64.094z
			 M151.956,67.262c-0.241,0.199-0.553,0.297-0.935,0.297c-0.521,0-0.972-0.236-1.353-0.709c-0.382-0.472-0.572-1.03-0.572-1.673
			c0-0.588,0.146-1.063,0.437-1.424c0.291-0.361,0.674-0.541,1.147-0.541c0.532,0,0.991,0.186,1.379,0.559
			c0.172,0.165,0.258,0.423,0.258,0.776v1.941C152.316,66.805,152.196,67.064,151.956,67.262z M152.316,67.779
			c0,0.2,0.046,0.297,0.137,0.293c0.043,0,0.102-0.022,0.177-0.065c0.087-0.044,0.261-0.085,0.52-0.124l0.332-0.053
			c0.043-0.007,0.145-0.02,0.307-0.035c0.141-0.015,0.213-0.065,0.213-0.149l-0.065-0.092l-0.053-0.006l-0.348,0.012
			c-0.271,0-0.406-0.222-0.406-0.666v-7.487l-0.006-0.106c0-0.087-0.03-0.13-0.089-0.13l-0.112,0.041
			c-0.517,0.31-0.978,0.491-1.384,0.542c-0.122,0.016-0.179,0.064-0.171,0.145l0.065,0.091l0.076,0.012l0.206-0.012
			c0.401-0.024,0.601,0.337,0.601,1.082v2.323c-0.474-0.279-0.948-0.419-1.423-0.419c-0.698,0-1.287,0.259-1.768,0.777
			c-0.48,0.518-0.72,1.154-0.72,1.906c0,0.683,0.201,1.255,0.603,1.719c0.401,0.462,0.899,0.694,1.49,0.694
			c0.315,0,0.596-0.06,0.844-0.178c0.25-0.119,0.573-0.351,0.973-0.694V67.779z"/>
		<path fill="#404040" d="M178.559,63.365c-0.302,0.259-0.453,0.577-0.453,0.953c0,0.313,0.097,0.579,0.294,0.796
			c0.196,0.218,0.53,0.428,1.001,0.632l0.518,0.23c0.444,0.197,0.666,0.497,0.666,0.899c0,0.263-0.09,0.48-0.273,0.649
			c-0.183,0.17-0.417,0.254-0.705,0.254c-0.333,0-0.618-0.121-0.857-0.365c-0.237-0.243-0.397-0.581-0.48-1.013
			c-0.024-0.122-0.072-0.18-0.145-0.176c-0.071,0.004-0.115,0.058-0.132,0.165l-0.012,0.176L178,67.314l0.006,0.252
			c0.007,0.09,0.057,0.139,0.147,0.147l0.154,0.018c0.024,0,0.08,0.021,0.17,0.064c0.382,0.184,0.735,0.277,1.061,0.277
			c0.456,0,0.848-0.158,1.176-0.473c0.327-0.315,0.492-0.694,0.492-1.138c0-0.36-0.095-0.647-0.286-0.861
			c-0.19-0.213-0.531-0.416-1.022-0.609c-0.494-0.193-0.823-0.356-0.987-0.49c-0.163-0.134-0.244-0.31-0.244-0.526
			c0-0.205,0.075-0.375,0.227-0.508c0.151-0.134,0.345-0.202,0.58-0.202c0.592,0,0.997,0.299,1.213,0.896
			c0.04,0.106,0.084,0.157,0.132,0.153c0.088-0.004,0.132-0.082,0.132-0.235c0-0.067-0.006-0.142-0.018-0.224l-0.024-0.23
			l-0.011-0.165v-0.095c0-0.081-0.053-0.141-0.159-0.18l-0.258-0.087c-0.224-0.081-0.492-0.122-0.801-0.122
			C179.235,62.977,178.861,63.107,178.559,63.365z M176.486,62.994c0-0.09-0.026-0.137-0.077-0.141L176.095,63
			c-0.338,0.177-0.618,0.303-0.839,0.377c-0.197,0.061-0.297,0.119-0.301,0.173c-0.004,0.062,0.069,0.092,0.218,0.092
			c0.208,0,0.344,0.05,0.407,0.148c0.063,0.098,0.093,0.31,0.093,0.635v2.564c0,0.235-0.024,0.406-0.073,0.512
			c-0.05,0.106-0.137,0.18-0.263,0.223l-0.111,0.035c-0.071,0.024-0.106,0.067-0.106,0.127c0,0.073,0.053,0.109,0.159,0.109
			c0.039,0,0.11-0.006,0.213-0.017c0.043-0.008,0.104-0.014,0.183-0.018l0.432-0.024l0.378,0.007c0.169,0,0.307,0.004,0.413,0.013
			c0.189,0.019,0.317,0.027,0.384,0.027c0.102,0,0.155-0.032,0.159-0.098c0.004-0.08-0.065-0.13-0.206-0.149l-0.271-0.03
			c-0.197-0.028-0.325-0.088-0.386-0.183c-0.061-0.094-0.091-0.281-0.091-0.56V62.994z M175.783,60.786
			c-0.145,0.162-0.216,0.289-0.216,0.379c0,0.091,0.065,0.215,0.196,0.373c0.13,0.158,0.235,0.237,0.314,0.237
			c0.082,0,0.193-0.081,0.332-0.243c0.138-0.161,0.206-0.288,0.202-0.378l-0.059-0.148l-0.142-0.225
			c-0.098-0.158-0.195-0.237-0.29-0.237C176.038,60.544,175.927,60.625,175.783,60.786z M174,63.689
			c0.129,0,0.215-0.057,0.258-0.172l0.136-0.338c0.035-0.079,0.053-0.128,0.053-0.148l-0.059-0.066l-0.13,0.071
			c-0.094,0.063-0.228,0.094-0.401,0.094h-1.254l0.024-1.019c0-0.102-0.028-0.154-0.083-0.154c-0.043,0-0.118,0.087-0.223,0.26
			c-0.244,0.39-0.596,0.78-1.055,1.17c-0.102,0.086-0.153,0.157-0.153,0.212c0,0.06,0.05,0.089,0.153,0.089h0.524v2.971
			c0,0.941,0.452,1.412,1.355,1.412c0.267,0,0.556-0.075,0.866-0.225c0.31-0.15,0.465-0.289,0.465-0.418l-0.07-0.064l-0.036,0.012
			l-0.306,0.147c-0.166,0.087-0.368,0.13-0.608,0.13c-0.298,0-0.528-0.085-0.689-0.254c-0.11-0.114-0.164-0.363-0.164-0.748v-2.963
			H174z M166.194,63.248c0-0.087,0.002-0.161,0.006-0.224c0.008-0.113-0.024-0.17-0.094-0.17l-0.141,0.046
			c-0.032,0.016-0.109,0.053-0.231,0.112l-0.312,0.154c-0.243,0.114-0.497,0.194-0.759,0.241c-0.102,0.02-0.154,0.058-0.154,0.115
			l0.053,0.085l0.095,0.024l0.253-0.006c0.184,0,0.31,0.05,0.377,0.15c0.067,0.1,0.1,0.289,0.1,0.568v2.659
			c0,0.227-0.034,0.392-0.103,0.494c-0.068,0.102-0.203,0.188-0.403,0.258c-0.071,0.029-0.109,0.067-0.112,0.116
			c-0.004,0.064,0.032,0.097,0.106,0.097c0.036,0,0.114-0.006,0.236-0.02c0.122-0.019,0.495-0.027,1.12-0.027
			c0.294,0,0.479,0.004,0.553,0.013c0.133,0.023,0.233,0.034,0.301,0.034c0.09,0,0.135-0.036,0.135-0.109
			c0-0.072-0.065-0.114-0.194-0.126c-0.527-0.032-0.799-0.213-0.819-0.543l-0.006-0.295l-0.006-0.177v-2.249
			c0-0.247,0.127-0.467,0.38-0.659c0.254-0.193,0.544-0.289,0.871-0.289c0.465,0,0.822,0.147,1.074,0.444
			c0.252,0.296,0.378,0.717,0.378,1.262v2.029c0,0.243-0.078,0.385-0.236,0.424l-0.177,0.047c-0.07,0.016-0.106,0.054-0.106,0.115
			l0.041,0.091l0.082,0.018l0.171-0.012h0.223l0.582-0.017c0.349,0,0.588,0.009,0.717,0.027c0.11,0.013,0.186,0.02,0.229,0.02
			c0.133,0,0.198-0.042,0.193-0.127c-0.003-0.061-0.059-0.1-0.164-0.115l-0.247-0.035c-0.288-0.043-0.453-0.195-0.496-0.455
			l-0.017-0.282l0.006-0.177v-1.41c0-0.723-0.125-1.262-0.377-1.616c-0.366-0.515-0.862-0.773-1.49-0.773
			c-0.566,0-1.112,0.312-1.638,0.937V63.248z M160.766,63.616c0.214-0.257,0.482-0.385,0.804-0.385c0.31,0,0.598,0.131,0.863,0.394
			c0.266,0.263,0.397,0.548,0.397,0.855c0,0.125-0.154,0.188-0.465,0.188h-1.998C160.419,64.224,160.552,63.873,160.766,63.616z
			 M162.564,64.991l0.401,0.012l0.436,0.006c0.255,0,0.383-0.064,0.383-0.194c0-0.09-0.049-0.249-0.146-0.477
			c-0.098-0.227-0.195-0.408-0.289-0.542c-0.393-0.546-0.917-0.819-1.573-0.819c-0.601,0-1.126,0.256-1.573,0.768
			c-0.448,0.512-0.671,1.109-0.671,1.791c0,0.718,0.217,1.32,0.65,1.806c0.434,0.486,0.971,0.73,1.611,0.73
			c0.57,0,1.109-0.199,1.62-0.598c0.274-0.215,0.411-0.381,0.411-0.498l-0.082-0.094l-0.089,0.041
			c-0.504,0.385-0.97,0.577-1.399,0.577c-0.542,0-1-0.229-1.372-0.686c-0.372-0.458-0.557-1.022-0.557-1.694l0.006-0.13H162.564z"/>
		<path fill="#404040" d="M184.803,63.689c0.129,0,0.216-0.057,0.259-0.172l0.136-0.338c0.035-0.079,0.053-0.128,0.053-0.148
			l-0.059-0.066l-0.13,0.071c-0.094,0.063-0.228,0.094-0.401,0.094h-1.254l0.024-1.019c0-0.102-0.028-0.154-0.083-0.154
			c-0.044,0-0.118,0.087-0.223,0.26c-0.244,0.39-0.596,0.78-1.055,1.17c-0.102,0.086-0.154,0.157-0.154,0.212
			c0,0.06,0.051,0.089,0.154,0.089h0.524v2.971c0,0.941,0.452,1.412,1.355,1.412c0.267,0,0.556-0.075,0.866-0.225
			c0.31-0.15,0.465-0.289,0.465-0.418l-0.07-0.064l-0.036,0.012l-0.306,0.147c-0.165,0.087-0.367,0.13-0.607,0.13
			c-0.298,0-0.528-0.085-0.689-0.254c-0.11-0.114-0.164-0.363-0.164-0.748v-2.963H184.803z"/>
		<path fill="#404040" d="M253.784,66.729c0,0.297-0.068,0.514-0.205,0.65c-0.223,0.215-0.497,0.323-0.826,0.323
			c-0.27,0-0.483-0.08-0.641-0.238c-0.158-0.158-0.237-0.372-0.237-0.641c0-0.344,0.166-0.626,0.498-0.847
			c0.332-0.221,0.802-0.358,1.411-0.412V66.729z M251.697,65.925c-0.411,0.249-0.617,0.6-0.617,1.052c0,0.333,0.109,0.6,0.326,0.798
			c0.218,0.198,0.511,0.298,0.879,0.298c0.486,0,1.013-0.216,1.581-0.649c0.26,0.401,0.552,0.601,0.875,0.601
			c0.172,0,0.35-0.037,0.531-0.109c0.182-0.072,0.274-0.145,0.279-0.215l-0.095-0.083c-0.024,0-0.071,0.008-0.141,0.025
			l-0.141,0.011c-0.208,0-0.357-0.078-0.445-0.232c-0.089-0.155-0.132-0.415-0.132-0.78v-2.306c0-0.432-0.147-0.766-0.441-1.003
			c-0.295-0.237-0.709-0.356-1.243-0.356c-0.585,0-1.055,0.19-1.408,0.569c-0.262,0.282-0.394,0.544-0.394,0.786
			c0,0.095,0.075,0.181,0.225,0.26c0.15,0.078,0.317,0.117,0.501,0.117c0.082,0,0.12-0.035,0.116-0.105
			c-0.003-0.054-0.017-0.116-0.041-0.187c-0.051-0.167-0.077-0.315-0.077-0.443c0-0.436,0.26-0.655,0.778-0.655
			c0.385,0,0.692,0.117,0.919,0.352c0.169,0.171,0.254,0.482,0.254,0.93v0.726C252.803,65.477,252.108,65.676,251.697,65.925z
			 M249.459,62.994c0-0.09-0.026-0.137-0.076-0.141L249.069,63c-0.339,0.177-0.619,0.303-0.839,0.377
			c-0.198,0.061-0.297,0.119-0.302,0.173c-0.003,0.062,0.07,0.092,0.219,0.092c0.208,0,0.343,0.05,0.406,0.148
			c0.063,0.098,0.094,0.31,0.094,0.635v2.564c0,0.235-0.024,0.406-0.073,0.512c-0.05,0.106-0.137,0.18-0.263,0.223l-0.111,0.035
			c-0.071,0.024-0.106,0.067-0.106,0.127c0,0.073,0.053,0.109,0.159,0.109c0.039,0,0.11-0.006,0.212-0.017
			c0.044-0.008,0.104-0.014,0.183-0.018l0.432-0.024l0.377,0.007c0.169,0,0.307,0.004,0.414,0.013
			c0.189,0.019,0.316,0.027,0.384,0.027c0.102,0,0.156-0.032,0.159-0.098c0.005-0.08-0.065-0.13-0.206-0.149l-0.271-0.03
			c-0.197-0.028-0.326-0.088-0.386-0.183c-0.062-0.094-0.092-0.281-0.092-0.56V62.994z M248.757,60.786
			c-0.145,0.162-0.216,0.289-0.216,0.379c0,0.091,0.065,0.215,0.195,0.373c0.13,0.158,0.235,0.237,0.314,0.237
			c0.083,0,0.193-0.081,0.332-0.243c0.138-0.161,0.205-0.288,0.202-0.378l-0.06-0.148l-0.141-0.225
			c-0.099-0.158-0.196-0.237-0.291-0.237C249.012,60.544,248.901,60.625,248.757,60.786z M242.809,63.248
			c0-0.087,0.002-0.161,0.006-0.224c0.008-0.113-0.024-0.17-0.095-0.17l-0.141,0.046c-0.032,0.016-0.108,0.053-0.23,0.112
			l-0.312,0.154c-0.244,0.114-0.497,0.194-0.76,0.241c-0.102,0.02-0.153,0.058-0.153,0.115l0.053,0.085l0.094,0.024l0.254-0.006
			c0.184,0,0.31,0.05,0.377,0.15c0.066,0.1,0.099,0.289,0.099,0.568v2.659c0,0.227-0.034,0.392-0.102,0.494
			c-0.069,0.102-0.204,0.188-0.404,0.258c-0.071,0.029-0.108,0.067-0.112,0.116c-0.003,0.064,0.032,0.097,0.106,0.097
			c0.036,0,0.114-0.006,0.236-0.02c0.121-0.019,0.495-0.027,1.119-0.027c0.294,0,0.479,0.004,0.553,0.013
			c0.133,0.023,0.234,0.034,0.301,0.034c0.09,0,0.136-0.036,0.136-0.109c0-0.072-0.065-0.114-0.194-0.126
			c-0.527-0.032-0.8-0.213-0.819-0.543l-0.006-0.295l-0.006-0.177v-2.249c0-0.247,0.128-0.467,0.381-0.659
			c0.254-0.193,0.544-0.289,0.87-0.289c0.465,0,0.823,0.147,1.074,0.444c0.253,0.296,0.378,0.717,0.378,1.262v2.029
			c0,0.243-0.078,0.385-0.235,0.424l-0.177,0.047c-0.071,0.016-0.106,0.054-0.106,0.115l0.041,0.091l0.082,0.018l0.17-0.012h0.223
			l0.583-0.017c0.348,0,0.588,0.009,0.717,0.027c0.11,0.013,0.185,0.02,0.229,0.02c0.132,0,0.197-0.042,0.193-0.127
			c-0.004-0.061-0.059-0.1-0.165-0.115l-0.247-0.035c-0.287-0.043-0.452-0.195-0.495-0.455l-0.018-0.282l0.006-0.177v-1.41
			c0-0.723-0.125-1.262-0.377-1.616c-0.365-0.515-0.861-0.773-1.49-0.773c-0.565,0-1.111,0.312-1.637,0.937V63.248z M237.607,61.434
			l0.158,0.165l0.235,0.254l0.187,0.2l0.128,0.142l0.172,0.093l0.172-0.041l0.249-0.092c0.106-0.038,0.156-0.088,0.148-0.15
			c-0.003-0.043-0.247-0.322-0.731-0.837c-0.188-0.2-0.315-0.321-0.382-0.364c-0.067-0.043-0.165-0.065-0.295-0.065
			c-0.117,0-0.204,0.016-0.259,0.05c-0.054,0.033-0.135,0.119-0.241,0.26l-0.495,0.619l-0.189,0.239l-0.071,0.158l0.095,0.128
			l0.197,0.066c0.067,0,0.157-0.082,0.268-0.247c0.291-0.44,0.472-0.662,0.542-0.666L237.607,61.434z M238.952,63.942
			c0.353,0.487,0.529,1.118,0.529,1.891c0,0.612-0.14,1.098-0.42,1.455c-0.28,0.357-0.663,0.536-1.15,0.536
			c-0.556,0-1.022-0.252-1.397-0.757c-0.374-0.504-0.562-1.132-0.562-1.882c0-0.589,0.151-1.065,0.45-1.428
			c0.3-0.363,0.696-0.545,1.186-0.545C238.144,63.213,238.599,63.456,238.952,63.942z M235.882,63.727
			c-0.51,0.5-0.766,1.107-0.766,1.821c0,0.737,0.241,1.342,0.722,1.815c0.481,0.472,1.094,0.709,1.84,0.709
			c0.762,0,1.393-0.243,1.891-0.73c0.499-0.486,0.748-1.102,0.748-1.848c0-0.686-0.254-1.278-0.76-1.774
			c-0.507-0.496-1.113-0.745-1.82-0.745C237.011,62.977,236.393,63.227,235.882,63.727z M231.17,67.548l-0.07,0.124l-0.054,0.129
			c0,0.079,0.078,0.118,0.236,0.118h2.515c0.165,0,0.269-0.08,0.312-0.241l0.094-0.352c0.04-0.149,0.097-0.311,0.171-0.487
			c0.059-0.137,0.09-0.26,0.094-0.37c0.004-0.074-0.028-0.111-0.096-0.111c-0.076,0-0.155,0.101-0.24,0.304
			c-0.141,0.343-0.446,0.514-0.916,0.514h-1.358l2.444-3.74l0.065-0.16c0.008-0.102-0.061-0.153-0.206-0.153h-0.089
			c-0.036,0.004-0.102,0.006-0.2,0.006h-1.031l-0.531-0.006l-0.666-0.017c-0.154,0-0.253,0.031-0.3,0.093
			c-0.047,0.063-0.089,0.221-0.124,0.475c-0.027,0.184-0.059,0.343-0.094,0.475c-0.031,0.11-0.046,0.204-0.046,0.282
			c0,0.09,0.036,0.135,0.108,0.135c0.06,0,0.112-0.064,0.157-0.193c0.066-0.18,0.186-0.304,0.358-0.374l0.393-0.075h1.468
			L231.17,67.548z M228.695,66.729c0,0.297-0.068,0.514-0.205,0.65c-0.223,0.215-0.497,0.323-0.826,0.323
			c-0.27,0-0.483-0.08-0.64-0.238c-0.158-0.158-0.238-0.372-0.238-0.641c0-0.344,0.167-0.626,0.498-0.847
			c0.332-0.221,0.802-0.358,1.411-0.412V66.729z M226.609,65.925c-0.412,0.249-0.618,0.6-0.618,1.052c0,0.333,0.109,0.6,0.327,0.798
			c0.218,0.198,0.51,0.298,0.879,0.298c0.487,0,1.013-0.216,1.581-0.649c0.261,0.401,0.552,0.601,0.875,0.601
			c0.172,0,0.35-0.037,0.531-0.109c0.181-0.072,0.274-0.145,0.278-0.215l-0.094-0.083c-0.024,0-0.071,0.008-0.142,0.025
			l-0.141,0.011c-0.208,0-0.357-0.078-0.445-0.232c-0.088-0.155-0.132-0.415-0.132-0.78v-2.306c0-0.432-0.147-0.766-0.441-1.003
			c-0.294-0.237-0.709-0.356-1.243-0.356c-0.585,0-1.054,0.19-1.408,0.569c-0.263,0.282-0.395,0.544-0.395,0.786
			c0,0.095,0.075,0.181,0.226,0.26c0.15,0.078,0.316,0.117,0.5,0.117c0.082,0,0.12-0.035,0.117-0.105
			c-0.004-0.054-0.018-0.116-0.041-0.187c-0.051-0.167-0.076-0.315-0.076-0.443c0-0.436,0.259-0.655,0.778-0.655
			c0.385,0,0.691,0.117,0.918,0.352c0.169,0.171,0.254,0.482,0.254,0.93v0.726C227.716,65.477,227.019,65.676,226.609,65.925z
			 M218.069,63.059c0-0.145-0.029-0.218-0.089-0.218c-0.032,0-0.124,0.043-0.278,0.129c-0.347,0.196-0.723,0.347-1.129,0.453
			c-0.094,0.028-0.141,0.069-0.141,0.121l0.035,0.061l0.1,0.03h0.259c0.165,0,0.278,0.053,0.339,0.159
			c0.061,0.106,0.091,0.299,0.091,0.582v2.635c0,0.251-0.025,0.42-0.076,0.506c-0.051,0.087-0.167,0.156-0.347,0.212
			c-0.087,0.028-0.13,0.072-0.13,0.132c0,0.072,0.05,0.106,0.147,0.103c0.044-0.004,0.116-0.013,0.219-0.027
			c0.083-0.009,0.152-0.013,0.206-0.013l0.402-0.006h0.396c0.244,0,0.407,0.006,0.49,0.017c0.134,0.015,0.228,0.026,0.283,0.03
			c0.095,0.004,0.142-0.031,0.142-0.103c0-0.076-0.061-0.121-0.182-0.132c-0.267-0.032-0.457-0.106-0.569-0.224
			c-0.112-0.118-0.168-0.304-0.168-0.558V64.42c0-0.289,0.107-0.522,0.32-0.699c0.214-0.178,0.493-0.267,0.838-0.267
			c0.375,0,0.67,0.119,0.884,0.356c0.214,0.238,0.32,0.562,0.32,0.974v2.182c0,0.31-0.02,0.501-0.059,0.574
			c-0.039,0.072-0.163,0.146-0.371,0.22c-0.07,0.024-0.105,0.059-0.105,0.104c0,0.068,0.047,0.103,0.141,0.103
			c0.047,0,0.108-0.006,0.183-0.018c0.142-0.02,0.483-0.029,1.022-0.029c0.154,0,0.339,0.012,0.555,0.035
			c0.086,0.008,0.15,0.012,0.189,0.012c0.115,0,0.171-0.035,0.171-0.106c0-0.074-0.065-0.117-0.194-0.129
			c-0.279-0.024-0.469-0.095-0.569-0.213c-0.1-0.118-0.15-0.327-0.15-0.626v-2.13c0-0.13-0.011-0.265-0.035-0.407l-0.018-0.147
			c0-0.184,0.121-0.358,0.364-0.523c0.243-0.166,0.498-0.249,0.764-0.249c0.404,0,0.718,0.148,0.944,0.442
			c0.225,0.295,0.338,0.707,0.338,1.237v1.926l-0.007,0.2c0,0.141-0.026,0.243-0.08,0.306c-0.052,0.063-0.166,0.128-0.338,0.195
			c-0.071,0.028-0.104,0.064-0.1,0.108c0.004,0.076,0.057,0.115,0.158,0.115c0.031,0,0.09-0.006,0.176-0.02
			c0.13-0.019,0.455-0.027,0.976-0.027c0.266,0,0.462,0.009,0.587,0.029c0.079,0.012,0.14,0.018,0.183,0.018
			c0.093,0,0.141-0.035,0.141-0.103c0-0.076-0.047-0.119-0.141-0.127c-0.271-0.028-0.466-0.114-0.584-0.26
			c-0.117-0.145-0.176-0.369-0.176-0.672v-1.896c0-0.609-0.149-1.083-0.446-1.423c-0.297-0.339-0.712-0.51-1.245-0.51
			c-0.627,0-1.164,0.295-1.614,0.884c-0.193-0.323-0.399-0.55-0.618-0.683c-0.22-0.133-0.503-0.201-0.848-0.201
			c-0.597,0-1.115,0.265-1.555,0.796V63.059z M212.897,64.002l0.03,0.136c0,0.098-0.098,0.147-0.295,0.147h-1.779l-0.159-0.005
			c-0.18,0-0.271-0.052-0.271-0.153c0-0.035,0.025-0.108,0.076-0.218l1.148-2.551c0.036-0.078,0.067-0.116,0.094-0.112
			c0.055,0.004,0.106,0.069,0.154,0.195l0.047,0.123l0.925,2.333L212.897,64.002z M213.198,64.894
			c0.047,0.033,0.112,0.158,0.194,0.375l0.294,0.779c0.24,0.621,0.359,1.037,0.359,1.246c0,0.228-0.098,0.361-0.294,0.401
			l-0.182,0.041c-0.098,0.018-0.148,0.059-0.148,0.12c0,0.08,0.051,0.121,0.154,0.121c0.039,0,0.1-0.008,0.182-0.024
			c0.138-0.024,0.479-0.035,1.025-0.035c0.523,0,0.886,0.009,1.09,0.029c0.114,0.008,0.189,0.012,0.224,0.012
			c0.106,0,0.161-0.032,0.165-0.098c0.003-0.072-0.055-0.12-0.176-0.143c-0.374-0.067-0.621-0.159-0.743-0.275
			c-0.121-0.116-0.275-0.412-0.459-0.888l-0.13-0.319l-2.532-6.489c-0.044-0.114-0.097-0.171-0.159-0.171
			c-0.063,0-0.119,0.059-0.171,0.177l-3.029,6.726l-0.17,0.389c-0.086,0.181-0.197,0.355-0.33,0.522
			c-0.133,0.167-0.24,0.263-0.318,0.286l-0.219,0.065l-0.1,0.126c0,0.073,0.053,0.109,0.158,0.109c0.019,0,0.129-0.011,0.329-0.033
			c0.063-0.005,0.151-0.008,0.264-0.008c0.247,0,0.465,0.004,0.653,0.013l0.564,0.033c0.09,0.004,0.157,0.006,0.2,0.006
			c0.114,0,0.168-0.032,0.164-0.098c-0.003-0.068-0.065-0.114-0.183-0.138c-0.271-0.059-0.452-0.129-0.544-0.212
			c-0.092-0.083-0.139-0.217-0.139-0.402c0-0.193,0.088-0.488,0.262-0.885l0.386-0.868c0.118-0.268,0.212-0.425,0.283-0.472
			c0.071-0.047,0.251-0.071,0.542-0.071h2.132C213.016,64.844,213.151,64.861,213.198,64.894z M203.042,66.729
			c0,0.297-0.068,0.514-0.205,0.65c-0.223,0.215-0.497,0.323-0.826,0.323c-0.27,0-0.483-0.08-0.64-0.238
			c-0.159-0.158-0.238-0.372-0.238-0.641c0-0.344,0.167-0.626,0.498-0.847c0.332-0.221,0.802-0.358,1.411-0.412V66.729z
			 M200.955,65.925c-0.411,0.249-0.617,0.6-0.617,1.052c0,0.333,0.109,0.6,0.327,0.798c0.218,0.198,0.51,0.298,0.878,0.298
			c0.486,0,1.013-0.216,1.581-0.649c0.26,0.401,0.552,0.601,0.875,0.601c0.172,0,0.35-0.037,0.531-0.109
			c0.181-0.072,0.273-0.145,0.278-0.215l-0.094-0.083c-0.024,0-0.071,0.008-0.142,0.025l-0.141,0.011
			c-0.208,0-0.357-0.078-0.445-0.232c-0.089-0.155-0.132-0.415-0.132-0.78v-2.306c0-0.432-0.147-0.766-0.441-1.003
			c-0.294-0.237-0.709-0.356-1.243-0.356c-0.585,0-1.055,0.19-1.408,0.569c-0.263,0.282-0.394,0.544-0.394,0.786
			c0,0.095,0.075,0.181,0.226,0.26c0.15,0.078,0.316,0.117,0.5,0.117c0.082,0,0.12-0.035,0.117-0.105
			c-0.004-0.054-0.018-0.116-0.041-0.187c-0.051-0.167-0.077-0.315-0.077-0.443c0-0.436,0.26-0.655,0.778-0.655
			c0.385,0,0.692,0.117,0.919,0.352c0.169,0.171,0.254,0.482,0.254,0.93v0.726C202.062,65.477,201.366,65.676,200.955,65.925z
			 M197.538,67.262c-0.241,0.199-0.553,0.297-0.935,0.297c-0.521,0-0.972-0.236-1.353-0.709c-0.382-0.472-0.572-1.03-0.572-1.673
			c0-0.588,0.145-1.063,0.437-1.424c0.291-0.361,0.675-0.541,1.147-0.541c0.531,0,0.991,0.186,1.379,0.559
			c0.172,0.165,0.258,0.423,0.258,0.776v1.941C197.899,66.805,197.779,67.064,197.538,67.262z M197.899,67.779
			c0,0.2,0.046,0.297,0.137,0.293c0.043,0,0.102-0.022,0.177-0.065c0.087-0.044,0.261-0.085,0.52-0.124l0.332-0.053
			c0.043-0.007,0.146-0.02,0.307-0.035c0.141-0.015,0.213-0.065,0.213-0.149l-0.065-0.092l-0.053-0.006l-0.348,0.012
			c-0.271,0-0.406-0.222-0.406-0.666v-7.487l-0.006-0.106c0-0.087-0.03-0.13-0.089-0.13l-0.112,0.041
			c-0.517,0.31-0.978,0.491-1.384,0.542c-0.122,0.016-0.179,0.064-0.171,0.145l0.065,0.091l0.076,0.012l0.206-0.012
			c0.401-0.024,0.601,0.337,0.601,1.082v2.323c-0.474-0.279-0.948-0.419-1.423-0.419c-0.698,0-1.287,0.259-1.768,0.777
			c-0.48,0.518-0.72,1.154-0.72,1.906c0,0.683,0.201,1.255,0.603,1.719c0.401,0.462,0.899,0.694,1.49,0.694
			c0.314,0,0.596-0.06,0.844-0.178c0.249-0.119,0.573-0.351,0.973-0.694V67.779z M188.628,66.729c0,0.297-0.069,0.514-0.206,0.65
			c-0.223,0.215-0.497,0.323-0.826,0.323c-0.269,0-0.483-0.08-0.64-0.238c-0.158-0.158-0.237-0.372-0.237-0.641
			c0-0.344,0.166-0.626,0.497-0.847c0.332-0.221,0.802-0.358,1.412-0.412V66.729z M186.542,65.925
			c-0.412,0.249-0.617,0.6-0.617,1.052c0,0.333,0.108,0.6,0.326,0.798c0.218,0.198,0.51,0.298,0.878,0.298
			c0.487,0,1.013-0.216,1.581-0.649c0.261,0.401,0.552,0.601,0.875,0.601c0.173,0,0.35-0.037,0.531-0.109
			c0.181-0.072,0.274-0.145,0.278-0.215l-0.094-0.083c-0.024,0-0.071,0.008-0.141,0.025l-0.141,0.011
			c-0.208,0-0.356-0.078-0.445-0.232c-0.089-0.155-0.133-0.415-0.133-0.78v-2.306c0-0.432-0.146-0.766-0.441-1.003
			c-0.294-0.237-0.709-0.356-1.243-0.356c-0.585,0-1.054,0.19-1.408,0.569c-0.262,0.282-0.395,0.544-0.395,0.786
			c0,0.095,0.076,0.181,0.226,0.26c0.15,0.078,0.316,0.117,0.501,0.117c0.081,0,0.12-0.035,0.116-0.105
			c-0.004-0.054-0.018-0.116-0.041-0.187c-0.051-0.167-0.076-0.315-0.076-0.443c0-0.436,0.259-0.655,0.778-0.655
			c0.385,0,0.692,0.117,0.918,0.352c0.169,0.171,0.254,0.482,0.254,0.93v0.726C187.648,65.477,186.952,65.676,186.542,65.925z"/>
	</g>
	<path fill-rule="evenodd" clip-rule="evenodd" fill="#FFFFFF" d="M5.143,33.971l0.001,2.749h36.55v-2.749H5.143z M5.141,29.555
		l0.001,2.379h36.553v-2.379H5.141z M5.138,25.139l0.001,2.379h36.555v-2.379H5.138z M5.136,20.602l0.001,2.499h36.557v-2.499H5.136
		z M11.45,16.185l-4.3,2.379h34.544v-2.379H11.45z M19.464,11.751l-4.332,2.397h26.562v-2.397H19.464z M27.479,7.316l-4.332,2.397
		h18.548V7.316H27.479z M41.695,1.373h-3.476l-7.058,3.905h10.534V1.373z"/>
	<path fill-rule="evenodd" clip-rule="evenodd" fill="#FFFFFF" d="M75.511,55.918C69.6,65.795,58.793,72.445,46.506,72.445h-2.739
		V55.918H75.511z M76.449,54.248c-0.153,0.293-0.311,0.583-0.472,0.871h-32.21v-0.871H76.449z M43.767,51.703v-0.782h1.745
		l-0.001,0.782H43.767z M77.23,52.659c-0.146,0.317-0.296,0.63-0.451,0.942H43.767v-0.942h2.44h0.062v-0.063v-0.831v-0.906v-0.062
		v-0.835V49.9h-0.062h-2.172l-0.001-0.513h1.175h0.485h1.167v2.378v0.831v0.063h0.063h4.098h0.062v-0.063v-0.831h-0.001l0.001-0.906
		v-0.062v-0.835V49.9h-0.062h-2.172l-0.001-0.513h1.174h0.51h1.168v2.378v0.831v0.063h0.062h4.098h0.062v-0.063v-0.831v-0.906
		v-0.062v-0.835V49.9h-0.062h-2.172l-0.001-0.513h1.174h0.485h1.169v2.378v0.831v0.063h0.062h4.098h0.062v-0.063v-0.831v-0.906
		v-0.062v-0.835V49.9h-0.062h-2.172v-0.513h1.174h0.45h1.168v2.378v0.831v0.063h0.062h4.098h0.062v-0.063v-0.831l0.001-0.906v-0.062
		H65.52v-0.835V49.9h-0.062h-2.172l-0.001-0.513h1.174h0.485h1.168v2.378v0.831v0.063h0.062h4.098h0.062v-0.063v-0.831l0.001-0.906
		v-0.062v-0.835V49.9h-0.063h-2.171L68.1,49.387h1.174h0.51h1.168v2.378v0.831v0.063h0.063h4.098h0.062v-0.063v-0.831l0.001-0.906
		v-0.062h-0.001v-0.835V49.9h-0.062h-2.172l-0.001-0.513h1.174h0.486h1.168v2.378v0.831v0.063h0.062H77.23z M78.53,49.387
		c-0.058,0.172-0.118,0.343-0.178,0.513h-0.597v-0.513H78.53z M79.087,47.57c-0.08,0.289-0.163,0.577-0.25,0.862h-1.778h-0.062
		v0.062v0.831h0.001l0.001,0.638v0.896v0.062h0.061h0.91c-0.102,0.262-0.209,0.523-0.319,0.782h-1.125v-3.209v-0.062h-0.062h-0.202
		h-1.662h-0.486h-1.87h-0.062v0.062v0.831l0.001,0.638l-0.001,0.896v0.062h0.061h2.173l-0.001,0.782h-2.706l0.001-3.209v-0.062
		h-0.063h-0.227h-1.637h-0.51h-1.87h-0.062v0.062v0.831l0.001,0.638l-0.001,0.896v0.062h0.062h2.172v0.782h-2.706v-3.209v-0.062
		h-0.062h-0.202h-1.662h-0.485h-1.871h-0.062v0.062v0.831l0.001,0.638v0.896v0.062h0.061h2.173l-0.001,0.782h-2.706l0.001-3.209
		v-0.062h-0.062h-0.168H60.13h-0.45h-1.871h-0.061v0.062v0.831l0.001,0.638v0.896v0.062h0.061h2.172v0.782h-2.706v-3.209v-0.062
		h-0.061h-0.203h-1.662h-0.485h-1.871h-0.062v0.062v0.831l0.001,0.638l-0.001,0.896v0.062h0.062h2.173l-0.001,0.782h-2.706v-3.209
		v-0.062h-0.062h-0.227h-1.637h-0.51h-1.871h-0.062v0.062v0.831l0.001,0.638v0.896l-0.001,0.062h0.063h2.172l-0.001,0.782H47.62
		v-3.209v-0.062h-0.061h-0.203h-1.662H45.21h-1.443V47.57H79.087z M79.501,45.901c-0.063,0.291-0.133,0.581-0.205,0.87H43.767v-0.87
		H79.501z M43.767,38.661h36.524c0,2.254-0.226,4.458-0.652,6.592H43.767V38.661z"/>
	<path fill-rule="evenodd" clip-rule="evenodd" fill="#FFFFFF" d="M5.099,38.596c0,18.613,15.229,33.842,33.842,33.842h2.744V38.596
		H5.099z M38.78,55.911c-1.132-0.183-6.994-1.13-8.915-1.407c-1.744-0.252-3.751-0.035-4.46,0.766
		c-0.018,0.021-0.138,0.149-0.216,0.148c-0.078,0-0.162-0.113-0.176-0.13c-0.698-0.813-2.834-1.037-4.587-0.785
		c-1.921,0.278-7.783,1.224-8.915,1.407c-0.114,0.013-0.154-0.008-0.167-0.027l0.235-0.586v0.001l0.001-0.006l0.006-0.012
		c0.013-0.03,0.053-0.087,0.165-0.115c1.1-0.176,6.871-1.101,8.761-1.373c1.598-0.23,3.836,0.067,4.678,0.78
		c0.841-0.712,2.994-1.01,4.591-0.78c1.89,0.272,7.661,1.197,8.76,1.373c0.113,0.029,0.153,0.086,0.166,0.115l0.005,0.012
		l0.001,0.006l0.001-0.001l0.235,0.586C38.935,55.902,38.895,55.923,38.78,55.911z M38.772,54.386l-0.285-0.05
		c-0.065-0.011-6.563-1.133-8.665-1.437c-0.432-0.062-0.902-0.095-1.358-0.095c-2.209-0.004-2.639,0.572-2.989,0.824
		c-0.131,0.093-0.181,0.204-0.292,0.203c-0.111,0.001-0.16-0.109-0.291-0.203c-0.351-0.251-0.856-0.827-3.065-0.824
		c-0.456,0-0.925,0.033-1.358,0.095c-2.102,0.304-8.6,1.426-8.665,1.437l-0.286,0.05c-0.15,0.026-0.186-0.022-0.192-0.062
		l1.254-8.472v-0.001l0.005-0.016c0.011-0.024,0.041-0.069,0.116-0.1l0.094-0.015c0.195-0.031,0.837-0.151,1.652-0.301
		c1.92-0.356,4.678-0.879,6.059-1.077c0.378-0.055,0.787-0.082,1.215-0.082c1.1,0,2.612,0.204,3.463,0.766
		c0.851-0.562,2.363-0.766,3.462-0.766c0.43,0,0.839,0.027,1.216,0.082c1.381,0.198,4.105,0.709,6.025,1.065
		c0.815,0.15,1.457,0.27,1.652,0.301l0.094,0.015c0.076,0.032,0.105,0.077,0.115,0.1l0.006,0.016v0.001l1.209,8.483
		C38.959,54.363,38.922,54.411,38.772,54.386z"/>
	<path fill-rule="evenodd" clip-rule="evenodd" fill="#FFFFFF" d="M47.235,1.403h-3.474v35.326h36.528l0.009-17.031L47.235,1.403z
		 M70.852,31.082c0,0-4.645-2.234-8.77-2.234c-4.121,0-8.767,2.234-8.767,2.234v-4.915c0,0,4.433-2.446,8.837-2.446
		c4.404,0,8.7,2.517,8.7,2.517V31.082z M75.327,27.486l-0.268,0.507h-0.535l-0.268-0.507l0.268-0.506h-0.008v-1.554l-2.653,1.204
		v-0.84c0,0-4.792-2.89-9.707-2.89c-4.908,0-9.852,2.814-9.852,2.814v1.468l-3.154-1.69l-0.764-0.411h0.005l-1.747-0.939
		l15.805-7.56l15.125,7.456l-2.516,1.142v1.8L75.327,27.486z"/>
	<g>
		<path fill="#FFFFFF" d="M96.239,25.295c0.416-0.224,1.486-0.336,3.209-0.336c1.324,0,2.416,0.039,3.278,0.116l2.724,0.278
			c1.032,0.093,1.697,0.252,1.998,0.475c0.299,0.224,0.55,0.73,0.75,1.518c0.123,0.494,0.207,0.981,0.254,1.46
			c0.031,0.386,0.165,0.579,0.403,0.579c0.411,0,0.616-0.357,0.616-1.07c0-1.69,0.131-3.038,0.394-4.046
			c0.077-0.325,0.116-0.581,0.116-0.767c0-0.356-0.17-0.535-0.51-0.535c-0.216,0-0.472,0.031-0.765,0.093
			c-0.402,0.078-1.297,0.147-2.687,0.208l-3.221,0.162c-0.834,0.046-2.71,0.069-5.63,0.069c-3.275,0-5.599-0.069-6.974-0.208
			c-0.757-0.077-1.236-0.116-1.437-0.116c-0.649,0-0.958,0.196-0.926,0.589c0.015,0.241,0.208,0.377,0.578,0.407
			c0.911,0.077,1.553,0.209,1.924,0.395c0.37,0.185,0.71,0.542,1.019,1.067c0.479,0.79,0.719,1.919,0.719,3.388v20.906
			c0,1.516-0.178,2.584-0.534,3.203c-0.355,0.619-1.027,1.037-2.015,1.253c-0.479,0.106-0.719,0.279-0.719,0.521
			c0,0.286,0.224,0.422,0.674,0.406c0.247-0.015,0.642-0.038,1.184-0.069c0.665-0.062,1.191-0.093,1.578-0.093l1.788-0.023
			l1.602,0.026c1.006,0,1.764,0.034,2.275,0.103c0.604,0.068,1.076,0.103,1.416,0.103c0.496,0,0.728-0.174,0.697-0.521
			c-0.016-0.301-0.286-0.453-0.811-0.453c-1.096,0-1.969-0.364-2.618-1.093c-0.649-0.73-0.973-1.707-0.973-2.934v-8.637
			c0-0.636,0.038-1.102,0.115-1.397c0.061-0.279,0.365-0.458,0.911-0.535c0.546-0.077,1.742-0.117,3.588-0.117
			c2,0,3.515,0.132,4.545,0.394c0.508,0.123,0.869,0.332,1.085,0.625c0.215,0.294,0.415,0.85,0.6,1.668
			c0.169,0.757,0.404,1.136,0.705,1.136c0.286,0,0.429-0.185,0.429-0.555c0-0.139-0.015-0.354-0.046-0.647
			c-0.062-0.493-0.093-1.64-0.093-3.443c0-0.647,0.008-1.117,0.024-1.41l0.139-2.287c0.031-0.478-0.104-0.717-0.404-0.717
			c-0.254,0-0.412,0.185-0.476,0.556c-0.17,1.035-0.577,1.765-1.223,2.189c-0.646,0.425-1.677,0.638-3.092,0.638L99.7,37.865
			l-0.761,0.023l-1.984-0.047c-0.815,0-1.254-0.208-1.315-0.624v-0.601l-0.023-0.439v-9.159
			C95.616,26.094,95.824,25.519,96.239,25.295z"/>
		<path fill="#FFFFFF" d="M129.234,39.719c0.078,0.247,0.116,0.425,0.116,0.533c0,0.386-0.386,0.579-1.159,0.579h-6.997
			l-0.626-0.024c-0.711,0-1.065-0.2-1.065-0.602c0-0.139,0.1-0.424,0.301-0.857l4.518-10.031c0.139-0.309,0.262-0.456,0.37-0.44
			c0.216,0.015,0.417,0.27,0.603,0.765l0.185,0.486l3.637,9.175L129.234,39.719z M130.416,43.229
			c0.185,0.132,0.44,0.623,0.765,1.475l1.158,3.064c0.942,2.446,1.413,4.078,1.413,4.899c0,0.898-0.386,1.424-1.158,1.578
			l-0.718,0.163c-0.387,0.076-0.579,0.234-0.579,0.475c0,0.317,0.2,0.475,0.602,0.475c0.154,0,0.394-0.031,0.719-0.093
			c0.54-0.092,1.884-0.139,4.031-0.139c2.054,0,3.483,0.039,4.287,0.116c0.448,0.031,0.741,0.047,0.88,0.047
			c0.417,0,0.633-0.128,0.648-0.384c0.015-0.286-0.216-0.475-0.695-0.566c-1.468-0.263-2.44-0.622-2.919-1.079
			c-0.479-0.456-1.082-1.62-1.807-3.492l-0.51-1.253l-9.963-25.523c-0.17-0.449-0.379-0.673-0.625-0.673
			c-0.247,0-0.472,0.232-0.672,0.695l-11.909,26.455l-0.672,1.53c-0.339,0.711-0.772,1.395-1.297,2.052
			c-0.525,0.657-0.942,1.032-1.251,1.124l-0.857,0.256c-0.263,0.079-0.394,0.245-0.394,0.499c0,0.286,0.208,0.428,0.624,0.428
			c0.077,0,0.509-0.044,1.294-0.13c0.246-0.022,0.592-0.032,1.04-0.032c0.97,0,1.826,0.018,2.565,0.052l2.219,0.13
			c0.354,0.017,0.616,0.026,0.786,0.026c0.447,0,0.663-0.128,0.647-0.384c-0.015-0.271-0.255-0.452-0.718-0.542
			c-1.066-0.232-1.781-0.511-2.144-0.835c-0.363-0.325-0.544-0.851-0.544-1.58c0-0.758,0.343-1.918,1.029-3.482l1.519-3.413
			c0.463-1.052,0.835-1.671,1.112-1.857c0.278-0.185,0.989-0.278,2.132-0.278h8.388C129.705,43.032,130.23,43.098,130.416,43.229z"
			/>
		<path fill="#FFFFFF" d="M165.332,39.719c0.078,0.247,0.116,0.425,0.116,0.533c0,0.386-0.386,0.579-1.159,0.579h-6.996
			l-0.626-0.024c-0.711,0-1.065-0.2-1.065-0.602c0-0.139,0.1-0.424,0.301-0.857l4.518-10.031c0.138-0.309,0.262-0.456,0.371-0.44
			c0.216,0.015,0.417,0.27,0.602,0.765l0.185,0.486l3.637,9.175L165.332,39.719z M166.514,43.229
			c0.185,0.132,0.44,0.623,0.765,1.475l1.158,3.064c0.942,2.446,1.413,4.078,1.413,4.899c0,0.898-0.386,1.424-1.159,1.578
			l-0.718,0.163c-0.387,0.076-0.579,0.234-0.579,0.475c0,0.317,0.201,0.475,0.602,0.475c0.154,0,0.394-0.031,0.718-0.093
			c0.54-0.092,1.885-0.139,4.032-0.139c2.054,0,3.483,0.039,4.286,0.116c0.448,0.031,0.742,0.047,0.881,0.047
			c0.417,0,0.633-0.128,0.648-0.384c0.015-0.286-0.216-0.475-0.696-0.566c-1.468-0.263-2.44-0.622-2.919-1.079
			c-0.479-0.456-1.082-1.62-1.807-3.492l-0.51-1.253l-9.962-25.523c-0.17-0.449-0.379-0.673-0.625-0.673
			c-0.248,0-0.472,0.232-0.673,0.695l-11.909,26.455l-0.672,1.53c-0.34,0.711-0.772,1.395-1.297,2.052
			c-0.526,0.657-0.943,1.032-1.251,1.124l-0.857,0.256c-0.263,0.079-0.394,0.245-0.394,0.499c0,0.286,0.208,0.428,0.624,0.428
			c0.076,0,0.509-0.044,1.295-0.13c0.245-0.022,0.592-0.032,1.039-0.032c0.97,0,1.825,0.018,2.565,0.052l2.219,0.13
			c0.354,0.017,0.617,0.026,0.787,0.026c0.447,0,0.662-0.128,0.647-0.384c-0.015-0.271-0.254-0.452-0.718-0.542
			c-1.066-0.232-1.781-0.511-2.143-0.835c-0.363-0.325-0.544-0.851-0.544-1.58c0-0.758,0.343-1.918,1.029-3.482l1.52-3.413
			c0.463-1.052,0.835-1.671,1.112-1.857c0.278-0.185,0.989-0.278,2.132-0.278h8.387C165.804,43.032,166.329,43.098,166.514,43.229z"
			/>
		<path fill="#FFFFFF" d="M211.442,46.522l0.093,3.78c0,1.392-0.154,2.366-0.463,2.923c-0.31,0.557-0.92,0.959-1.83,1.206
			c-0.387,0.105-0.579,0.279-0.579,0.52c0,0.271,0.223,0.407,0.67,0.407c0.246,0,1.172-0.043,2.774-0.129
			c1.032-0.069,1.788-0.103,2.265-0.103c0.694,0,1.342,0.031,1.943,0.093l1.802,0.185c0.216,0.015,0.409,0.023,0.579,0.023
			c0.57,0,0.855-0.151,0.855-0.453c0-0.287-0.409-0.491-1.227-0.612c-1.143-0.17-1.932-0.511-2.364-1.021
			c-0.432-0.51-0.648-1.353-0.648-2.529l-0.115-2.924l-0.44-12.6l-0.139-5.593c0-1.779,0.158-3.058,0.475-3.84
			c0.316-0.782,0.868-1.265,1.656-1.451l0.996-0.255c0.308-0.076,0.463-0.257,0.463-0.544c0-0.317-0.155-0.468-0.463-0.453
			c-0.17,0.016-0.393,0.032-0.671,0.047c-0.587,0.062-1.367,0.093-2.34,0.093c-0.309,0-0.564-0.008-0.764-0.024
			c-0.557-0.061-0.896-0.092-1.019-0.092c-0.294,0-0.498,0.058-0.614,0.173c-0.115,0.116-0.289,0.421-0.521,0.916l-10.88,23.328
			l-0.208,0.464l-0.279,0.627c-0.138,0.293-0.254,0.44-0.346,0.44c-0.078,0-0.202-0.201-0.371-0.603l-1.182-2.386l-9.656-20.829
			l-0.255-0.533c-0.447-0.973-1.004-1.46-1.667-1.46c-0.216,0-0.502,0.024-0.857,0.069c-0.34,0.032-1.143,0.047-2.409,0.047
			c-0.833,0-1.359-0.015-1.574-0.047c-0.371-0.03-0.626-0.046-0.764-0.046c-0.386,0-0.579,0.166-0.579,0.499
			c0,0.302,0.232,0.491,0.695,0.567c1.698,0.309,2.911,1.125,3.637,2.446c0.726,1.322,1.089,3.358,1.089,6.11
			c0,1.283-0.116,4.359-0.348,9.229l-0.324,6.724c-0.093,1.902-0.363,3.246-0.811,4.035c-0.448,0.789-1.236,1.313-2.363,1.577
			c-0.371,0.075-0.556,0.241-0.556,0.498c0,0.332,0.231,0.498,0.693,0.498c0.17,0,0.408-0.024,0.717-0.069
			c1.032-0.139,2.111-0.209,3.236-0.209c0.94,0,2.274,0.077,4,0.232c0.277,0.031,0.562,0.046,0.855,0.046
			c0.446,0,0.67-0.175,0.67-0.523c0-0.303-0.471-0.53-1.412-0.682c-1.916-0.293-2.874-1.799-2.874-4.518
			c0-2.826,0.024-4.711,0.07-5.653l0.533-11.469l8.708,18.794l0.465,0.972c0.371,0.71,0.588,1.134,0.649,1.273
			c0.336,0.756,0.687,1.134,1.054,1.134c0.352,0,0.68-0.362,0.986-1.088c0.077-0.17,0.217-0.463,0.418-0.88
			c0.356-0.694,0.774-1.581,1.254-2.661c1.176-2.623,1.826-4.074,1.95-4.351l2.369-4.861l2.066-4.421
			c0.433-0.894,1.308-2.492,2.624-4.791L211.442,46.522z"/>
		<path fill="#FFFFFF" d="M243.738,39.719c0.077,0.247,0.115,0.425,0.115,0.533c0,0.386-0.386,0.579-1.158,0.579h-6.997
			l-0.626-0.024c-0.71,0-1.065-0.2-1.065-0.602c0-0.139,0.1-0.424,0.301-0.857l4.518-10.031c0.139-0.309,0.262-0.456,0.371-0.44
			c0.216,0.015,0.417,0.27,0.603,0.765l0.184,0.486l3.637,9.175L243.738,39.719z M244.919,43.229
			c0.185,0.132,0.44,0.623,0.765,1.475l1.158,3.064c0.942,2.446,1.413,4.078,1.413,4.899c0,0.898-0.386,1.424-1.158,1.578
			l-0.718,0.163c-0.387,0.076-0.579,0.234-0.579,0.475c0,0.317,0.201,0.475,0.602,0.475c0.154,0,0.394-0.031,0.719-0.093
			c0.54-0.092,1.884-0.139,4.031-0.139c2.054,0,3.483,0.039,4.286,0.116c0.449,0.031,0.742,0.047,0.881,0.047
			c0.417,0,0.633-0.128,0.649-0.384c0.015-0.286-0.216-0.475-0.695-0.566c-1.468-0.263-2.44-0.622-2.919-1.079
			c-0.479-0.456-1.082-1.62-1.807-3.492l-0.51-1.253l-9.962-25.523c-0.17-0.449-0.379-0.673-0.625-0.673
			c-0.247,0-0.472,0.232-0.672,0.695l-11.91,26.455l-0.672,1.53c-0.339,0.711-0.771,1.395-1.297,2.052
			c-0.525,0.657-0.942,1.032-1.251,1.124l-0.857,0.256c-0.262,0.079-0.394,0.245-0.394,0.499c0,0.286,0.208,0.428,0.624,0.428
			c0.077,0,0.509-0.044,1.295-0.13c0.245-0.022,0.592-0.032,1.039-0.032c0.97,0,1.826,0.018,2.565,0.052l2.219,0.13
			c0.354,0.017,0.616,0.026,0.786,0.026c0.447,0,0.662-0.128,0.647-0.384c-0.015-0.271-0.254-0.452-0.718-0.542
			c-1.067-0.232-1.781-0.511-2.144-0.835c-0.363-0.325-0.544-0.851-0.544-1.58c0-0.758,0.343-1.918,1.029-3.482l1.52-3.413
			c0.463-1.052,0.835-1.671,1.112-1.857c0.279-0.185,0.989-0.278,2.132-0.278h8.388C244.209,43.032,244.734,43.098,244.919,43.229z"
			/>
		<path fill="#FFFFFF" d="M91.394,60.3c0.105-0.057,0.377-0.086,0.815-0.086c0.336,0,0.615,0.01,0.834,0.03l0.692,0.071
			c0.263,0.024,0.432,0.064,0.509,0.12c0.076,0.058,0.139,0.186,0.19,0.386c0.031,0.126,0.053,0.249,0.065,0.371
			c0.007,0.098,0.042,0.147,0.102,0.147c0.105,0,0.157-0.091,0.157-0.272c0-0.429,0.033-0.772,0.1-1.029
			c0.02-0.082,0.03-0.148,0.03-0.195c0-0.091-0.043-0.136-0.129-0.136c-0.055,0-0.12,0.007-0.195,0.024
			c-0.102,0.019-0.33,0.037-0.683,0.052l-0.818,0.041c-0.212,0.012-0.689,0.018-1.431,0.018c-0.833,0-1.423-0.018-1.773-0.053
			c-0.193-0.019-0.314-0.029-0.365-0.029c-0.165,0-0.244,0.05-0.235,0.149c0.004,0.062,0.053,0.096,0.147,0.104
			c0.232,0.019,0.395,0.053,0.489,0.1c0.094,0.047,0.181,0.137,0.259,0.271c0.122,0.201,0.183,0.488,0.183,0.862v5.315
			c0,0.386-0.046,0.657-0.136,0.815c-0.091,0.157-0.261,0.263-0.513,0.319c-0.122,0.026-0.182,0.071-0.182,0.132
			c0,0.072,0.057,0.107,0.171,0.103c0.063-0.004,0.163-0.01,0.301-0.018c0.169-0.015,0.302-0.024,0.401-0.024l0.454-0.006
			l0.407,0.006c0.255,0,0.449,0.009,0.579,0.026c0.153,0.017,0.273,0.026,0.36,0.026c0.126,0,0.184-0.044,0.177-0.133
			c-0.004-0.076-0.073-0.114-0.207-0.114c-0.279,0-0.5-0.093-0.666-0.278c-0.165-0.186-0.247-0.435-0.247-0.746v-2.196
			c0-0.162,0.01-0.28,0.029-0.355c0.016-0.071,0.093-0.117,0.232-0.136c0.139-0.02,0.443-0.03,0.912-0.03
			c0.508,0,0.894,0.034,1.155,0.1c0.129,0.032,0.221,0.085,0.276,0.159c0.055,0.074,0.105,0.215,0.152,0.423
			c0.043,0.193,0.103,0.289,0.18,0.289c0.072,0,0.109-0.047,0.109-0.142c0-0.035-0.004-0.09-0.012-0.165
			c-0.015-0.125-0.024-0.417-0.024-0.875c0-0.165,0.002-0.284,0.006-0.359l0.035-0.581c0.008-0.121-0.027-0.182-0.103-0.182
			c-0.065,0-0.105,0.047-0.121,0.141c-0.044,0.263-0.147,0.449-0.311,0.556c-0.164,0.108-0.426,0.163-0.786,0.163l-0.692,0.012
			l-0.193,0.006l-0.505-0.012c-0.207,0-0.319-0.053-0.334-0.159v-0.154l-0.006-0.111v-2.329
			C91.235,60.503,91.289,60.357,91.394,60.3z"/>
		<path fill="#FFFFFF" d="M144.873,63.967l0.03,0.136c0,0.098-0.098,0.147-0.295,0.147h-1.779l-0.159-0.005
			c-0.18,0-0.271-0.052-0.271-0.153c0-0.035,0.025-0.108,0.076-0.218l1.148-2.551c0.036-0.078,0.067-0.116,0.094-0.112
			c0.056,0.004,0.106,0.069,0.154,0.195l0.047,0.123l0.925,2.333L144.873,63.967z M145.173,64.859
			c0.047,0.033,0.112,0.158,0.194,0.375l0.294,0.779c0.24,0.621,0.359,1.037,0.359,1.246c0,0.228-0.098,0.361-0.294,0.401
			l-0.182,0.041c-0.098,0.018-0.148,0.059-0.148,0.12c0,0.08,0.051,0.121,0.154,0.121c0.039,0,0.1-0.008,0.182-0.024
			c0.138-0.024,0.479-0.035,1.025-0.035c0.523,0,0.886,0.009,1.091,0.029c0.113,0.008,0.189,0.012,0.224,0.012
			c0.105,0,0.16-0.032,0.164-0.098c0.004-0.072-0.055-0.12-0.176-0.143c-0.373-0.067-0.621-0.159-0.742-0.275
			c-0.122-0.116-0.275-0.412-0.46-0.888l-0.13-0.319l-2.532-6.489c-0.044-0.114-0.097-0.171-0.159-0.171
			c-0.063,0-0.119,0.059-0.171,0.177l-3.028,6.726l-0.171,0.389c-0.086,0.181-0.197,0.355-0.33,0.522
			c-0.133,0.167-0.24,0.263-0.318,0.286l-0.219,0.065l-0.1,0.126c0,0.073,0.053,0.109,0.159,0.109c0.019,0,0.128-0.011,0.328-0.033
			c0.063-0.005,0.151-0.008,0.265-0.008c0.246,0,0.464,0.004,0.652,0.013l0.564,0.033c0.09,0.004,0.157,0.006,0.2,0.006
			c0.114,0,0.168-0.032,0.164-0.098c-0.003-0.068-0.064-0.114-0.183-0.138c-0.271-0.059-0.452-0.129-0.544-0.212
			c-0.092-0.083-0.139-0.217-0.139-0.402c0-0.193,0.089-0.488,0.263-0.885l0.387-0.868c0.117-0.268,0.211-0.425,0.282-0.472
			c0.072-0.047,0.251-0.071,0.542-0.071h2.132C144.993,64.809,145.126,64.826,145.173,64.859z M133.542,63.581
			c0.215-0.257,0.482-0.385,0.805-0.385c0.31,0,0.598,0.131,0.862,0.394c0.266,0.263,0.398,0.548,0.398,0.855
			c0,0.125-0.155,0.188-0.465,0.188h-1.998C133.196,64.189,133.328,63.838,133.542,63.581z M135.34,64.956l0.401,0.012l0.437,0.006
			c0.255,0,0.383-0.064,0.383-0.194c0-0.09-0.049-0.249-0.147-0.477c-0.098-0.227-0.194-0.408-0.289-0.542
			c-0.393-0.546-0.917-0.819-1.573-0.819c-0.601,0-1.125,0.256-1.573,0.768c-0.448,0.512-0.671,1.109-0.671,1.791
			c0,0.718,0.217,1.32,0.651,1.806c0.434,0.486,0.971,0.73,1.611,0.73c0.57,0,1.11-0.199,1.62-0.598
			c0.275-0.215,0.412-0.381,0.412-0.498l-0.083-0.094l-0.089,0.041c-0.503,0.385-0.97,0.577-1.399,0.577
			c-0.542,0-1-0.229-1.371-0.686c-0.372-0.458-0.558-1.022-0.558-1.694l0.006-0.13H135.34z M129.561,67.227
			c-0.241,0.199-0.553,0.297-0.936,0.297c-0.521,0-0.972-0.236-1.353-0.709c-0.382-0.472-0.572-1.03-0.572-1.673
			c0-0.588,0.145-1.063,0.437-1.424s0.674-0.541,1.147-0.541c0.532,0,0.992,0.186,1.379,0.559c0.173,0.165,0.258,0.423,0.258,0.776
			v1.941C129.922,66.77,129.802,67.029,129.561,67.227z M129.922,67.744c0,0.2,0.046,0.297,0.137,0.293
			c0.042,0,0.102-0.022,0.177-0.065c0.087-0.044,0.26-0.085,0.52-0.124l0.331-0.053c0.043-0.007,0.145-0.02,0.307-0.035
			c0.142-0.015,0.213-0.065,0.213-0.149l-0.065-0.092l-0.054-0.006l-0.347,0.012c-0.271,0-0.407-0.222-0.407-0.666v-7.487
			l-0.006-0.106c0-0.087-0.029-0.13-0.089-0.13l-0.112,0.041c-0.516,0.31-0.978,0.491-1.383,0.542
			c-0.122,0.016-0.179,0.064-0.171,0.145l0.065,0.091l0.077,0.012l0.206-0.012c0.401-0.024,0.601,0.337,0.601,1.082v2.323
			c-0.475-0.279-0.949-0.419-1.424-0.419c-0.698,0-1.287,0.259-1.767,0.777c-0.48,0.518-0.72,1.154-0.72,1.906
			c0,0.683,0.201,1.255,0.603,1.719c0.401,0.462,0.899,0.694,1.49,0.694c0.314,0,0.595-0.06,0.844-0.178
			c0.249-0.119,0.573-0.351,0.974-0.694V67.744z M123.667,66.694c0,0.297-0.069,0.514-0.205,0.65
			c-0.223,0.215-0.497,0.323-0.826,0.323c-0.269,0-0.483-0.08-0.641-0.238c-0.159-0.158-0.238-0.372-0.238-0.641
			c0-0.344,0.166-0.626,0.498-0.847c0.331-0.221,0.802-0.358,1.411-0.412V66.694z M121.58,65.89c-0.412,0.249-0.617,0.6-0.617,1.052
			c0,0.333,0.108,0.6,0.326,0.798c0.218,0.198,0.511,0.298,0.879,0.298c0.486,0,1.013-0.216,1.581-0.649
			c0.26,0.401,0.552,0.601,0.875,0.601c0.173,0,0.35-0.037,0.531-0.109c0.181-0.072,0.274-0.145,0.278-0.215l-0.094-0.083
			c-0.024,0-0.071,0.008-0.142,0.025l-0.141,0.011c-0.208,0-0.356-0.078-0.445-0.232c-0.089-0.155-0.133-0.415-0.133-0.78v-2.306
			c0-0.432-0.147-0.766-0.441-1.003c-0.294-0.237-0.709-0.356-1.243-0.356c-0.585,0-1.054,0.19-1.408,0.569
			c-0.263,0.282-0.395,0.544-0.395,0.786c0,0.095,0.075,0.181,0.226,0.26c0.15,0.078,0.317,0.117,0.5,0.117
			c0.082,0,0.12-0.035,0.117-0.105c-0.004-0.054-0.018-0.116-0.041-0.187c-0.051-0.167-0.077-0.315-0.077-0.443
			c0-0.436,0.26-0.655,0.778-0.655c0.385,0,0.691,0.117,0.919,0.352c0.169,0.171,0.254,0.482,0.254,0.93v0.726
			C122.687,65.442,121.991,65.641,121.58,65.89z M118.163,67.227c-0.241,0.199-0.553,0.297-0.936,0.297
			c-0.521,0-0.972-0.236-1.353-0.709c-0.382-0.472-0.572-1.03-0.572-1.673c0-0.588,0.145-1.063,0.437-1.424
			c0.292-0.361,0.675-0.541,1.147-0.541c0.532,0,0.992,0.186,1.379,0.559c0.173,0.165,0.258,0.423,0.258,0.776v1.941
			C118.524,66.77,118.404,67.029,118.163,67.227z M118.524,67.744c0,0.2,0.046,0.297,0.137,0.293c0.043,0,0.102-0.022,0.177-0.065
			c0.087-0.044,0.26-0.085,0.52-0.124l0.331-0.053c0.043-0.007,0.145-0.02,0.307-0.035c0.142-0.015,0.213-0.065,0.213-0.149
			l-0.065-0.092l-0.053-0.006l-0.347,0.012c-0.271,0-0.407-0.222-0.407-0.666v-7.487l-0.006-0.106c0-0.087-0.029-0.13-0.088-0.13
			l-0.112,0.041c-0.516,0.31-0.978,0.491-1.383,0.542c-0.122,0.016-0.179,0.064-0.171,0.145l0.065,0.091l0.077,0.012l0.206-0.012
			c0.401-0.024,0.601,0.337,0.601,1.082v2.323c-0.474-0.279-0.949-0.419-1.423-0.419c-0.698,0-1.287,0.259-1.767,0.777
			c-0.48,0.518-0.72,1.154-0.72,1.906c0,0.683,0.201,1.255,0.603,1.719c0.401,0.462,0.899,0.694,1.491,0.694
			c0.314,0,0.595-0.06,0.844-0.178c0.249-0.119,0.574-0.351,0.973-0.694V67.744z M113.052,59.432c0-0.177-0.029-0.264-0.088-0.26
			l-0.118,0.048c-0.106,0.079-0.297,0.173-0.573,0.282l-0.361,0.147c-0.11,0.043-0.232,0.08-0.367,0.112
			c-0.102,0.028-0.153,0.071-0.153,0.127l0.071,0.097l0.1,0.013l0.294-0.012c0.251,0,0.377,0.18,0.377,0.541v6.533
			c0,0.189-0.031,0.325-0.092,0.41c-0.061,0.085-0.179,0.153-0.356,0.204c-0.114,0.03-0.169,0.078-0.165,0.144
			c0.004,0.076,0.057,0.115,0.159,0.115c0.023,0,0.098-0.01,0.224-0.03c0.086-0.012,0.317-0.017,0.691-0.017h0.307l0.514-0.006
			c0.118,0,0.207,0.006,0.266,0.018l0.154,0.024c0.087,0,0.128-0.044,0.124-0.133c-0.004-0.061-0.061-0.101-0.17-0.12
			c-0.401-0.067-0.644-0.199-0.73-0.395c-0.075-0.173-0.112-0.42-0.112-0.742v-6.915L113.052,59.432z M109.187,67.379
			c0,0.368,0.063,0.552,0.189,0.552c0.051,0,0.123-0.012,0.218-0.035c0.075-0.02,0.24-0.035,0.495-0.048l0.371-0.024
			c0.232-0.012,0.345-0.061,0.342-0.145c-0.004-0.06-0.05-0.091-0.136-0.091l-0.083,0.006h-0.094c-0.2,0-0.333-0.048-0.397-0.145
			c-0.065-0.096-0.098-0.295-0.098-0.597V63.03c0-0.145-0.041-0.216-0.124-0.212l-0.141,0.03c-0.173,0.054-0.326,0.086-0.46,0.093
			l-0.413,0.018l-0.194,0.012c-0.142,0.004-0.213,0.05-0.213,0.138c0,0.073,0.063,0.109,0.189,0.109c0.208,0,0.35,0.041,0.427,0.124
			c0.076,0.083,0.114,0.236,0.114,0.46v2.815c0,0.26-0.135,0.493-0.404,0.696c-0.269,0.204-0.578,0.306-0.924,0.306
			c-0.263,0-0.507-0.083-0.732-0.248c-0.224-0.165-0.378-0.373-0.46-0.625l-0.094-0.713v-0.188l0.024-2.633v-0.088
			c0-0.184-0.053-0.277-0.158-0.277l-0.129,0.023c-0.196,0.047-0.342,0.075-0.44,0.082l-0.446,0.018
			c-0.238,0.012-0.36,0.052-0.364,0.121c-0.004,0.073,0.044,0.113,0.142,0.12c0.223,0.012,0.377,0.057,0.459,0.136
			c0.083,0.079,0.124,0.218,0.124,0.418v1.95l-0.006,0.389c0,0.609,0.154,1.083,0.463,1.423c0.308,0.34,0.737,0.51,1.287,0.51
			c0.652,0,1.206-0.295,1.661-0.884L109.187,67.379z M101.139,63.733c-0.501,0.527-0.751,1.168-0.751,1.921
			c0,0.675,0.211,1.24,0.633,1.698c0.422,0.457,0.948,0.685,1.576,0.685c0.683,0,1.268-0.219,1.755-0.657
			c0.189-0.167,0.283-0.295,0.283-0.381l-0.09-0.082l-0.145,0.071c-0.419,0.357-0.846,0.536-1.282,0.536
			c-0.541,0-0.998-0.226-1.373-0.679c-0.374-0.452-0.562-1.006-0.562-1.662c0-0.553,0.122-1.005,0.364-1.356
			c0.244-0.351,0.556-0.527,0.941-0.527c0.278,0,0.565,0.082,0.861,0.248c0.296,0.165,0.506,0.359,0.632,0.585
			c0.069,0.12,0.124,0.178,0.168,0.174c0.096-0.007,0.144-0.116,0.144-0.324l-0.041-0.447l0.006-0.177
			c0-0.109-0.133-0.205-0.398-0.29c-0.265-0.085-0.567-0.128-0.905-0.128C102.245,62.942,101.639,63.206,101.139,63.733z
			 M98.043,66.694c0,0.297-0.068,0.514-0.205,0.65c-0.223,0.215-0.497,0.323-0.826,0.323c-0.269,0-0.483-0.08-0.641-0.238
			c-0.159-0.158-0.237-0.372-0.237-0.641c0-0.344,0.166-0.626,0.498-0.847c0.331-0.221,0.802-0.358,1.411-0.412V66.694z
			 M95.956,65.89c-0.412,0.249-0.617,0.6-0.617,1.052c0,0.333,0.108,0.6,0.326,0.798c0.218,0.198,0.511,0.298,0.879,0.298
			c0.486,0,1.013-0.216,1.581-0.649c0.26,0.401,0.552,0.601,0.875,0.601c0.173,0,0.35-0.037,0.531-0.109
			c0.181-0.072,0.274-0.145,0.278-0.215l-0.094-0.083c-0.024,0-0.071,0.008-0.142,0.025l-0.141,0.011
			c-0.208,0-0.356-0.078-0.445-0.232c-0.089-0.155-0.133-0.415-0.133-0.78v-2.306c0-0.432-0.147-0.766-0.441-1.003
			c-0.294-0.237-0.709-0.356-1.243-0.356c-0.585,0-1.055,0.19-1.408,0.569c-0.263,0.282-0.395,0.544-0.395,0.786
			c0,0.095,0.075,0.181,0.226,0.26c0.15,0.078,0.317,0.117,0.5,0.117c0.082,0,0.12-0.035,0.117-0.105
			c-0.004-0.054-0.018-0.116-0.041-0.187c-0.051-0.167-0.077-0.315-0.077-0.443c0-0.436,0.26-0.655,0.778-0.655
			c0.385,0,0.691,0.117,0.919,0.352c0.169,0.171,0.254,0.482,0.254,0.93v0.726C97.063,65.442,96.367,65.641,95.956,65.89z"/>
		<path fill="#FFFFFF" d="M155.647,64.059c-0.071-0.165-0.106-0.296-0.106-0.393c0-0.18,0.179-0.294,0.536-0.341
			c0.111-0.012,0.165-0.048,0.165-0.108c0-0.085-0.046-0.125-0.135-0.121c-0.047,0-0.136,0.006-0.264,0.018
			c-0.095,0.007-0.261,0.012-0.5,0.012c-0.521,0-0.878-0.012-1.069-0.036l-0.135-0.012c-0.118,0-0.176,0.041-0.176,0.121
			c0,0.05,0.041,0.09,0.124,0.12c0.271,0.103,0.485,0.331,0.642,0.684l1.709,3.88c0.046,0.111,0.12,0.166,0.217,0.166
			c0.083,0,0.147-0.049,0.194-0.148l1.921-4.01c0.141-0.298,0.292-0.48,0.453-0.542c0.162-0.061,0.244-0.117,0.248-0.167
			c0.004-0.065-0.041-0.098-0.135-0.098c-0.035,0-0.107,0.004-0.218,0.012c-0.132,0.012-0.401,0.018-0.804,0.018
			c-0.204,0-0.347-0.004-0.429-0.012c-0.093-0.012-0.167-0.017-0.218-0.017c-0.102,0-0.153,0.04-0.153,0.12
			c0,0.061,0.054,0.1,0.159,0.115c0.377,0.063,0.566,0.23,0.566,0.501c0,0.306-0.101,0.675-0.302,1.108l-0.994,2.091L155.647,64.059
			z M151.898,67.227c-0.241,0.199-0.553,0.297-0.935,0.297c-0.521,0-0.972-0.236-1.353-0.709c-0.382-0.472-0.572-1.03-0.572-1.673
			c0-0.588,0.146-1.063,0.437-1.424c0.291-0.361,0.675-0.541,1.147-0.541c0.531,0,0.991,0.186,1.379,0.559
			c0.172,0.165,0.258,0.423,0.258,0.776v1.941C152.259,66.77,152.139,67.029,151.898,67.227z M152.259,67.744
			c0,0.2,0.046,0.297,0.137,0.293c0.043,0,0.102-0.022,0.177-0.065c0.087-0.044,0.261-0.085,0.52-0.124l0.332-0.053
			c0.043-0.007,0.145-0.02,0.307-0.035c0.141-0.015,0.213-0.065,0.213-0.149l-0.065-0.092l-0.053-0.006l-0.348,0.012
			c-0.271,0-0.406-0.222-0.406-0.666v-7.487l-0.006-0.106c0-0.087-0.03-0.13-0.089-0.13l-0.112,0.041
			c-0.517,0.31-0.978,0.491-1.384,0.542c-0.122,0.016-0.179,0.064-0.171,0.145l0.065,0.091l0.076,0.012l0.206-0.012
			c0.401-0.024,0.601,0.337,0.601,1.082v2.323c-0.474-0.279-0.948-0.419-1.423-0.419c-0.698,0-1.287,0.259-1.768,0.777
			c-0.48,0.518-0.72,1.154-0.72,1.906c0,0.683,0.201,1.255,0.603,1.719c0.401,0.462,0.899,0.694,1.49,0.694
			c0.315,0,0.596-0.06,0.844-0.178c0.25-0.119,0.573-0.351,0.973-0.694V67.744z"/>
		<path fill="#FFFFFF" d="M178.501,63.33c-0.302,0.259-0.453,0.577-0.453,0.953c0,0.313,0.097,0.579,0.294,0.796
			c0.196,0.218,0.53,0.428,1.001,0.632l0.518,0.23c0.445,0.197,0.666,0.497,0.666,0.899c0,0.263-0.09,0.48-0.273,0.649
			c-0.183,0.17-0.417,0.254-0.705,0.254c-0.333,0-0.618-0.121-0.857-0.365c-0.237-0.243-0.397-0.581-0.48-1.013
			c-0.024-0.122-0.072-0.18-0.145-0.176c-0.071,0.004-0.115,0.058-0.132,0.165l-0.012,0.176l0.018,0.751l0.006,0.252
			c0.007,0.09,0.057,0.139,0.147,0.147l0.154,0.018c0.024,0,0.08,0.021,0.17,0.064c0.382,0.184,0.735,0.277,1.061,0.277
			c0.456,0,0.848-0.158,1.176-0.473c0.327-0.315,0.492-0.694,0.492-1.138c0-0.36-0.095-0.647-0.286-0.861
			c-0.19-0.213-0.531-0.416-1.022-0.609c-0.494-0.193-0.823-0.356-0.987-0.49c-0.163-0.134-0.244-0.31-0.244-0.526
			c0-0.205,0.075-0.375,0.227-0.508c0.151-0.134,0.345-0.202,0.58-0.202c0.592,0,0.997,0.299,1.213,0.896
			c0.04,0.106,0.084,0.157,0.132,0.153c0.088-0.004,0.132-0.082,0.132-0.235c0-0.067-0.006-0.142-0.018-0.224l-0.024-0.23
			l-0.011-0.165V63.33c0-0.081-0.053-0.141-0.159-0.18l-0.258-0.087c-0.224-0.081-0.492-0.122-0.801-0.122
			C179.178,62.942,178.804,63.072,178.501,63.33z M176.428,62.959c0-0.09-0.026-0.137-0.077-0.141l-0.314,0.147
			c-0.338,0.177-0.618,0.303-0.839,0.377c-0.197,0.061-0.297,0.119-0.301,0.173c-0.004,0.062,0.069,0.092,0.218,0.092
			c0.208,0,0.344,0.05,0.407,0.147c0.063,0.098,0.093,0.31,0.093,0.635v2.564c0,0.235-0.024,0.406-0.073,0.512
			c-0.05,0.106-0.137,0.18-0.263,0.223l-0.111,0.035c-0.071,0.024-0.106,0.067-0.106,0.127c0,0.073,0.053,0.109,0.159,0.109
			c0.039,0,0.11-0.006,0.213-0.017c0.043-0.008,0.104-0.014,0.183-0.018l0.432-0.024l0.378,0.007c0.169,0,0.307,0.004,0.413,0.013
			c0.189,0.019,0.317,0.027,0.384,0.027c0.102,0,0.155-0.032,0.159-0.098c0.004-0.08-0.065-0.13-0.206-0.149l-0.271-0.03
			c-0.197-0.028-0.325-0.088-0.386-0.183c-0.061-0.094-0.091-0.281-0.091-0.56V62.959z M175.725,60.751
			c-0.145,0.162-0.216,0.289-0.216,0.379c0,0.091,0.065,0.215,0.196,0.373c0.13,0.158,0.235,0.237,0.314,0.237
			c0.082,0,0.193-0.081,0.332-0.243c0.138-0.161,0.206-0.288,0.202-0.378l-0.059-0.148l-0.142-0.225
			c-0.098-0.158-0.195-0.237-0.29-0.237C175.981,60.509,175.869,60.59,175.725,60.751z M173.942,63.654
			c0.129,0,0.215-0.057,0.258-0.172l0.136-0.338c0.035-0.079,0.053-0.128,0.053-0.148l-0.059-0.066l-0.13,0.071
			c-0.094,0.063-0.228,0.094-0.401,0.094h-1.254l0.024-1.019c0-0.102-0.028-0.154-0.083-0.154c-0.043,0-0.118,0.087-0.223,0.26
			c-0.244,0.39-0.596,0.78-1.055,1.17c-0.102,0.086-0.153,0.157-0.153,0.212c0,0.06,0.05,0.089,0.153,0.089h0.524v2.971
			c0,0.941,0.452,1.412,1.355,1.412c0.267,0,0.556-0.075,0.866-0.225c0.31-0.15,0.465-0.289,0.465-0.418l-0.07-0.064l-0.036,0.012
			l-0.306,0.147c-0.166,0.087-0.368,0.13-0.608,0.13c-0.298,0-0.528-0.085-0.689-0.254c-0.11-0.114-0.164-0.363-0.164-0.748v-2.963
			H173.942z M166.137,63.213c0-0.087,0.002-0.161,0.006-0.224c0.008-0.113-0.024-0.17-0.094-0.17l-0.141,0.046
			c-0.032,0.016-0.109,0.053-0.231,0.112l-0.312,0.154c-0.243,0.114-0.497,0.194-0.759,0.241c-0.102,0.02-0.154,0.058-0.154,0.115
			l0.053,0.085l0.095,0.024l0.253-0.006c0.184,0,0.31,0.05,0.377,0.15c0.067,0.1,0.1,0.289,0.1,0.568v2.659
			c0,0.227-0.034,0.392-0.103,0.494c-0.068,0.102-0.203,0.188-0.403,0.258c-0.071,0.029-0.109,0.067-0.112,0.116
			c-0.004,0.064,0.032,0.097,0.106,0.097c0.036,0,0.114-0.006,0.236-0.02c0.122-0.019,0.495-0.027,1.12-0.027
			c0.294,0,0.479,0.004,0.553,0.013c0.133,0.023,0.233,0.034,0.301,0.034c0.09,0,0.135-0.036,0.135-0.109
			c0-0.072-0.065-0.114-0.194-0.126c-0.527-0.032-0.799-0.213-0.819-0.543l-0.006-0.295l-0.006-0.177v-2.249
			c0-0.247,0.127-0.467,0.38-0.659c0.254-0.193,0.544-0.289,0.871-0.289c0.465,0,0.822,0.147,1.074,0.444
			c0.252,0.296,0.378,0.717,0.378,1.262v2.029c0,0.243-0.078,0.385-0.236,0.424l-0.177,0.047c-0.07,0.016-0.106,0.054-0.106,0.115
			l0.041,0.091l0.082,0.018l0.171-0.012h0.223l0.582-0.017c0.349,0,0.588,0.009,0.717,0.027c0.11,0.013,0.186,0.02,0.229,0.02
			c0.133,0,0.198-0.042,0.193-0.127c-0.003-0.061-0.059-0.1-0.164-0.115l-0.247-0.035c-0.288-0.043-0.453-0.195-0.496-0.455
			l-0.017-0.282l0.006-0.177v-1.41c0-0.723-0.125-1.262-0.377-1.616c-0.366-0.515-0.862-0.773-1.49-0.773
			c-0.566,0-1.112,0.312-1.638,0.937V63.213z M160.709,63.581c0.214-0.257,0.482-0.385,0.804-0.385c0.31,0,0.598,0.131,0.863,0.394
			c0.266,0.263,0.397,0.548,0.397,0.855c0,0.125-0.154,0.188-0.465,0.188h-1.998C160.362,64.189,160.495,63.838,160.709,63.581z
			 M162.507,64.956l0.401,0.012l0.436,0.006c0.255,0,0.383-0.064,0.383-0.194c0-0.09-0.049-0.249-0.146-0.477
			c-0.098-0.227-0.195-0.408-0.289-0.542c-0.393-0.546-0.917-0.819-1.573-0.819c-0.601,0-1.126,0.256-1.572,0.768
			c-0.448,0.512-0.671,1.109-0.671,1.791c0,0.718,0.217,1.32,0.65,1.806c0.434,0.486,0.971,0.73,1.611,0.73
			c0.57,0,1.109-0.199,1.62-0.598c0.274-0.215,0.411-0.381,0.411-0.498l-0.082-0.094l-0.089,0.041
			c-0.504,0.385-0.97,0.577-1.399,0.577c-0.542,0-1-0.229-1.372-0.686c-0.372-0.458-0.558-1.022-0.558-1.694l0.006-0.13H162.507z"/>
		<path fill="#FFFFFF" d="M184.746,63.654c0.129,0,0.216-0.057,0.259-0.172l0.136-0.338c0.035-0.079,0.053-0.128,0.053-0.148
			l-0.059-0.066l-0.13,0.071c-0.094,0.063-0.228,0.094-0.401,0.094h-1.254l0.024-1.019c0-0.102-0.028-0.154-0.083-0.154
			c-0.044,0-0.118,0.087-0.223,0.26c-0.244,0.39-0.596,0.78-1.055,1.17c-0.102,0.086-0.154,0.157-0.154,0.212
			c0,0.06,0.051,0.089,0.154,0.089h0.524v2.971c0,0.941,0.452,1.412,1.355,1.412c0.267,0,0.556-0.075,0.866-0.225
			c0.31-0.15,0.465-0.289,0.465-0.418l-0.07-0.064l-0.036,0.012l-0.306,0.147c-0.165,0.087-0.367,0.13-0.607,0.13
			c-0.298,0-0.528-0.085-0.689-0.254c-0.11-0.114-0.164-0.363-0.164-0.748v-2.963H184.746z"/>
		<path fill="#FFFFFF" d="M253.726,66.694c0,0.297-0.068,0.514-0.205,0.65c-0.223,0.215-0.497,0.323-0.826,0.323
			c-0.27,0-0.483-0.08-0.641-0.238c-0.158-0.158-0.237-0.372-0.237-0.641c0-0.344,0.166-0.626,0.498-0.847
			c0.332-0.221,0.802-0.358,1.411-0.412V66.694z M251.639,65.89c-0.411,0.249-0.617,0.6-0.617,1.052c0,0.333,0.109,0.6,0.326,0.798
			c0.218,0.198,0.511,0.298,0.879,0.298c0.486,0,1.013-0.216,1.581-0.649c0.26,0.401,0.552,0.601,0.875,0.601
			c0.172,0,0.35-0.037,0.531-0.109c0.182-0.072,0.274-0.145,0.279-0.215l-0.095-0.083c-0.024,0-0.071,0.008-0.141,0.025
			l-0.141,0.011c-0.208,0-0.357-0.078-0.445-0.232c-0.089-0.155-0.132-0.415-0.132-0.78v-2.306c0-0.432-0.147-0.766-0.441-1.003
			c-0.295-0.237-0.709-0.356-1.243-0.356c-0.585,0-1.055,0.19-1.408,0.569c-0.262,0.282-0.394,0.544-0.394,0.786
			c0,0.095,0.075,0.181,0.225,0.26c0.15,0.078,0.317,0.117,0.501,0.117c0.082,0,0.12-0.035,0.116-0.105
			c-0.003-0.054-0.017-0.116-0.041-0.187c-0.051-0.167-0.077-0.315-0.077-0.443c0-0.436,0.26-0.655,0.778-0.655
			c0.385,0,0.692,0.117,0.919,0.352c0.169,0.171,0.254,0.482,0.254,0.93v0.726C252.746,65.442,252.051,65.641,251.639,65.89z
			 M249.402,62.959c0-0.09-0.026-0.137-0.076-0.141l-0.314,0.147c-0.339,0.177-0.619,0.303-0.839,0.377
			c-0.198,0.061-0.297,0.119-0.302,0.173c-0.003,0.062,0.07,0.092,0.219,0.092c0.208,0,0.343,0.05,0.406,0.147
			c0.063,0.098,0.094,0.31,0.094,0.635v2.564c0,0.235-0.024,0.406-0.073,0.512c-0.05,0.106-0.137,0.18-0.263,0.223l-0.111,0.035
			c-0.071,0.024-0.106,0.067-0.106,0.127c0,0.073,0.053,0.109,0.159,0.109c0.039,0,0.11-0.006,0.212-0.017
			c0.044-0.008,0.104-0.014,0.183-0.018l0.432-0.024l0.377,0.007c0.169,0,0.307,0.004,0.414,0.013
			c0.189,0.019,0.316,0.027,0.384,0.027c0.102,0,0.156-0.032,0.159-0.098c0.005-0.08-0.065-0.13-0.206-0.149l-0.271-0.03
			c-0.197-0.028-0.326-0.088-0.386-0.183c-0.062-0.094-0.092-0.281-0.092-0.56V62.959z M248.7,60.751
			c-0.145,0.162-0.216,0.289-0.216,0.379c0,0.091,0.065,0.215,0.195,0.373c0.13,0.158,0.235,0.237,0.314,0.237
			c0.083,0,0.193-0.081,0.332-0.243c0.138-0.161,0.205-0.288,0.202-0.378l-0.06-0.148l-0.141-0.225
			c-0.099-0.158-0.196-0.237-0.291-0.237C248.955,60.509,248.844,60.59,248.7,60.751z M242.751,63.213
			c0-0.087,0.002-0.161,0.007-0.224c0.008-0.113-0.024-0.17-0.095-0.17l-0.141,0.046c-0.032,0.016-0.108,0.053-0.23,0.112
			l-0.312,0.154c-0.244,0.114-0.497,0.194-0.76,0.241c-0.102,0.02-0.153,0.058-0.153,0.115l0.053,0.085l0.094,0.024l0.254-0.006
			c0.184,0,0.31,0.05,0.377,0.15c0.066,0.1,0.099,0.289,0.099,0.568v2.659c0,0.227-0.034,0.392-0.102,0.494
			c-0.069,0.102-0.204,0.188-0.404,0.258c-0.071,0.029-0.108,0.067-0.112,0.116c-0.003,0.064,0.032,0.097,0.106,0.097
			c0.036,0,0.114-0.006,0.236-0.02c0.121-0.019,0.495-0.027,1.119-0.027c0.294,0,0.479,0.004,0.553,0.013
			c0.133,0.023,0.234,0.034,0.301,0.034c0.09,0,0.136-0.036,0.136-0.109c0-0.072-0.065-0.114-0.194-0.126
			c-0.527-0.032-0.8-0.213-0.819-0.543l-0.006-0.295l-0.007-0.177v-2.249c0-0.247,0.128-0.467,0.381-0.659
			c0.254-0.193,0.544-0.289,0.87-0.289c0.465,0,0.823,0.147,1.074,0.444c0.253,0.296,0.378,0.717,0.378,1.262v2.029
			c0,0.243-0.078,0.385-0.235,0.424l-0.177,0.047c-0.071,0.016-0.106,0.054-0.106,0.115l0.041,0.091l0.082,0.018l0.17-0.012h0.223
			l0.583-0.017c0.348,0,0.588,0.009,0.717,0.027c0.11,0.013,0.185,0.02,0.229,0.02c0.132,0,0.197-0.042,0.193-0.127
			c-0.004-0.061-0.059-0.1-0.165-0.115l-0.247-0.035c-0.287-0.043-0.452-0.195-0.495-0.455l-0.018-0.282l0.006-0.177v-1.41
			c0-0.723-0.125-1.262-0.377-1.616c-0.365-0.515-0.861-0.773-1.49-0.773c-0.565,0-1.111,0.312-1.637,0.937V63.213z M237.549,61.399
			l0.158,0.165l0.235,0.254l0.187,0.2l0.128,0.142l0.172,0.093l0.172-0.041l0.249-0.092c0.106-0.038,0.156-0.088,0.148-0.15
			c-0.003-0.043-0.247-0.322-0.731-0.837c-0.188-0.2-0.315-0.321-0.382-0.364c-0.067-0.043-0.165-0.065-0.295-0.065
			c-0.117,0-0.204,0.016-0.259,0.05c-0.054,0.033-0.135,0.119-0.241,0.26l-0.495,0.619l-0.189,0.239l-0.071,0.158l0.095,0.128
			l0.197,0.066c0.067,0,0.157-0.082,0.268-0.247c0.291-0.44,0.472-0.662,0.542-0.666L237.549,61.399z M238.894,63.907
			c0.353,0.487,0.529,1.118,0.529,1.891c0,0.612-0.14,1.098-0.42,1.455c-0.28,0.357-0.663,0.536-1.15,0.536
			c-0.556,0-1.022-0.252-1.397-0.757c-0.374-0.504-0.562-1.132-0.562-1.882c0-0.589,0.151-1.065,0.45-1.428
			c0.3-0.363,0.696-0.545,1.186-0.545C238.087,63.178,238.542,63.421,238.894,63.907z M235.825,63.692
			c-0.51,0.5-0.766,1.107-0.766,1.821c0,0.737,0.241,1.342,0.722,1.815c0.481,0.472,1.094,0.709,1.84,0.709
			c0.762,0,1.393-0.243,1.891-0.73c0.499-0.486,0.748-1.102,0.748-1.848c0-0.686-0.254-1.278-0.76-1.774
			c-0.507-0.496-1.113-0.745-1.82-0.745C236.954,62.942,236.335,63.192,235.825,63.692z M231.112,67.513l-0.07,0.124l-0.054,0.129
			c0,0.079,0.078,0.118,0.236,0.118h2.515c0.165,0,0.269-0.08,0.312-0.241l0.094-0.352c0.04-0.149,0.097-0.311,0.171-0.487
			c0.059-0.137,0.09-0.26,0.094-0.37c0.004-0.074-0.028-0.111-0.096-0.111c-0.076,0-0.155,0.101-0.24,0.304
			c-0.141,0.343-0.446,0.514-0.916,0.514h-1.358l2.444-3.74l0.065-0.16c0.008-0.102-0.061-0.153-0.206-0.153h-0.089
			c-0.036,0.004-0.102,0.006-0.2,0.006h-1.031l-0.531-0.006l-0.666-0.017c-0.154,0-0.253,0.031-0.3,0.093
			c-0.047,0.063-0.089,0.221-0.124,0.475c-0.027,0.184-0.059,0.343-0.094,0.475c-0.031,0.11-0.046,0.204-0.046,0.282
			c0,0.09,0.036,0.135,0.108,0.135c0.06,0,0.112-0.064,0.157-0.193c0.066-0.18,0.186-0.304,0.358-0.374l0.393-0.075h1.468
			L231.112,67.513z M228.638,66.694c0,0.297-0.068,0.514-0.205,0.65c-0.223,0.215-0.497,0.323-0.826,0.323
			c-0.27,0-0.483-0.08-0.64-0.238c-0.158-0.158-0.238-0.372-0.238-0.641c0-0.344,0.167-0.626,0.498-0.847
			c0.332-0.221,0.802-0.358,1.411-0.412V66.694z M226.552,65.89c-0.412,0.249-0.618,0.6-0.618,1.052c0,0.333,0.109,0.6,0.327,0.798
			c0.218,0.198,0.51,0.298,0.879,0.298c0.487,0,1.013-0.216,1.581-0.649c0.261,0.401,0.552,0.601,0.875,0.601
			c0.172,0,0.35-0.037,0.531-0.109c0.181-0.072,0.274-0.145,0.278-0.215l-0.094-0.083c-0.024,0-0.071,0.008-0.142,0.025
			l-0.141,0.011c-0.208,0-0.357-0.078-0.445-0.232c-0.088-0.155-0.132-0.415-0.132-0.78v-2.306c0-0.432-0.147-0.766-0.441-1.003
			c-0.294-0.237-0.709-0.356-1.243-0.356c-0.585,0-1.054,0.19-1.408,0.569c-0.263,0.282-0.395,0.544-0.395,0.786
			c0,0.095,0.075,0.181,0.226,0.26c0.15,0.078,0.316,0.117,0.5,0.117c0.082,0,0.12-0.035,0.117-0.105
			c-0.004-0.054-0.018-0.116-0.041-0.187c-0.051-0.167-0.076-0.315-0.076-0.443c0-0.436,0.259-0.655,0.778-0.655
			c0.385,0,0.691,0.117,0.918,0.352c0.169,0.171,0.254,0.482,0.254,0.93v0.726C227.659,65.442,226.962,65.641,226.552,65.89z
			 M218.011,63.024c0-0.145-0.029-0.218-0.089-0.218c-0.032,0-0.124,0.043-0.278,0.129c-0.347,0.196-0.723,0.347-1.129,0.453
			c-0.094,0.028-0.141,0.069-0.141,0.121l0.035,0.061l0.1,0.03h0.259c0.165,0,0.278,0.053,0.339,0.159
			c0.061,0.106,0.091,0.299,0.091,0.582v2.635c0,0.251-0.025,0.42-0.076,0.506c-0.051,0.087-0.167,0.156-0.347,0.212
			c-0.087,0.028-0.13,0.072-0.13,0.132c0,0.072,0.05,0.106,0.147,0.103c0.044-0.004,0.116-0.013,0.219-0.027
			c0.083-0.009,0.152-0.013,0.206-0.013l0.402-0.006h0.396c0.244,0,0.407,0.006,0.49,0.017c0.134,0.015,0.228,0.026,0.283,0.03
			c0.095,0.004,0.142-0.031,0.142-0.103c0-0.076-0.061-0.121-0.182-0.132c-0.267-0.032-0.457-0.106-0.569-0.224
			c-0.112-0.118-0.168-0.304-0.168-0.558v-2.529c0-0.289,0.107-0.522,0.32-0.699c0.214-0.178,0.493-0.267,0.838-0.267
			c0.375,0,0.67,0.119,0.884,0.356c0.214,0.238,0.32,0.562,0.32,0.974v2.182c0,0.31-0.02,0.501-0.059,0.574
			c-0.039,0.072-0.163,0.146-0.371,0.22c-0.07,0.024-0.105,0.059-0.105,0.104c0,0.068,0.047,0.103,0.141,0.103
			c0.047,0,0.108-0.006,0.183-0.018c0.142-0.02,0.483-0.029,1.022-0.029c0.154,0,0.339,0.012,0.555,0.035
			c0.086,0.008,0.15,0.012,0.189,0.012c0.115,0,0.171-0.035,0.171-0.106c0-0.074-0.065-0.117-0.194-0.129
			c-0.279-0.024-0.469-0.095-0.569-0.213c-0.1-0.118-0.15-0.327-0.15-0.626v-2.13c0-0.13-0.011-0.265-0.035-0.407l-0.018-0.147
			c0-0.184,0.121-0.358,0.364-0.523c0.243-0.166,0.498-0.249,0.764-0.249c0.404,0,0.718,0.148,0.943,0.442
			c0.225,0.295,0.338,0.707,0.338,1.237v1.926l-0.006,0.2c0,0.141-0.026,0.243-0.08,0.306c-0.052,0.063-0.166,0.128-0.338,0.195
			c-0.071,0.028-0.104,0.064-0.1,0.108c0.004,0.076,0.057,0.115,0.158,0.115c0.031,0,0.09-0.006,0.176-0.02
			c0.13-0.019,0.455-0.027,0.976-0.027c0.266,0,0.462,0.009,0.587,0.029c0.079,0.012,0.14,0.018,0.183,0.018
			c0.093,0,0.141-0.035,0.141-0.103c0-0.076-0.047-0.119-0.141-0.127c-0.271-0.028-0.466-0.114-0.584-0.26
			c-0.117-0.145-0.176-0.369-0.176-0.672v-1.896c0-0.609-0.149-1.083-0.446-1.423c-0.297-0.339-0.712-0.51-1.245-0.51
			c-0.627,0-1.164,0.295-1.614,0.884c-0.193-0.323-0.399-0.55-0.618-0.683c-0.22-0.133-0.503-0.201-0.848-0.201
			c-0.597,0-1.115,0.265-1.555,0.796V63.024z M212.84,63.967l0.03,0.136c0,0.098-0.098,0.147-0.295,0.147h-1.779l-0.159-0.005
			c-0.18,0-0.271-0.052-0.271-0.153c0-0.035,0.025-0.108,0.076-0.218l1.148-2.551c0.036-0.078,0.067-0.116,0.094-0.112
			c0.055,0.004,0.106,0.069,0.154,0.195l0.047,0.123l0.925,2.333L212.84,63.967z M213.14,64.859
			c0.047,0.033,0.112,0.158,0.194,0.375l0.294,0.779c0.24,0.621,0.359,1.037,0.359,1.246c0,0.228-0.098,0.361-0.294,0.401
			l-0.182,0.041c-0.098,0.018-0.148,0.059-0.148,0.12c0,0.08,0.051,0.121,0.154,0.121c0.039,0,0.1-0.008,0.182-0.024
			c0.138-0.024,0.479-0.035,1.025-0.035c0.523,0,0.886,0.009,1.09,0.029c0.114,0.008,0.189,0.012,0.224,0.012
			c0.106,0,0.161-0.032,0.165-0.098c0.003-0.072-0.055-0.12-0.176-0.143c-0.374-0.067-0.621-0.159-0.743-0.275
			c-0.121-0.116-0.275-0.412-0.459-0.888l-0.13-0.319l-2.532-6.489c-0.044-0.114-0.097-0.171-0.159-0.171
			c-0.063,0-0.119,0.059-0.171,0.177l-3.029,6.726l-0.17,0.389c-0.086,0.181-0.197,0.355-0.33,0.522
			c-0.133,0.167-0.24,0.263-0.318,0.286l-0.219,0.065l-0.1,0.126c0,0.073,0.053,0.109,0.158,0.109c0.019,0,0.129-0.011,0.329-0.033
			c0.063-0.005,0.151-0.008,0.264-0.008c0.247,0,0.465,0.004,0.653,0.013l0.564,0.033c0.09,0.004,0.157,0.006,0.2,0.006
			c0.114,0,0.168-0.032,0.164-0.098c-0.003-0.068-0.065-0.114-0.183-0.138c-0.271-0.059-0.452-0.129-0.544-0.212
			c-0.092-0.083-0.139-0.217-0.139-0.402c0-0.193,0.088-0.488,0.263-0.885l0.386-0.868c0.118-0.268,0.212-0.425,0.283-0.472
			s0.251-0.071,0.542-0.071h2.132C212.959,64.809,213.093,64.826,213.14,64.859z M202.985,66.694c0,0.297-0.068,0.514-0.205,0.65
			c-0.223,0.215-0.497,0.323-0.826,0.323c-0.27,0-0.483-0.08-0.64-0.238c-0.159-0.158-0.238-0.372-0.238-0.641
			c0-0.344,0.167-0.626,0.498-0.847c0.332-0.221,0.802-0.358,1.411-0.412V66.694z M200.898,65.89
			c-0.411,0.249-0.617,0.6-0.617,1.052c0,0.333,0.109,0.6,0.327,0.798c0.218,0.198,0.51,0.298,0.878,0.298
			c0.486,0,1.013-0.216,1.581-0.649c0.26,0.401,0.552,0.601,0.875,0.601c0.172,0,0.35-0.037,0.531-0.109
			c0.181-0.072,0.273-0.145,0.278-0.215l-0.094-0.083c-0.024,0-0.071,0.008-0.142,0.025l-0.141,0.011
			c-0.208,0-0.357-0.078-0.445-0.232c-0.089-0.155-0.132-0.415-0.132-0.78v-2.306c0-0.432-0.147-0.766-0.441-1.003
			c-0.294-0.237-0.709-0.356-1.243-0.356c-0.585,0-1.055,0.19-1.408,0.569c-0.262,0.282-0.394,0.544-0.394,0.786
			c0,0.095,0.075,0.181,0.226,0.26c0.15,0.078,0.316,0.117,0.5,0.117c0.082,0,0.12-0.035,0.117-0.105
			c-0.004-0.054-0.018-0.116-0.041-0.187c-0.051-0.167-0.077-0.315-0.077-0.443c0-0.436,0.26-0.655,0.778-0.655
			c0.385,0,0.692,0.117,0.919,0.352c0.169,0.171,0.254,0.482,0.254,0.93v0.726C202.004,65.442,201.309,65.641,200.898,65.89z
			 M197.481,67.227c-0.241,0.199-0.553,0.297-0.935,0.297c-0.521,0-0.972-0.236-1.353-0.709c-0.382-0.472-0.572-1.03-0.572-1.673
			c0-0.588,0.145-1.063,0.437-1.424c0.291-0.361,0.675-0.541,1.147-0.541c0.531,0,0.991,0.186,1.379,0.559
			c0.172,0.165,0.258,0.423,0.258,0.776v1.941C197.842,66.77,197.722,67.029,197.481,67.227z M197.842,67.744
			c0,0.2,0.046,0.297,0.137,0.293c0.043,0,0.102-0.022,0.177-0.065c0.087-0.044,0.261-0.085,0.52-0.124l0.332-0.053
			c0.043-0.007,0.145-0.02,0.307-0.035c0.141-0.015,0.213-0.065,0.213-0.149l-0.065-0.092l-0.053-0.006l-0.348,0.012
			c-0.271,0-0.406-0.222-0.406-0.666v-7.487l-0.006-0.106c0-0.087-0.03-0.13-0.089-0.13l-0.112,0.041
			c-0.517,0.31-0.978,0.491-1.384,0.542c-0.122,0.016-0.179,0.064-0.171,0.145l0.065,0.091l0.076,0.012l0.206-0.012
			c0.401-0.024,0.601,0.337,0.601,1.082v2.323c-0.474-0.279-0.948-0.419-1.423-0.419c-0.698,0-1.287,0.259-1.768,0.777
			c-0.48,0.518-0.72,1.154-0.72,1.906c0,0.683,0.201,1.255,0.603,1.719c0.401,0.462,0.899,0.694,1.49,0.694
			c0.314,0,0.596-0.06,0.844-0.178c0.249-0.119,0.573-0.351,0.973-0.694V67.744z M188.571,66.694c0,0.297-0.069,0.514-0.206,0.65
			c-0.223,0.215-0.497,0.323-0.826,0.323c-0.269,0-0.483-0.08-0.64-0.238c-0.158-0.158-0.237-0.372-0.237-0.641
			c0-0.344,0.166-0.626,0.497-0.847c0.332-0.221,0.802-0.358,1.412-0.412V66.694z M186.484,65.89
			c-0.412,0.249-0.617,0.6-0.617,1.052c0,0.333,0.108,0.6,0.326,0.798c0.218,0.198,0.51,0.298,0.878,0.298
			c0.487,0,1.013-0.216,1.581-0.649c0.261,0.401,0.552,0.601,0.875,0.601c0.173,0,0.35-0.037,0.531-0.109
			c0.181-0.072,0.274-0.145,0.278-0.215l-0.094-0.083c-0.024,0-0.071,0.008-0.141,0.025l-0.141,0.011
			c-0.208,0-0.356-0.078-0.445-0.232c-0.089-0.155-0.133-0.415-0.133-0.78v-2.306c0-0.432-0.146-0.766-0.441-1.003
			c-0.294-0.237-0.709-0.356-1.243-0.356c-0.585,0-1.054,0.19-1.408,0.569c-0.262,0.282-0.395,0.544-0.395,0.786
			c0,0.095,0.076,0.181,0.226,0.26c0.15,0.078,0.316,0.117,0.501,0.117c0.081,0,0.12-0.035,0.116-0.105
			c-0.004-0.054-0.018-0.116-0.041-0.187c-0.051-0.167-0.076-0.315-0.076-0.443c0-0.436,0.259-0.655,0.778-0.655
			c0.385,0,0.692,0.117,0.918,0.352c0.169,0.171,0.254,0.482,0.254,0.93v0.726C187.591,65.442,186.895,65.641,186.484,65.89z"/>
		</g>
		</g>
	</g>
</g>
</svg>