<?xml version="1.0" encoding="utf-8"?>
<!-- Generator: Adobe Illustrator 17.0.0, SVG Export Plug-In . SVG Version: 6.00 Build 0)  -->
<!DOCTYPE svg PUBLIC "-//W3C//DTD SVG 1.1//EN" "http://www.w3.org/Graphics/SVG/1.1/DTD/svg11.dtd">
<svg version="1.1" id="Layer_1" xmlns="http://www.w3.org/2000/svg" xmlns:xlink="http://www.w3.org/1999/xlink" x="0px" y="0px"
	 width="280.63px" height="595.28px" viewBox="0 0 280.63 595.28" enable-background="new 0 0 280.63 595.28" xml:space="preserve">
<g id="Layer_6" display="none">
	<rect x="-41.685" y="231.272" display="inline" width="349.968" height="123.621"/>
</g>
<g>
	<path fill-rule="evenodd" clip-rule="evenodd" fill="#FFFFFF" d="M16.12,294.797l0.001,2.723h36.194v-2.723H16.12z M16.117,290.423
		l0.001,2.356h36.197v-2.356H16.117z M16.115,286.05l0.001,2.356h36.199v-2.356H16.115z M16.113,281.558l0.001,2.474h36.201v-2.474
		H16.113z M22.366,277.184l-4.258,2.356h34.208v-2.356H22.366z M30.302,272.793l-4.29,2.374h26.304v-2.374H30.302z M38.238,268.401
		l-4.29,2.374h18.368v-2.374H38.238z M52.315,262.516h-3.442l-6.989,3.867h10.431V262.516z"/>
	<path fill-rule="evenodd" clip-rule="evenodd" fill="#FFFFFF" d="M85.802,316.53c-5.854,9.781-16.555,16.366-28.722,16.366h-2.712
		V316.53H85.802z M86.731,314.876c-0.152,0.29-0.308,0.577-0.468,0.862H54.367v-0.862H86.731z M54.367,312.356v-0.775h1.728
		l-0.001,0.775H54.367z M87.505,313.302c-0.145,0.314-0.293,0.624-0.446,0.933H54.367v-0.933h2.416h0.061v-0.062v-0.823v-0.897
		v-0.061v-0.826v-0.062h-0.061h-2.15l-0.001-0.508h1.163h0.48h1.156v2.355v0.823v0.062h0.062h4.058h0.061v-0.062v-0.823h-0.001
		l0.001-0.897v-0.061v-0.826v-0.062h-0.061h-2.151l-0.001-0.508h1.162h0.505h1.157v2.355v0.823v0.062h0.061h4.058h0.061v-0.062
		v-0.823v-0.897v-0.061v-0.826v-0.062h-0.061h-2.15l-0.001-0.508h1.162h0.48h1.157v2.355v0.823v0.062h0.061h4.058h0.061v-0.062
		v-0.823v-0.897v-0.061v-0.826v-0.062h-0.061h-2.151v-0.508h1.162h0.446h1.157v2.355v0.823v0.062h0.061h4.058h0.061v-0.062v-0.823
		l0.001-0.897v-0.061h-0.001v-0.826v-0.062h-0.061h-2.15l-0.001-0.508h1.162h0.48h1.157v2.355v0.823v0.062h0.061h4.058h0.062v-0.062
		v-0.823l0.001-0.897v-0.061v-0.826v-0.062h-0.062h-2.15l-0.001-0.508h1.162h0.505h1.157v2.355v0.823v0.062h0.062h4.058h0.061
		v-0.062v-0.823l0.001-0.897v-0.061H85.47v-0.826v-0.062h-0.061h-2.151l-0.001-0.508h1.162H84.9h1.157v2.355v0.823v0.062h0.061
		H87.505z M88.792,310.062c-0.057,0.171-0.117,0.34-0.176,0.508h-0.591v-0.508H88.792z M89.343,308.263
		c-0.079,0.286-0.161,0.571-0.248,0.853h-1.76h-0.062v0.062v0.823h0.001l0.001,0.631v0.888v0.062h0.06h0.902
		c-0.101,0.26-0.207,0.518-0.316,0.775h-1.114v-3.178v-0.062h-0.061h-0.2H84.9h-0.481h-1.852h-0.061v0.062v0.823l0.001,0.631
		l-0.001,0.888v0.062h0.061h2.152l-0.001,0.775h-2.68l0.001-3.178v-0.062h-0.062h-0.225h-1.621h-0.505h-1.852h-0.061v0.062v0.823
		l0.001,0.631l-0.001,0.888v0.062h0.061h2.151v0.775h-2.68v-3.178v-0.062h-0.061h-0.2h-1.646h-0.48h-1.852h-0.061v0.062v0.823
		l0.001,0.631v0.888v0.062h0.061h2.152l-0.001,0.775h-2.679l0.001-3.178v-0.062h-0.061h-0.166h-1.681h-0.446h-1.853h-0.061v0.062
		v0.823l0.001,0.631v0.888v0.062h0.061h2.151v0.775h-2.68v-3.178v-0.062h-0.061h-0.201h-1.646h-0.48h-1.852h-0.061v0.062v0.823
		l0.001,0.631l-0.001,0.888v0.062h0.061h2.152l-0.001,0.775h-2.679v-3.178v-0.062h-0.061H62.69h-1.621h-0.505h-1.852H58.65v0.062
		v0.823l0.001,0.631v0.888l-0.001,0.062h0.062h2.151l-0.001,0.775h-2.679v-3.178v-0.062h-0.061h-0.201h-1.645h-0.48h-1.429v-0.853
		H89.343z M89.754,306.611c-0.063,0.289-0.131,0.576-0.203,0.861H54.367v-0.861H89.754z M54.367,299.441h36.168
		c0,2.232-0.224,4.415-0.646,6.528H54.367V299.441z"/>
	<path fill-rule="evenodd" clip-rule="evenodd" fill="#FFFFFF" d="M16.076,299.376c0,18.432,15.081,33.513,33.513,33.513h2.717
		v-33.513H16.076z M49.429,316.522c-1.121-0.181-6.925-1.119-8.828-1.393c-1.727-0.25-3.715-0.035-4.416,0.758
		c-0.018,0.021-0.137,0.148-0.214,0.147c-0.077,0-0.161-0.112-0.175-0.128c-0.691-0.805-2.807-1.027-4.543-0.777
		c-1.903,0.275-7.707,1.212-8.828,1.393c-0.113,0.012-0.153-0.008-0.166-0.027l0.232-0.58v0.001l0.001-0.006l0.006-0.012
		c0.013-0.029,0.052-0.086,0.164-0.114c1.089-0.175,6.804-1.09,8.676-1.36c1.583-0.228,3.799,0.066,4.633,0.772
		c0.833-0.705,2.964-1,4.546-0.772c1.871,0.27,7.586,1.185,8.675,1.36c0.112,0.029,0.151,0.085,0.164,0.114l0.005,0.012l0.001,0.006
		l0.001-0.001l0.232,0.58C49.583,316.514,49.543,316.535,49.429,316.522z M49.421,315.012l-0.282-0.049
		c-0.064-0.011-6.5-1.122-8.581-1.423c-0.428-0.061-0.894-0.094-1.345-0.094c-2.188-0.004-2.613,0.567-2.96,0.816
		c-0.129,0.093-0.179,0.202-0.289,0.201c-0.11,0.001-0.159-0.108-0.288-0.201c-0.347-0.249-0.848-0.819-3.036-0.816
		c-0.451,0-0.916,0.033-1.344,0.094c-2.082,0.301-8.516,1.412-8.581,1.423l-0.283,0.049c-0.148,0.025-0.184-0.022-0.19-0.062
		l1.242-8.389v-0.001l0.005-0.016c0.011-0.023,0.04-0.068,0.115-0.099l0.093-0.015c0.193-0.031,0.829-0.149,1.636-0.298
		c1.901-0.353,4.633-0.87,6-1.067c0.374-0.054,0.779-0.081,1.203-0.081c1.09,0,2.587,0.202,3.429,0.759
		c0.843-0.556,2.34-0.759,3.428-0.759c0.426,0,0.831,0.027,1.204,0.081c1.368,0.196,4.065,0.702,5.967,1.055
		c0.807,0.149,1.442,0.268,1.635,0.298l0.093,0.014c0.075,0.031,0.104,0.076,0.114,0.099l0.006,0.016v0.001l1.197,8.401
		C49.606,314.99,49.57,315.038,49.421,315.012z"/>
	<path fill-rule="evenodd" clip-rule="evenodd" fill="#FFFFFF" d="M57.802,262.546h-3.44v34.982h36.173l0.009-16.865L57.802,262.546
		z M81.189,291.935c0,0-4.6-2.212-8.685-2.212c-4.081,0-8.682,2.212-8.682,2.212v-4.867c0,0,4.389-2.422,8.751-2.422
		c4.361,0,8.616,2.492,8.616,2.492V291.935z M85.62,288.375l-0.265,0.502h-0.53l-0.265-0.502l0.265-0.501h-0.008v-1.538
		l-2.627,1.192v-0.832c0,0-4.745-2.861-9.612-2.861c-4.861,0-9.756,2.786-9.756,2.786v1.454l-3.123-1.673l-0.757-0.407h0.005
		l-1.73-0.93l15.651-7.486l14.978,7.383l-2.492,1.131v1.783L85.62,288.375z"/>
	<path fill="#FFFFFF" d="M106.385,286.038c0.412-0.222,1.471-0.333,3.178-0.333c1.311,0,2.393,0.039,3.246,0.115l2.697,0.276
		c1.022,0.092,1.681,0.249,1.978,0.471c0.297,0.222,0.544,0.723,0.743,1.503c0.122,0.49,0.205,0.971,0.252,1.445
		c0.031,0.382,0.164,0.574,0.399,0.574c0.407,0,0.61-0.354,0.61-1.06c0-1.673,0.13-3.008,0.39-4.006
		c0.076-0.322,0.115-0.576,0.115-0.76c0-0.353-0.169-0.53-0.505-0.53c-0.214,0-0.467,0.031-0.757,0.092
		c-0.398,0.077-1.285,0.145-2.661,0.206l-3.189,0.161c-0.826,0.046-2.684,0.069-5.575,0.069c-3.243,0-5.544-0.069-6.906-0.206
		c-0.75-0.077-1.224-0.115-1.423-0.115c-0.642,0-0.948,0.194-0.917,0.583c0.014,0.239,0.206,0.373,0.573,0.403
		c0.903,0.077,1.537,0.207,1.905,0.391c0.367,0.183,0.703,0.536,1.009,1.057c0.474,0.782,0.712,1.9,0.712,3.355v20.703
		c0,1.502-0.176,2.559-0.528,3.172c-0.351,0.613-1.017,1.026-1.996,1.241c-0.474,0.105-0.712,0.276-0.712,0.515
		c0,0.283,0.222,0.418,0.667,0.402c0.245-0.015,0.636-0.038,1.173-0.069c0.658-0.061,1.179-0.092,1.563-0.092l1.77-0.023
		l1.586,0.026c0.996,0,1.747,0.033,2.253,0.102c0.598,0.067,1.066,0.102,1.402,0.102c0.491,0,0.72-0.173,0.69-0.516
		c-0.015-0.298-0.283-0.448-0.803-0.448c-1.086,0-1.949-0.361-2.592-1.083c-0.642-0.723-0.963-1.691-0.963-2.905v-8.552
		c0-0.63,0.038-1.091,0.114-1.383c0.061-0.276,0.362-0.453,0.902-0.53c0.541-0.076,1.725-0.116,3.553-0.116
		c1.98,0,3.48,0.13,4.501,0.39c0.503,0.122,0.861,0.329,1.074,0.619c0.213,0.291,0.411,0.842,0.594,1.652
		c0.167,0.75,0.4,1.125,0.699,1.125c0.283,0,0.424-0.183,0.424-0.55c0-0.137-0.015-0.35-0.046-0.641
		c-0.061-0.488-0.092-1.624-0.092-3.41c0-0.641,0.008-1.106,0.023-1.396l0.137-2.265c0.031-0.473-0.103-0.71-0.4-0.71
		c-0.251,0-0.408,0.183-0.471,0.55c-0.168,1.025-0.571,1.748-1.211,2.168c-0.64,0.421-1.661,0.631-3.062,0.631l-2.696,0.046
		l-0.754,0.023l-1.965-0.046c-0.807,0-1.242-0.206-1.302-0.618v-0.595l-0.023-0.435v-9.069
		C105.768,286.828,105.974,286.259,106.385,286.038z"/>
	<path fill="#FFFFFF" d="M139.058,300.321c0.077,0.245,0.115,0.421,0.115,0.528c0,0.382-0.382,0.573-1.147,0.573h-6.928l-0.62-0.023
		c-0.704,0-1.055-0.198-1.055-0.596c0-0.137,0.099-0.42,0.298-0.849l4.474-9.934c0.137-0.306,0.259-0.451,0.367-0.436
		c0.214,0.015,0.413,0.267,0.597,0.757l0.183,0.481l3.602,9.086L139.058,300.321z M140.229,303.797
		c0.183,0.131,0.435,0.617,0.757,1.46l1.147,3.034c0.933,2.422,1.399,4.039,1.399,4.851c0,0.889-0.382,1.41-1.147,1.563
		l-0.711,0.161c-0.383,0.075-0.573,0.232-0.573,0.47c0,0.313,0.198,0.471,0.596,0.471c0.153,0,0.39-0.031,0.712-0.092
		c0.534-0.091,1.865-0.138,3.992-0.138c2.034,0,3.449,0.038,4.245,0.115c0.443,0.031,0.734,0.046,0.872,0.046
		c0.413,0,0.627-0.127,0.642-0.381c0.015-0.284-0.214-0.471-0.688-0.56c-1.453-0.26-2.417-0.616-2.891-1.068
		c-0.475-0.451-1.072-1.605-1.79-3.458l-0.505-1.241l-9.866-25.274c-0.168-0.444-0.375-0.666-0.619-0.666
		c-0.245,0-0.467,0.23-0.666,0.688l-11.793,26.198l-0.666,1.515c-0.336,0.704-0.764,1.381-1.285,2.032
		c-0.52,0.651-0.933,1.022-1.239,1.113l-0.849,0.253c-0.26,0.078-0.39,0.243-0.39,0.494c0,0.283,0.206,0.424,0.618,0.424
		c0.076,0,0.504-0.043,1.282-0.129c0.243-0.021,0.587-0.032,1.03-0.032c0.961,0,1.808,0.018,2.54,0.052l2.197,0.129
		c0.351,0.017,0.61,0.026,0.778,0.026c0.443,0,0.656-0.127,0.641-0.381c-0.015-0.268-0.252-0.448-0.711-0.537
		c-1.056-0.23-1.763-0.506-2.123-0.827c-0.359-0.322-0.539-0.843-0.539-1.564c0-0.75,0.34-1.9,1.019-3.448l1.504-3.38
		c0.459-1.042,0.826-1.655,1.101-1.839c0.276-0.184,0.979-0.275,2.111-0.275h8.306C139.525,303.602,140.045,303.667,140.229,303.797
		z"/>
	<path fill="#FFFFFF" d="M174.805,300.321c0.077,0.245,0.115,0.421,0.115,0.528c0,0.382-0.382,0.573-1.148,0.573h-6.928l-0.62-0.023
		c-0.704,0-1.055-0.198-1.055-0.596c0-0.137,0.099-0.42,0.298-0.849l4.474-9.934c0.137-0.306,0.259-0.451,0.367-0.436
		c0.214,0.015,0.413,0.267,0.596,0.757l0.183,0.481l3.602,9.086L174.805,300.321z M175.976,303.797
		c0.183,0.131,0.435,0.617,0.757,1.46l1.147,3.034c0.933,2.422,1.399,4.039,1.399,4.851c0,0.889-0.382,1.41-1.148,1.563
		l-0.711,0.161c-0.383,0.075-0.574,0.232-0.574,0.47c0,0.313,0.199,0.471,0.596,0.471c0.153,0,0.39-0.031,0.711-0.092
		c0.535-0.091,1.866-0.138,3.992-0.138c2.034,0,3.449,0.038,4.244,0.115c0.443,0.031,0.735,0.046,0.872,0.046
		c0.413,0,0.627-0.127,0.642-0.381c0.015-0.284-0.214-0.471-0.689-0.56c-1.453-0.26-2.416-0.616-2.891-1.068
		c-0.474-0.451-1.071-1.605-1.789-3.458l-0.505-1.241l-9.865-25.274c-0.168-0.444-0.375-0.666-0.619-0.666
		c-0.245,0-0.468,0.23-0.666,0.688l-11.793,26.198l-0.666,1.515c-0.336,0.704-0.765,1.381-1.284,2.032
		c-0.521,0.651-0.934,1.022-1.239,1.113l-0.849,0.253c-0.261,0.078-0.39,0.243-0.39,0.494c0,0.283,0.206,0.424,0.618,0.424
		c0.076,0,0.504-0.043,1.282-0.129c0.243-0.021,0.587-0.032,1.029-0.032c0.961,0,1.807,0.018,2.54,0.052l2.197,0.129
		c0.351,0.017,0.611,0.026,0.779,0.026c0.443,0,0.656-0.127,0.641-0.381c-0.015-0.268-0.252-0.448-0.711-0.537
		c-1.056-0.23-1.763-0.506-2.122-0.827c-0.36-0.322-0.539-0.843-0.539-1.564c0-0.75,0.34-1.9,1.019-3.448l1.505-3.38
		c0.459-1.042,0.826-1.655,1.101-1.839c0.275-0.184,0.979-0.275,2.111-0.275h8.306C175.272,303.602,175.792,303.667,175.976,303.797
		z"/>
	<path fill="#FFFFFF" d="M220.466,307.058l0.092,3.743c0,1.378-0.153,2.343-0.459,2.894c-0.307,0.551-0.911,0.949-1.812,1.194
		c-0.383,0.104-0.574,0.276-0.574,0.515c0,0.268,0.22,0.403,0.664,0.403c0.244,0,1.16-0.043,2.747-0.128
		c1.022-0.068,1.77-0.102,2.243-0.102c0.687,0,1.329,0.031,1.924,0.092l1.785,0.184c0.214,0.014,0.405,0.023,0.573,0.023
		c0.564,0,0.847-0.15,0.847-0.449c0-0.284-0.405-0.486-1.215-0.606c-1.132-0.169-1.913-0.506-2.341-1.011
		c-0.428-0.505-0.642-1.34-0.642-2.505l-0.114-2.895l-0.436-12.478l-0.138-5.538c0-1.762,0.157-3.029,0.471-3.802
		c0.313-0.774,0.859-1.252,1.64-1.437l0.987-0.252c0.305-0.075,0.459-0.254,0.459-0.539c0-0.314-0.154-0.463-0.459-0.449
		c-0.168,0.016-0.389,0.032-0.665,0.046c-0.581,0.061-1.354,0.092-2.317,0.092c-0.306,0-0.559-0.008-0.757-0.023
		c-0.551-0.061-0.888-0.091-1.009-0.091c-0.291,0-0.493,0.057-0.608,0.172c-0.114,0.115-0.287,0.417-0.516,0.908l-10.774,23.101
		l-0.206,0.46l-0.276,0.62c-0.137,0.291-0.252,0.436-0.343,0.436c-0.077,0-0.2-0.199-0.367-0.597l-1.17-2.363l-9.562-20.626
		l-0.253-0.528c-0.443-0.963-0.994-1.445-1.651-1.445c-0.214,0-0.497,0.023-0.848,0.069c-0.336,0.031-1.131,0.046-2.385,0.046
		c-0.825,0-1.346-0.015-1.559-0.046c-0.367-0.03-0.62-0.045-0.756-0.045c-0.382,0-0.573,0.164-0.573,0.494
		c0,0.3,0.229,0.487,0.688,0.561c1.682,0.306,2.883,1.114,3.602,2.422c0.719,1.309,1.078,3.325,1.078,6.05
		c0,1.271-0.115,4.317-0.344,9.139l-0.321,6.658c-0.092,1.883-0.36,3.215-0.803,3.996s-1.224,1.3-2.34,1.562
		c-0.367,0.074-0.55,0.239-0.55,0.493c0,0.329,0.229,0.493,0.686,0.493c0.168,0,0.404-0.023,0.71-0.069
		c1.022-0.138,2.091-0.207,3.205-0.207c0.931,0,2.252,0.076,3.961,0.23c0.274,0.031,0.557,0.046,0.847,0.046
		c0.442,0,0.663-0.173,0.663-0.518c0-0.3-0.466-0.525-1.399-0.675c-1.898-0.29-2.846-1.782-2.846-4.474
		c0-2.799,0.023-4.665,0.069-5.598l0.528-11.357l8.624,18.611l0.46,0.962c0.368,0.703,0.583,1.123,0.643,1.261
		c0.332,0.749,0.68,1.123,1.044,1.123c0.348,0,0.674-0.359,0.976-1.077c0.076-0.168,0.215-0.458,0.414-0.871
		c0.352-0.688,0.766-1.566,1.242-2.635c1.164-2.598,1.808-4.034,1.931-4.309l2.346-4.814l2.046-4.378
		c0.429-0.886,1.296-2.468,2.599-4.744L220.466,307.058z"/>
	<path fill="#FFFFFF" d="M252.447,300.321c0.076,0.245,0.114,0.421,0.114,0.528c0,0.382-0.382,0.573-1.147,0.573h-6.929l-0.62-0.023
		c-0.703,0-1.055-0.198-1.055-0.596c0-0.137,0.099-0.42,0.298-0.849l4.474-9.934c0.138-0.306,0.259-0.451,0.367-0.436
		c0.214,0.015,0.413,0.267,0.597,0.757l0.183,0.481l3.602,9.086L252.447,300.321z M253.618,303.797
		c0.183,0.131,0.435,0.617,0.757,1.46l1.147,3.034c0.933,2.422,1.399,4.039,1.399,4.851c0,0.889-0.382,1.41-1.147,1.563
		l-0.711,0.161c-0.383,0.075-0.574,0.232-0.574,0.47c0,0.313,0.199,0.471,0.596,0.471c0.153,0,0.39-0.031,0.712-0.092
		c0.534-0.091,1.865-0.138,3.992-0.138c2.034,0,3.449,0.038,4.244,0.115c0.444,0.031,0.735,0.046,0.872,0.046
		c0.413,0,0.627-0.127,0.642-0.381c0.015-0.284-0.214-0.471-0.688-0.56c-1.453-0.26-2.417-0.616-2.891-1.068
		c-0.475-0.451-1.072-1.605-1.79-3.458l-0.505-1.241l-9.865-25.274c-0.168-0.444-0.375-0.666-0.619-0.666
		c-0.245,0-0.468,0.23-0.666,0.688l-11.794,26.198l-0.666,1.515c-0.336,0.704-0.764,1.381-1.284,2.032
		c-0.52,0.651-0.933,1.022-1.239,1.113l-0.849,0.253c-0.26,0.078-0.39,0.243-0.39,0.494c0,0.283,0.206,0.424,0.618,0.424
		c0.076,0,0.504-0.043,1.282-0.129c0.243-0.021,0.587-0.032,1.029-0.032c0.961,0,1.808,0.018,2.54,0.052l2.198,0.129
		c0.351,0.017,0.61,0.026,0.778,0.026c0.443,0,0.656-0.127,0.641-0.381c-0.015-0.268-0.252-0.448-0.711-0.537
		c-1.057-0.23-1.763-0.506-2.123-0.827c-0.36-0.322-0.539-0.843-0.539-1.564c0-0.75,0.34-1.9,1.019-3.448l1.505-3.38
		c0.459-1.042,0.826-1.655,1.101-1.839c0.276-0.184,0.979-0.275,2.111-0.275h8.307C252.914,303.602,253.434,303.667,253.618,303.797
		z"/>
	<path fill="#FFFFFF" d="M101.587,320.701c0.104-0.056,0.373-0.085,0.807-0.085c0.333,0,0.609,0.01,0.826,0.029l0.685,0.07
		c0.26,0.023,0.428,0.063,0.504,0.119c0.075,0.057,0.138,0.184,0.188,0.382c0.031,0.125,0.053,0.247,0.064,0.368
		c0.007,0.097,0.042,0.146,0.101,0.146c0.104,0,0.156-0.09,0.156-0.27c0-0.425,0.033-0.765,0.099-1.019
		c0.02-0.082,0.029-0.146,0.029-0.193c0-0.09-0.042-0.134-0.128-0.134c-0.055,0-0.119,0.007-0.193,0.023
		c-0.101,0.019-0.327,0.037-0.677,0.052l-0.81,0.041c-0.21,0.012-0.682,0.018-1.418,0.018c-0.825,0-1.41-0.018-1.756-0.053
		c-0.191-0.019-0.311-0.029-0.362-0.029c-0.164,0-0.241,0.049-0.233,0.148c0.004,0.062,0.053,0.095,0.145,0.103
		c0.229,0.019,0.391,0.053,0.484,0.099c0.094,0.047,0.179,0.136,0.257,0.268c0.12,0.199,0.181,0.483,0.181,0.853v5.263
		c0,0.382-0.045,0.651-0.134,0.807c-0.09,0.156-0.259,0.261-0.508,0.316c-0.121,0.026-0.18,0.07-0.18,0.131
		c0,0.072,0.056,0.106,0.169,0.102c0.062-0.004,0.162-0.01,0.298-0.018c0.167-0.015,0.3-0.023,0.398-0.023l0.45-0.006l0.403,0.006
		c0.253,0,0.444,0.009,0.573,0.026c0.152,0.017,0.27,0.026,0.357,0.026c0.124,0,0.183-0.044,0.175-0.132
		c-0.004-0.075-0.072-0.113-0.205-0.113c-0.276,0-0.496-0.092-0.659-0.276c-0.163-0.184-0.245-0.431-0.245-0.739v-2.174
		c0-0.16,0.009-0.277,0.029-0.352c0.015-0.07,0.092-0.115,0.23-0.134c0.137-0.02,0.438-0.03,0.903-0.03
		c0.503,0,0.885,0.033,1.144,0.099c0.128,0.031,0.218,0.084,0.273,0.158c0.054,0.074,0.104,0.213,0.15,0.419
		c0.043,0.191,0.102,0.286,0.178,0.286c0.072,0,0.107-0.047,0.107-0.14c0-0.034-0.004-0.089-0.012-0.163
		c-0.015-0.124-0.023-0.413-0.023-0.866c0-0.163,0.002-0.282,0.006-0.355l0.035-0.576c0.008-0.12-0.026-0.18-0.102-0.18
		c-0.064,0-0.104,0.047-0.12,0.14c-0.043,0.26-0.145,0.444-0.308,0.551c-0.162,0.107-0.422,0.161-0.778,0.161l-0.685,0.012
		l-0.191,0.006l-0.5-0.012c-0.205,0-0.316-0.053-0.331-0.157v-0.152l-0.006-0.11v-2.306
		C101.43,320.902,101.483,320.758,101.587,320.701z"/>
	<path fill="#FFFFFF" d="M154.545,324.332l0.03,0.134c0,0.097-0.097,0.145-0.292,0.145h-1.762l-0.158-0.005
		c-0.179,0-0.268-0.051-0.268-0.152c0-0.035,0.025-0.107,0.076-0.216l1.137-2.526c0.035-0.077,0.067-0.115,0.093-0.111
		c0.056,0.004,0.105,0.068,0.152,0.193l0.047,0.122l0.916,2.31L154.545,324.332z M154.843,325.216
		c0.047,0.033,0.111,0.157,0.192,0.371l0.291,0.772c0.237,0.615,0.356,1.027,0.356,1.234c0,0.226-0.097,0.358-0.291,0.397
		l-0.18,0.041c-0.097,0.018-0.146,0.058-0.146,0.119c0,0.08,0.051,0.12,0.152,0.12c0.039,0,0.099-0.008,0.18-0.023
		c0.137-0.023,0.475-0.035,1.015-0.035c0.517,0,0.877,0.009,1.08,0.029c0.112,0.008,0.187,0.012,0.222,0.012
		c0.104,0,0.159-0.032,0.163-0.097c0.004-0.072-0.055-0.119-0.175-0.142c-0.369-0.067-0.615-0.157-0.735-0.272
		c-0.121-0.115-0.273-0.408-0.455-0.879l-0.129-0.315l-2.508-6.426c-0.043-0.113-0.096-0.169-0.158-0.169s-0.118,0.058-0.169,0.175
		l-2.999,6.66l-0.169,0.385c-0.085,0.179-0.195,0.352-0.327,0.517c-0.132,0.166-0.237,0.26-0.315,0.284l-0.216,0.064l-0.099,0.125
		c0,0.072,0.052,0.108,0.158,0.108c0.019,0,0.127-0.011,0.325-0.033c0.062-0.005,0.15-0.008,0.262-0.008
		c0.244,0,0.459,0.004,0.645,0.013l0.559,0.033c0.089,0.004,0.155,0.006,0.198,0.006c0.113,0,0.167-0.032,0.163-0.097
		c-0.003-0.068-0.064-0.113-0.181-0.136c-0.268-0.058-0.447-0.128-0.539-0.21c-0.091-0.082-0.138-0.215-0.138-0.398
		c0-0.191,0.088-0.483,0.26-0.876l0.383-0.859c0.116-0.265,0.209-0.421,0.279-0.468c0.071-0.047,0.249-0.07,0.537-0.07h2.112
		C154.664,325.167,154.796,325.184,154.843,325.216z M143.325,323.95c0.212-0.254,0.477-0.381,0.797-0.381
		c0.307,0,0.592,0.13,0.854,0.39c0.263,0.261,0.394,0.543,0.394,0.846c0,0.124-0.154,0.186-0.46,0.186h-1.978
		C142.982,324.552,143.113,324.205,143.325,323.95z M145.105,325.312l0.398,0.012l0.433,0.006c0.253,0,0.379-0.064,0.379-0.192
		c0-0.089-0.048-0.247-0.146-0.473c-0.097-0.225-0.192-0.404-0.286-0.536c-0.389-0.541-0.908-0.811-1.558-0.811
		c-0.595,0-1.114,0.253-1.557,0.761c-0.443,0.507-0.665,1.098-0.665,1.774c0,0.711,0.215,1.307,0.645,1.789
		c0.43,0.482,0.962,0.723,1.595,0.723c0.564,0,1.099-0.197,1.605-0.592c0.272-0.213,0.408-0.377,0.408-0.493l-0.082-0.093
		l-0.088,0.041c-0.498,0.381-0.96,0.571-1.385,0.571c-0.537,0-0.99-0.227-1.358-0.68c-0.369-0.453-0.553-1.012-0.553-1.677
		l0.006-0.128H145.105z M139.383,327.561c-0.238,0.197-0.547,0.295-0.927,0.295c-0.516,0-0.962-0.234-1.34-0.702
		c-0.378-0.468-0.566-1.02-0.566-1.657c0-0.583,0.144-1.053,0.433-1.41c0.289-0.357,0.668-0.536,1.136-0.536
		c0.527,0,0.982,0.184,1.366,0.553c0.171,0.163,0.256,0.419,0.256,0.768v1.922C139.74,327.109,139.621,327.365,139.383,327.561z
		 M139.74,328.073c0,0.198,0.045,0.294,0.135,0.29c0.042,0,0.101-0.022,0.175-0.064c0.086-0.043,0.258-0.084,0.515-0.123
		l0.328-0.052c0.042-0.007,0.144-0.019,0.304-0.035c0.14-0.015,0.211-0.064,0.211-0.148l-0.064-0.091l-0.053-0.006l-0.344,0.012
		c-0.268,0-0.403-0.22-0.403-0.659v-7.414l-0.006-0.105c0-0.086-0.029-0.129-0.088-0.129l-0.111,0.041
		c-0.511,0.307-0.968,0.486-1.37,0.537c-0.121,0.016-0.178,0.064-0.17,0.143l0.064,0.09l0.076,0.012l0.204-0.012
		c0.397-0.023,0.595,0.334,0.595,1.071v2.3c-0.47-0.276-0.94-0.414-1.41-0.414c-0.691,0-1.274,0.257-1.75,0.769
		c-0.476,0.513-0.713,1.142-0.713,1.888c0,0.676,0.199,1.243,0.597,1.702c0.398,0.458,0.89,0.687,1.476,0.687
		c0.311,0,0.59-0.059,0.836-0.177c0.247-0.118,0.568-0.347,0.964-0.687V328.073z M133.546,327.033c0,0.295-0.068,0.509-0.203,0.644
		c-0.221,0.213-0.492,0.319-0.818,0.319c-0.267,0-0.478-0.079-0.634-0.235c-0.157-0.156-0.235-0.368-0.235-0.635
		c0-0.34,0.164-0.62,0.493-0.839c0.328-0.218,0.794-0.354,1.397-0.408V327.033z M131.48,326.237
		c-0.408,0.247-0.611,0.594-0.611,1.041c0,0.33,0.107,0.594,0.323,0.79c0.215,0.196,0.506,0.295,0.87,0.295
		c0.482,0,1.003-0.214,1.566-0.642c0.258,0.397,0.546,0.595,0.867,0.595c0.171,0,0.347-0.037,0.526-0.108
		c0.18-0.072,0.271-0.143,0.275-0.212l-0.093-0.082c-0.024,0-0.07,0.008-0.14,0.025l-0.14,0.01c-0.206,0-0.353-0.077-0.441-0.23
		c-0.088-0.154-0.131-0.411-0.131-0.773v-2.283c0-0.427-0.145-0.758-0.437-0.993c-0.292-0.235-0.702-0.353-1.231-0.353
		c-0.579,0-1.044,0.188-1.394,0.563c-0.26,0.279-0.391,0.539-0.391,0.778c0,0.094,0.074,0.179,0.224,0.258
		c0.148,0.077,0.314,0.116,0.496,0.116c0.081,0,0.119-0.034,0.115-0.104c-0.004-0.054-0.018-0.115-0.041-0.185
		c-0.05-0.165-0.076-0.312-0.076-0.439c0-0.432,0.257-0.648,0.77-0.648c0.381,0,0.685,0.116,0.91,0.348
		c0.167,0.17,0.251,0.477,0.251,0.921v0.719C132.576,325.793,131.887,325.99,131.48,326.237z M128.096,327.561
		c-0.238,0.197-0.547,0.295-0.926,0.295c-0.516,0-0.963-0.234-1.34-0.702c-0.378-0.468-0.566-1.02-0.566-1.657
		c0-0.583,0.144-1.053,0.433-1.41c0.289-0.357,0.668-0.536,1.136-0.536c0.527,0,0.982,0.184,1.366,0.553
		c0.171,0.163,0.256,0.419,0.256,0.768v1.922C128.453,327.109,128.334,327.365,128.096,327.561z M128.453,328.073
		c0,0.198,0.045,0.294,0.135,0.29c0.042,0,0.101-0.022,0.175-0.064c0.086-0.043,0.258-0.084,0.515-0.123l0.328-0.052
		c0.042-0.007,0.144-0.019,0.304-0.035c0.14-0.015,0.211-0.064,0.211-0.148l-0.064-0.091l-0.053-0.006l-0.344,0.012
		c-0.268,0-0.403-0.22-0.403-0.659v-7.414l-0.006-0.105c0-0.086-0.029-0.129-0.088-0.129l-0.111,0.041
		c-0.511,0.307-0.968,0.486-1.37,0.537c-0.121,0.016-0.178,0.064-0.17,0.143l0.064,0.09l0.076,0.012l0.204-0.012
		c0.397-0.023,0.595,0.334,0.595,1.071v2.3c-0.47-0.276-0.94-0.414-1.41-0.414c-0.691,0-1.274,0.257-1.75,0.769
		c-0.476,0.513-0.713,1.142-0.713,1.888c0,0.676,0.199,1.243,0.597,1.702c0.398,0.458,0.89,0.687,1.476,0.687
		c0.311,0,0.59-0.059,0.836-0.177c0.247-0.118,0.568-0.347,0.964-0.687V328.073z M123.034,319.842c0-0.175-0.029-0.261-0.088-0.258
		l-0.117,0.047c-0.105,0.078-0.295,0.171-0.568,0.28l-0.357,0.146c-0.109,0.043-0.23,0.08-0.363,0.111
		c-0.101,0.028-0.152,0.07-0.152,0.126l0.07,0.096l0.099,0.012l0.292-0.012c0.248,0,0.373,0.179,0.373,0.536v6.469
		c0,0.187-0.031,0.322-0.091,0.406c-0.061,0.084-0.177,0.151-0.353,0.202c-0.112,0.03-0.167,0.078-0.163,0.143
		c0.004,0.076,0.056,0.114,0.158,0.114c0.023,0,0.097-0.01,0.222-0.029c0.086-0.012,0.313-0.017,0.684-0.017h0.304l0.509-0.006
		c0.117,0,0.205,0.006,0.263,0.018l0.152,0.023c0.086,0,0.127-0.044,0.123-0.132c-0.004-0.061-0.06-0.1-0.169-0.119
		c-0.397-0.066-0.638-0.197-0.723-0.392c-0.074-0.171-0.111-0.416-0.111-0.735v-6.848L123.034,319.842z M119.207,327.712
		c0,0.365,0.062,0.546,0.187,0.546c0.05,0,0.122-0.012,0.215-0.035c0.074-0.02,0.238-0.035,0.49-0.047l0.368-0.023
		c0.23-0.012,0.342-0.06,0.338-0.143c-0.004-0.06-0.049-0.09-0.135-0.09l-0.082,0.006h-0.094c-0.198,0-0.33-0.047-0.393-0.143
		c-0.064-0.095-0.097-0.292-0.097-0.591v-3.787c0-0.144-0.041-0.214-0.123-0.21l-0.14,0.029c-0.172,0.054-0.323,0.085-0.455,0.093
		l-0.409,0.018l-0.192,0.012c-0.14,0.004-0.21,0.049-0.21,0.136c0,0.072,0.062,0.108,0.187,0.108c0.206,0,0.347,0.041,0.423,0.123
		c0.075,0.082,0.113,0.233,0.113,0.455v2.788c0,0.258-0.134,0.488-0.4,0.689c-0.267,0.202-0.572,0.303-0.915,0.303
		c-0.261,0-0.503-0.082-0.725-0.245c-0.222-0.163-0.374-0.369-0.456-0.618l-0.094-0.706v-0.186l0.023-2.608v-0.087
		c0-0.183-0.053-0.274-0.157-0.274l-0.128,0.023c-0.194,0.047-0.339,0.074-0.436,0.082l-0.442,0.018
		c-0.236,0.012-0.357,0.051-0.36,0.12c-0.004,0.072,0.043,0.111,0.14,0.119c0.221,0.012,0.373,0.057,0.454,0.134
		c0.082,0.078,0.123,0.216,0.123,0.414v1.931l-0.006,0.385c0,0.603,0.153,1.073,0.458,1.409c0.305,0.336,0.73,0.505,1.274,0.505
		c0.645,0,1.194-0.292,1.645-0.875L119.207,327.712z M111.237,324.102c-0.496,0.522-0.744,1.156-0.744,1.902
		c0,0.668,0.209,1.228,0.627,1.681c0.418,0.452,0.938,0.679,1.56,0.679c0.677,0,1.256-0.217,1.738-0.65
		c0.187-0.166,0.28-0.292,0.28-0.377l-0.089-0.081l-0.144,0.07c-0.415,0.354-0.838,0.53-1.269,0.53c-0.536,0-0.989-0.224-1.36-0.673
		c-0.371-0.448-0.556-0.997-0.556-1.646c0-0.547,0.121-0.995,0.361-1.342c0.241-0.348,0.551-0.521,0.932-0.521
		c0.275,0,0.56,0.082,0.853,0.245c0.293,0.163,0.501,0.356,0.626,0.579c0.068,0.119,0.123,0.177,0.167,0.172
		c0.095-0.007,0.143-0.115,0.143-0.321l-0.04-0.443l0.006-0.175c0-0.107-0.132-0.203-0.394-0.287
		c-0.263-0.085-0.561-0.127-0.896-0.127C112.332,323.317,111.732,323.579,111.237,324.102z M108.172,327.033
		c0,0.295-0.068,0.509-0.203,0.644c-0.221,0.213-0.493,0.319-0.818,0.319c-0.267,0-0.478-0.079-0.634-0.235
		c-0.157-0.156-0.235-0.368-0.235-0.635c0-0.34,0.164-0.62,0.493-0.839c0.328-0.218,0.794-0.354,1.397-0.408V327.033z
		 M106.105,326.237c-0.408,0.247-0.611,0.594-0.611,1.041c0,0.33,0.107,0.594,0.323,0.79c0.216,0.196,0.506,0.295,0.87,0.295
		c0.481,0,1.003-0.214,1.566-0.642c0.258,0.397,0.547,0.595,0.867,0.595c0.171,0,0.347-0.037,0.526-0.108
		c0.18-0.072,0.271-0.143,0.275-0.212l-0.094-0.082c-0.023,0-0.07,0.008-0.14,0.025l-0.14,0.01c-0.206,0-0.353-0.077-0.441-0.23
		c-0.088-0.154-0.132-0.411-0.132-0.773v-2.283c0-0.427-0.145-0.758-0.437-0.993c-0.292-0.235-0.702-0.353-1.231-0.353
		c-0.58,0-1.044,0.188-1.394,0.563c-0.26,0.279-0.391,0.539-0.391,0.778c0,0.094,0.074,0.179,0.224,0.258
		c0.148,0.077,0.313,0.116,0.495,0.116c0.081,0,0.119-0.034,0.115-0.104c-0.004-0.054-0.017-0.115-0.041-0.185
		c-0.05-0.165-0.076-0.312-0.076-0.439c0-0.432,0.257-0.648,0.77-0.648c0.381,0,0.685,0.116,0.91,0.348
		c0.167,0.17,0.251,0.477,0.251,0.921v0.719C107.201,325.793,106.512,325.99,106.105,326.237z"/>
	<path fill="#FFFFFF" d="M165.215,324.424c-0.07-0.163-0.105-0.293-0.105-0.389c0-0.178,0.177-0.291,0.531-0.338
		c0.109-0.012,0.163-0.047,0.163-0.107c0-0.084-0.045-0.124-0.134-0.12c-0.047,0-0.134,0.006-0.262,0.018
		c-0.094,0.007-0.258,0.012-0.495,0.012c-0.516,0-0.869-0.012-1.059-0.035l-0.134-0.012c-0.117,0-0.175,0.04-0.175,0.12
		c0,0.049,0.041,0.089,0.122,0.119c0.269,0.102,0.48,0.328,0.636,0.678l1.692,3.843c0.046,0.109,0.118,0.164,0.215,0.164
		c0.082,0,0.146-0.049,0.192-0.147l1.902-3.971c0.139-0.295,0.289-0.475,0.448-0.537c0.16-0.061,0.241-0.116,0.245-0.165
		c0.004-0.065-0.041-0.097-0.134-0.097c-0.035,0-0.106,0.004-0.216,0.012c-0.131,0.012-0.398,0.018-0.796,0.018
		c-0.202,0-0.344-0.004-0.425-0.012c-0.093-0.012-0.165-0.017-0.216-0.017c-0.101,0-0.151,0.039-0.151,0.119
		c0,0.061,0.053,0.099,0.158,0.114c0.373,0.062,0.56,0.228,0.56,0.496c0,0.303-0.1,0.669-0.299,1.097l-0.984,2.07L165.215,324.424z
		 M161.502,327.561c-0.238,0.197-0.547,0.295-0.926,0.295c-0.516,0-0.962-0.234-1.34-0.702c-0.378-0.468-0.567-1.02-0.567-1.657
		c0-0.583,0.144-1.053,0.433-1.41c0.288-0.357,0.668-0.536,1.136-0.536c0.526,0,0.982,0.184,1.366,0.553
		c0.171,0.163,0.255,0.419,0.255,0.768v1.922C161.86,327.109,161.741,327.365,161.502,327.561z M161.86,328.073
		c0,0.198,0.046,0.294,0.135,0.29c0.043,0,0.101-0.022,0.175-0.064c0.086-0.043,0.258-0.084,0.515-0.123l0.328-0.052
		c0.043-0.007,0.144-0.019,0.304-0.035c0.14-0.015,0.211-0.064,0.211-0.148l-0.064-0.091l-0.052-0.006l-0.344,0.012
		c-0.268,0-0.402-0.22-0.402-0.659v-7.414l-0.006-0.105c0-0.086-0.03-0.129-0.088-0.129l-0.111,0.041
		c-0.512,0.307-0.968,0.486-1.37,0.537c-0.121,0.016-0.177,0.064-0.169,0.143l0.064,0.09l0.076,0.012l0.204-0.012
		c0.397-0.023,0.595,0.334,0.595,1.071v2.3c-0.469-0.276-0.939-0.414-1.409-0.414c-0.691,0-1.275,0.257-1.75,0.769
		c-0.476,0.513-0.713,1.142-0.713,1.888c0,0.676,0.199,1.243,0.597,1.702c0.398,0.458,0.89,0.687,1.476,0.687
		c0.311,0,0.59-0.059,0.836-0.177c0.247-0.118,0.567-0.347,0.963-0.687V328.073z"/>
	<path fill="#FFFFFF" d="M187.846,323.702c-0.299,0.257-0.448,0.571-0.448,0.944c0,0.31,0.097,0.573,0.291,0.788
		c0.194,0.216,0.525,0.424,0.991,0.626l0.513,0.228c0.44,0.195,0.659,0.492,0.659,0.89c0,0.261-0.089,0.476-0.27,0.643
		c-0.181,0.168-0.413,0.251-0.698,0.251c-0.33,0-0.612-0.12-0.848-0.362c-0.235-0.24-0.394-0.575-0.476-1.003
		c-0.024-0.121-0.072-0.178-0.143-0.175c-0.071,0.004-0.114,0.058-0.13,0.163l-0.012,0.174l0.018,0.744l0.006,0.25
		c0.007,0.089,0.056,0.137,0.146,0.145l0.152,0.018c0.023,0,0.08,0.021,0.168,0.064c0.378,0.183,0.728,0.274,1.05,0.274
		c0.451,0,0.839-0.156,1.164-0.469c0.324-0.312,0.487-0.688,0.487-1.127c0-0.357-0.094-0.641-0.283-0.853
		c-0.188-0.211-0.526-0.412-1.012-0.603c-0.489-0.191-0.815-0.353-0.977-0.485c-0.161-0.133-0.241-0.307-0.241-0.521
		c0-0.203,0.074-0.371,0.225-0.503c0.15-0.133,0.341-0.2,0.575-0.2c0.587,0,0.987,0.296,1.201,0.887
		c0.039,0.105,0.083,0.156,0.131,0.151c0.087-0.004,0.131-0.081,0.131-0.233c0-0.066-0.006-0.14-0.018-0.222l-0.023-0.228
		l-0.011-0.163v-0.094c0-0.08-0.052-0.14-0.158-0.178l-0.256-0.086c-0.222-0.08-0.487-0.121-0.793-0.121
		C188.516,323.317,188.146,323.446,187.846,323.702z M185.794,323.335c0-0.089-0.026-0.136-0.076-0.14l-0.311,0.145
		c-0.335,0.175-0.612,0.3-0.831,0.373c-0.195,0.061-0.295,0.118-0.299,0.171c-0.004,0.062,0.068,0.091,0.216,0.091
		c0.206,0,0.34,0.049,0.403,0.146c0.062,0.097,0.093,0.307,0.093,0.629v2.539c0,0.233-0.024,0.402-0.072,0.507
		c-0.049,0.105-0.135,0.178-0.26,0.221l-0.11,0.034c-0.07,0.024-0.105,0.067-0.105,0.126c0,0.072,0.052,0.108,0.158,0.108
		c0.039,0,0.109-0.006,0.211-0.017c0.043-0.008,0.103-0.014,0.181-0.018l0.427-0.023l0.374,0.007c0.167,0,0.304,0.004,0.409,0.013
		c0.187,0.018,0.314,0.027,0.381,0.027c0.101,0,0.154-0.032,0.158-0.097c0.004-0.08-0.064-0.129-0.204-0.148l-0.268-0.029
		c-0.195-0.028-0.322-0.087-0.382-0.181c-0.06-0.093-0.09-0.278-0.09-0.554V323.335z M185.097,321.148
		c-0.143,0.16-0.214,0.286-0.214,0.375c0,0.09,0.064,0.213,0.194,0.37c0.129,0.157,0.233,0.235,0.311,0.235
		c0.081,0,0.192-0.08,0.328-0.241c0.137-0.16,0.204-0.285,0.2-0.375l-0.059-0.147l-0.141-0.223
		c-0.097-0.157-0.193-0.235-0.287-0.235C185.35,320.908,185.24,320.989,185.097,321.148z M183.332,324.023
		c0.128,0,0.213-0.057,0.256-0.17l0.134-0.335c0.035-0.078,0.052-0.127,0.052-0.147l-0.058-0.065l-0.129,0.07
		c-0.093,0.062-0.225,0.093-0.397,0.093h-1.242l0.023-1.009c0-0.101-0.028-0.152-0.082-0.152c-0.043,0-0.117,0.086-0.221,0.258
		c-0.241,0.386-0.59,0.773-1.045,1.158c-0.101,0.085-0.151,0.155-0.151,0.21c0,0.059,0.05,0.088,0.151,0.088h0.519v2.942
		c0,0.932,0.447,1.398,1.341,1.398c0.265,0,0.55-0.074,0.858-0.223c0.307-0.148,0.46-0.286,0.46-0.414l-0.069-0.064l-0.035,0.012
		l-0.303,0.145c-0.164,0.086-0.365,0.129-0.602,0.129c-0.295,0-0.523-0.084-0.682-0.251c-0.109-0.113-0.163-0.359-0.163-0.74v-2.935
		H183.332z M175.602,323.586c0-0.086,0.002-0.159,0.006-0.222c0.008-0.112-0.023-0.169-0.093-0.169l-0.139,0.046
		c-0.031,0.016-0.108,0.053-0.229,0.111l-0.309,0.152c-0.241,0.113-0.492,0.192-0.752,0.239c-0.101,0.02-0.152,0.058-0.152,0.114
		l0.052,0.084l0.094,0.023l0.25-0.006c0.183,0,0.307,0.049,0.373,0.149c0.066,0.099,0.099,0.287,0.099,0.562v2.633
		c0,0.225-0.034,0.389-0.102,0.489c-0.068,0.101-0.201,0.186-0.399,0.256c-0.07,0.029-0.108,0.066-0.111,0.115
		c-0.004,0.064,0.031,0.096,0.105,0.096c0.035,0,0.113-0.006,0.233-0.02c0.121-0.018,0.49-0.027,1.109-0.027
		c0.291,0,0.474,0.004,0.548,0.013c0.132,0.023,0.231,0.034,0.298,0.034c0.089,0,0.134-0.036,0.134-0.108
		c0-0.072-0.064-0.113-0.192-0.125c-0.521-0.032-0.791-0.21-0.811-0.538l-0.006-0.292l-0.006-0.175v-2.227
		c0-0.245,0.126-0.462,0.377-0.653c0.252-0.191,0.539-0.286,0.863-0.286c0.46,0,0.814,0.146,1.064,0.44
		c0.249,0.293,0.374,0.71,0.374,1.25v2.009c0,0.241-0.077,0.381-0.233,0.42l-0.175,0.047c-0.069,0.016-0.105,0.054-0.105,0.113
		l0.041,0.09l0.081,0.018l0.169-0.012h0.221l0.576-0.017c0.345,0,0.582,0.008,0.71,0.027c0.109,0.013,0.184,0.02,0.227,0.02
		c0.132,0,0.196-0.042,0.191-0.126c-0.003-0.061-0.058-0.099-0.163-0.113l-0.245-0.035c-0.285-0.043-0.448-0.193-0.491-0.45
		l-0.017-0.28l0.006-0.175v-1.396c0-0.716-0.124-1.25-0.373-1.6c-0.362-0.51-0.854-0.765-1.476-0.765
		c-0.56,0-1.101,0.309-1.622,0.928V323.586z M170.227,323.95c0.212-0.254,0.477-0.381,0.796-0.381c0.307,0,0.592,0.13,0.855,0.39
		c0.263,0.261,0.394,0.543,0.394,0.846c0,0.124-0.153,0.186-0.46,0.186h-1.978C169.884,324.552,170.015,324.205,170.227,323.95z
		 M172.007,325.312l0.398,0.012l0.432,0.006c0.253,0,0.379-0.064,0.379-0.192c0-0.089-0.048-0.247-0.145-0.473
		c-0.097-0.225-0.193-0.404-0.286-0.536c-0.389-0.541-0.909-0.811-1.558-0.811c-0.595,0-1.115,0.253-1.557,0.761
		c-0.443,0.507-0.665,1.098-0.665,1.774c0,0.711,0.215,1.307,0.644,1.789c0.43,0.482,0.962,0.723,1.596,0.723
		c0.564,0,1.098-0.197,1.605-0.592c0.271-0.213,0.407-0.377,0.407-0.493l-0.081-0.093l-0.088,0.041
		c-0.499,0.381-0.961,0.571-1.385,0.571c-0.537,0-0.99-0.227-1.358-0.68c-0.369-0.453-0.552-1.012-0.552-1.677l0.006-0.128H172.007z
		"/>
	<path fill="#FFFFFF" d="M194.03,324.023c0.128,0,0.214-0.057,0.257-0.17l0.134-0.335c0.035-0.078,0.052-0.127,0.052-0.147
		l-0.058-0.065l-0.129,0.07c-0.093,0.062-0.225,0.093-0.397,0.093h-1.242l0.023-1.009c0-0.101-0.028-0.152-0.082-0.152
		c-0.043,0-0.117,0.086-0.221,0.258c-0.241,0.386-0.59,0.773-1.045,1.158c-0.101,0.085-0.152,0.155-0.152,0.21
		c0,0.059,0.051,0.088,0.152,0.088h0.519v2.942c0,0.932,0.447,1.398,1.341,1.398c0.265,0,0.55-0.074,0.858-0.223
		c0.307-0.148,0.46-0.286,0.46-0.414l-0.069-0.064l-0.035,0.012l-0.303,0.145c-0.163,0.086-0.364,0.129-0.601,0.129
		c-0.295,0-0.523-0.084-0.682-0.251c-0.109-0.113-0.163-0.359-0.163-0.74v-2.935H194.03z"/>
	<path fill="#FFFFFF" d="M262.339,327.033c0,0.295-0.068,0.509-0.203,0.644c-0.221,0.213-0.492,0.319-0.818,0.319
		c-0.267,0-0.478-0.079-0.635-0.235c-0.157-0.156-0.235-0.368-0.235-0.635c0-0.34,0.164-0.62,0.493-0.839
		c0.328-0.218,0.794-0.354,1.397-0.408V327.033z M260.272,326.237c-0.407,0.247-0.611,0.594-0.611,1.041
		c0,0.33,0.108,0.594,0.323,0.79c0.216,0.196,0.506,0.295,0.871,0.295c0.481,0,1.003-0.214,1.566-0.642
		c0.258,0.397,0.546,0.595,0.867,0.595c0.171,0,0.347-0.037,0.525-0.108c0.18-0.072,0.271-0.143,0.276-0.212l-0.094-0.082
		c-0.023,0-0.07,0.008-0.14,0.025l-0.139,0.01c-0.206,0-0.353-0.077-0.441-0.23c-0.088-0.154-0.131-0.411-0.131-0.773v-2.283
		c0-0.427-0.146-0.758-0.437-0.993c-0.292-0.235-0.703-0.353-1.231-0.353c-0.579,0-1.045,0.188-1.395,0.563
		c-0.26,0.279-0.39,0.539-0.39,0.778c0,0.094,0.074,0.179,0.223,0.258c0.149,0.077,0.314,0.116,0.496,0.116
		c0.081,0,0.119-0.034,0.115-0.104c-0.003-0.054-0.017-0.115-0.04-0.185c-0.051-0.165-0.076-0.312-0.076-0.439
		c0-0.432,0.258-0.648,0.77-0.648c0.381,0,0.685,0.116,0.91,0.348c0.167,0.17,0.251,0.477,0.251,0.921v0.719
		C261.368,325.793,260.679,325.99,260.272,326.237z M258.057,323.335c0-0.089-0.026-0.136-0.076-0.14l-0.311,0.145
		c-0.336,0.175-0.613,0.3-0.831,0.373c-0.196,0.061-0.295,0.118-0.299,0.171c-0.003,0.062,0.069,0.091,0.216,0.091
		c0.206,0,0.34,0.049,0.402,0.146c0.062,0.097,0.093,0.307,0.093,0.629v2.539c0,0.233-0.024,0.402-0.072,0.507
		c-0.049,0.105-0.135,0.178-0.261,0.221l-0.11,0.034c-0.07,0.024-0.105,0.067-0.105,0.126c0,0.072,0.052,0.108,0.158,0.108
		c0.039,0,0.109-0.006,0.21-0.017c0.043-0.008,0.103-0.014,0.181-0.018l0.428-0.023l0.373,0.007c0.167,0,0.304,0.004,0.41,0.013
		c0.187,0.018,0.313,0.027,0.38,0.027c0.101,0,0.155-0.032,0.158-0.097c0.005-0.08-0.064-0.129-0.204-0.148l-0.268-0.029
		c-0.196-0.028-0.323-0.087-0.382-0.181c-0.061-0.093-0.091-0.278-0.091-0.554V323.335z M257.361,321.148
		c-0.143,0.16-0.214,0.286-0.214,0.375c0,0.09,0.064,0.213,0.193,0.37c0.129,0.157,0.233,0.235,0.311,0.235
		c0.082,0,0.192-0.08,0.329-0.241c0.137-0.16,0.203-0.285,0.2-0.375l-0.06-0.147l-0.14-0.223c-0.098-0.157-0.194-0.235-0.288-0.235
		C257.614,320.908,257.504,320.989,257.361,321.148z M251.47,323.586c0-0.086,0.002-0.159,0.006-0.222
		c0.008-0.112-0.023-0.169-0.094-0.169l-0.139,0.046c-0.031,0.016-0.107,0.053-0.228,0.111l-0.309,0.152
		c-0.241,0.113-0.492,0.192-0.752,0.239c-0.101,0.02-0.151,0.058-0.151,0.114l0.052,0.084l0.093,0.023l0.251-0.006
		c0.183,0,0.307,0.049,0.373,0.149c0.065,0.099,0.098,0.287,0.098,0.562v2.633c0,0.225-0.034,0.389-0.101,0.489
		c-0.068,0.101-0.202,0.186-0.4,0.256c-0.07,0.029-0.107,0.066-0.111,0.115c-0.003,0.064,0.031,0.096,0.105,0.096
		c0.035,0,0.113-0.006,0.233-0.02c0.12-0.018,0.49-0.027,1.108-0.027c0.291,0,0.474,0.004,0.548,0.013
		c0.132,0.023,0.232,0.034,0.298,0.034c0.089,0,0.134-0.036,0.134-0.108c0-0.072-0.064-0.113-0.192-0.125
		c-0.521-0.032-0.792-0.21-0.811-0.538l-0.006-0.292l-0.006-0.175v-2.227c0-0.245,0.126-0.462,0.377-0.653
		c0.251-0.191,0.538-0.286,0.862-0.286c0.46,0,0.815,0.146,1.064,0.44c0.25,0.293,0.374,0.71,0.374,1.25v2.009
		c0,0.241-0.077,0.381-0.233,0.42l-0.175,0.047c-0.07,0.016-0.105,0.054-0.105,0.113l0.041,0.09l0.081,0.018l0.168-0.012h0.221
		l0.577-0.017c0.344,0,0.582,0.008,0.71,0.027c0.109,0.013,0.184,0.02,0.227,0.02c0.131,0,0.196-0.042,0.192-0.126
		c-0.004-0.061-0.059-0.099-0.163-0.113l-0.245-0.035c-0.284-0.043-0.447-0.193-0.49-0.45l-0.018-0.28l0.006-0.175v-1.396
		c0-0.716-0.124-1.25-0.373-1.6c-0.361-0.51-0.853-0.765-1.476-0.765c-0.559,0-1.1,0.309-1.622,0.928V323.586z M246.319,321.789
		l0.156,0.163l0.233,0.251l0.185,0.198l0.127,0.14l0.171,0.093l0.171-0.04l0.247-0.091c0.105-0.038,0.155-0.087,0.146-0.148
		c-0.003-0.043-0.245-0.319-0.723-0.829c-0.186-0.198-0.312-0.318-0.378-0.361c-0.067-0.043-0.163-0.064-0.292-0.064
		c-0.116,0-0.202,0.016-0.257,0.049c-0.054,0.033-0.134,0.118-0.239,0.257l-0.49,0.613l-0.187,0.237l-0.07,0.156l0.094,0.126
		l0.195,0.066c0.067,0,0.155-0.081,0.266-0.245c0.288-0.435,0.468-0.655,0.537-0.659L246.319,321.789z M247.651,324.274
		c0.349,0.482,0.524,1.107,0.524,1.873c0,0.606-0.138,1.087-0.416,1.441c-0.278,0.354-0.657,0.53-1.139,0.53
		c-0.55,0-1.012-0.25-1.383-0.75c-0.37-0.499-0.556-1.121-0.556-1.863c0-0.583,0.15-1.055,0.446-1.414
		c0.297-0.36,0.689-0.54,1.174-0.54C246.851,323.551,247.302,323.792,247.651,324.274z M244.612,324.06
		c-0.505,0.495-0.758,1.096-0.758,1.803c0,0.73,0.238,1.329,0.715,1.797c0.476,0.468,1.083,0.702,1.822,0.702
		c0.755,0,1.379-0.241,1.873-0.723c0.494-0.481,0.741-1.092,0.741-1.83c0-0.68-0.251-1.265-0.752-1.756
		c-0.502-0.491-1.103-0.738-1.803-0.738C245.729,323.317,245.117,323.565,244.612,324.06z M239.945,327.844l-0.069,0.123
		l-0.053,0.128c0,0.078,0.077,0.117,0.233,0.117h2.491c0.163,0,0.266-0.08,0.309-0.238l0.093-0.349
		c0.039-0.147,0.096-0.308,0.169-0.482c0.059-0.136,0.089-0.258,0.093-0.366c0.004-0.074-0.027-0.11-0.095-0.11
		c-0.075,0-0.154,0.1-0.237,0.301c-0.139,0.34-0.442,0.509-0.907,0.509h-1.345l2.421-3.704l0.064-0.158
		c0.008-0.101-0.06-0.151-0.204-0.151h-0.088c-0.035,0.004-0.101,0.006-0.198,0.006h-1.021l-0.525-0.006l-0.659-0.017
		c-0.152,0-0.25,0.031-0.297,0.093c-0.047,0.062-0.088,0.219-0.123,0.471c-0.027,0.182-0.058,0.339-0.093,0.47
		c-0.031,0.109-0.046,0.202-0.046,0.279c0,0.089,0.035,0.134,0.107,0.134c0.06,0,0.111-0.064,0.155-0.191
		c0.065-0.178,0.184-0.301,0.355-0.371l0.389-0.074h1.454L239.945,327.844z M237.494,327.033c0,0.295-0.068,0.509-0.203,0.644
		c-0.221,0.213-0.493,0.319-0.818,0.319c-0.267,0-0.478-0.079-0.634-0.235c-0.157-0.156-0.236-0.368-0.236-0.635
		c0-0.34,0.165-0.62,0.493-0.839c0.328-0.218,0.794-0.354,1.397-0.408V327.033z M235.429,326.237
		c-0.408,0.247-0.612,0.594-0.612,1.041c0,0.33,0.108,0.594,0.323,0.79c0.216,0.196,0.505,0.295,0.87,0.295
		c0.482,0,1.003-0.214,1.566-0.642c0.258,0.397,0.546,0.595,0.867,0.595c0.171,0,0.347-0.037,0.526-0.108
		c0.179-0.072,0.271-0.143,0.275-0.212l-0.093-0.082c-0.023,0-0.07,0.008-0.141,0.025l-0.139,0.01c-0.206,0-0.353-0.077-0.441-0.23
		c-0.087-0.154-0.131-0.411-0.131-0.773v-2.283c0-0.427-0.146-0.758-0.437-0.993c-0.291-0.235-0.703-0.353-1.231-0.353
		c-0.579,0-1.044,0.188-1.394,0.563c-0.261,0.279-0.391,0.539-0.391,0.778c0,0.094,0.074,0.179,0.224,0.258
		c0.148,0.077,0.313,0.116,0.495,0.116c0.081,0,0.119-0.034,0.116-0.104c-0.004-0.054-0.018-0.115-0.041-0.185
		c-0.051-0.165-0.076-0.312-0.076-0.439c0-0.432,0.257-0.648,0.77-0.648c0.381,0,0.684,0.116,0.909,0.348
		c0.167,0.17,0.251,0.477,0.251,0.921v0.719C236.525,325.793,235.835,325.99,235.429,326.237z M226.972,323.399
		c0-0.144-0.029-0.216-0.088-0.216c-0.031,0-0.122,0.042-0.275,0.128c-0.344,0.194-0.716,0.344-1.118,0.449
		c-0.093,0.028-0.14,0.068-0.14,0.12l0.035,0.06l0.099,0.03h0.257c0.163,0,0.275,0.052,0.336,0.158
		c0.06,0.105,0.09,0.297,0.09,0.577v2.609c0,0.248-0.025,0.416-0.076,0.501c-0.051,0.086-0.166,0.155-0.344,0.21
		c-0.086,0.028-0.129,0.072-0.129,0.131c0,0.072,0.049,0.105,0.146,0.102c0.043-0.004,0.115-0.013,0.216-0.027
		c0.082-0.009,0.15-0.013,0.204-0.013l0.398-0.006h0.392c0.241,0,0.403,0.006,0.485,0.017c0.133,0.015,0.226,0.026,0.28,0.029
		c0.094,0.004,0.141-0.03,0.141-0.102c0-0.076-0.06-0.119-0.18-0.131c-0.265-0.032-0.452-0.105-0.563-0.222
		c-0.111-0.117-0.167-0.301-0.167-0.553v-2.504c0-0.286,0.106-0.517,0.317-0.693c0.212-0.176,0.489-0.264,0.83-0.264
		c0.372,0,0.664,0.118,0.876,0.352c0.212,0.235,0.317,0.556,0.317,0.965v2.16c0,0.307-0.019,0.496-0.059,0.569
		c-0.039,0.072-0.161,0.145-0.368,0.218c-0.069,0.024-0.104,0.059-0.104,0.103c0,0.068,0.047,0.102,0.14,0.102
		c0.047,0,0.107-0.006,0.181-0.018c0.141-0.02,0.478-0.029,1.012-0.029c0.152,0,0.336,0.012,0.55,0.035
		c0.085,0.008,0.148,0.012,0.187,0.012c0.113,0,0.17-0.035,0.17-0.105c0-0.074-0.064-0.116-0.192-0.128
		c-0.276-0.024-0.464-0.094-0.563-0.21c-0.099-0.117-0.149-0.324-0.149-0.62v-2.11c0-0.129-0.011-0.262-0.035-0.403l-0.018-0.146
		c0-0.182,0.12-0.354,0.361-0.518c0.241-0.165,0.493-0.246,0.756-0.246c0.4,0,0.711,0.146,0.934,0.437
		c0.223,0.292,0.335,0.7,0.335,1.225v1.908l-0.006,0.198c0,0.14-0.026,0.241-0.079,0.303c-0.051,0.062-0.164,0.126-0.335,0.193
		c-0.07,0.028-0.103,0.064-0.099,0.107c0.004,0.076,0.056,0.114,0.157,0.114c0.031,0,0.089-0.006,0.174-0.02
		c0.129-0.018,0.451-0.027,0.966-0.027c0.263,0,0.457,0.009,0.581,0.029c0.078,0.012,0.138,0.018,0.181,0.018
		c0.093,0,0.139-0.035,0.139-0.102c0-0.076-0.047-0.117-0.139-0.126c-0.269-0.028-0.461-0.113-0.579-0.257
		c-0.116-0.144-0.175-0.365-0.175-0.665v-1.878c0-0.603-0.147-1.073-0.442-1.409c-0.295-0.336-0.705-0.505-1.233-0.505
		c-0.62,0-1.152,0.292-1.598,0.876c-0.191-0.319-0.395-0.544-0.612-0.677c-0.218-0.132-0.498-0.199-0.839-0.199
		c-0.592,0-1.104,0.262-1.54,0.788V323.399z M221.85,324.332l0.03,0.134c0,0.097-0.097,0.145-0.292,0.145h-1.762l-0.158-0.005
		c-0.179,0-0.268-0.051-0.268-0.152c0-0.035,0.025-0.107,0.076-0.216l1.137-2.526c0.035-0.077,0.067-0.115,0.093-0.111
		c0.055,0.004,0.105,0.068,0.152,0.193l0.047,0.122l0.916,2.31L221.85,324.332z M222.148,325.216
		c0.047,0.033,0.111,0.157,0.192,0.371l0.291,0.772c0.237,0.615,0.356,1.027,0.356,1.234c0,0.226-0.097,0.358-0.291,0.397
		l-0.18,0.041c-0.097,0.018-0.146,0.058-0.146,0.119c0,0.08,0.051,0.12,0.152,0.12c0.039,0,0.099-0.008,0.18-0.023
		c0.137-0.023,0.475-0.035,1.015-0.035c0.517,0,0.877,0.009,1.079,0.029c0.113,0.008,0.188,0.012,0.222,0.012
		c0.105,0,0.159-0.032,0.163-0.097c0.003-0.072-0.055-0.119-0.175-0.142c-0.37-0.067-0.615-0.157-0.736-0.272
		c-0.12-0.115-0.272-0.408-0.455-0.879l-0.129-0.315l-2.508-6.426c-0.043-0.113-0.096-0.169-0.158-0.169
		c-0.063,0-0.118,0.058-0.169,0.175l-2.999,6.66l-0.168,0.385c-0.085,0.179-0.195,0.352-0.327,0.517
		c-0.132,0.166-0.237,0.26-0.315,0.284l-0.216,0.064l-0.099,0.125c0,0.072,0.052,0.108,0.157,0.108c0.019,0,0.128-0.011,0.326-0.033
		c0.062-0.005,0.15-0.008,0.262-0.008c0.245,0,0.46,0.004,0.646,0.013l0.559,0.033c0.089,0.004,0.155,0.006,0.198,0.006
		c0.113,0,0.167-0.032,0.163-0.097c-0.003-0.068-0.064-0.113-0.181-0.136c-0.268-0.058-0.447-0.128-0.539-0.21
		c-0.091-0.082-0.138-0.215-0.138-0.398c0-0.191,0.087-0.483,0.26-0.876l0.382-0.859c0.117-0.265,0.21-0.421,0.28-0.468
		c0.07-0.047,0.249-0.07,0.537-0.07h2.112C221.968,325.167,222.101,325.184,222.148,325.216z M212.091,327.033
		c0,0.295-0.068,0.509-0.203,0.644c-0.221,0.213-0.493,0.319-0.818,0.319c-0.267,0-0.478-0.079-0.634-0.235
		c-0.158-0.156-0.236-0.368-0.236-0.635c0-0.34,0.165-0.62,0.493-0.839c0.328-0.218,0.794-0.354,1.397-0.408V327.033z
		 M210.024,326.237c-0.407,0.247-0.611,0.594-0.611,1.041c0,0.33,0.108,0.594,0.324,0.79c0.216,0.196,0.505,0.295,0.87,0.295
		c0.481,0,1.003-0.214,1.566-0.642c0.258,0.397,0.546,0.595,0.867,0.595c0.171,0,0.347-0.037,0.526-0.108
		c0.179-0.072,0.27-0.143,0.275-0.212l-0.093-0.082c-0.023,0-0.071,0.008-0.141,0.025l-0.139,0.01c-0.206,0-0.353-0.077-0.441-0.23
		c-0.088-0.154-0.131-0.411-0.131-0.773v-2.283c0-0.427-0.146-0.758-0.437-0.993c-0.291-0.235-0.703-0.353-1.231-0.353
		c-0.579,0-1.045,0.188-1.395,0.563c-0.26,0.279-0.39,0.539-0.39,0.778c0,0.094,0.074,0.179,0.224,0.258
		c0.148,0.077,0.313,0.116,0.495,0.116c0.081,0,0.119-0.034,0.116-0.104c-0.004-0.054-0.018-0.115-0.041-0.185
		c-0.051-0.165-0.076-0.312-0.076-0.439c0-0.432,0.258-0.648,0.77-0.648c0.381,0,0.685,0.116,0.91,0.348
		c0.167,0.17,0.251,0.477,0.251,0.921v0.719C211.121,325.793,210.432,325.99,210.024,326.237z M206.641,327.561
		c-0.238,0.197-0.547,0.295-0.926,0.295c-0.516,0-0.962-0.234-1.34-0.702c-0.378-0.468-0.567-1.02-0.567-1.657
		c0-0.583,0.144-1.053,0.433-1.41c0.288-0.357,0.668-0.536,1.136-0.536c0.526,0,0.982,0.184,1.366,0.553
		c0.171,0.163,0.255,0.419,0.255,0.768v1.922C206.999,327.109,206.88,327.365,206.641,327.561z M206.999,328.073
		c0,0.198,0.046,0.294,0.135,0.29c0.043,0,0.101-0.022,0.175-0.064c0.086-0.043,0.258-0.084,0.515-0.123l0.328-0.052
		c0.043-0.007,0.144-0.019,0.304-0.035c0.14-0.015,0.211-0.064,0.211-0.148l-0.064-0.091l-0.052-0.006l-0.344,0.012
		c-0.268,0-0.402-0.22-0.402-0.659v-7.414l-0.006-0.105c0-0.086-0.03-0.129-0.088-0.129l-0.111,0.041
		c-0.512,0.307-0.968,0.486-1.37,0.537c-0.121,0.016-0.177,0.064-0.169,0.143l0.064,0.09l0.076,0.012l0.204-0.012
		c0.397-0.023,0.595,0.334,0.595,1.071v2.3c-0.469-0.276-0.939-0.414-1.409-0.414c-0.691,0-1.275,0.257-1.75,0.769
		c-0.476,0.513-0.713,1.142-0.713,1.888c0,0.676,0.199,1.243,0.597,1.702c0.398,0.458,0.89,0.687,1.476,0.687
		c0.311,0,0.59-0.059,0.836-0.177c0.247-0.118,0.567-0.347,0.963-0.687V328.073z M197.818,327.033c0,0.295-0.068,0.509-0.204,0.644
		c-0.221,0.213-0.493,0.319-0.818,0.319c-0.266,0-0.478-0.079-0.634-0.235c-0.157-0.156-0.235-0.368-0.235-0.635
		c0-0.34,0.164-0.62,0.492-0.839c0.328-0.218,0.794-0.354,1.398-0.408V327.033z M195.751,326.237
		c-0.408,0.247-0.611,0.594-0.611,1.041c0,0.33,0.107,0.594,0.323,0.79c0.216,0.196,0.505,0.295,0.87,0.295
		c0.482,0,1.004-0.214,1.566-0.642c0.258,0.397,0.546,0.595,0.867,0.595c0.171,0,0.347-0.037,0.526-0.108
		c0.179-0.072,0.271-0.143,0.275-0.212l-0.093-0.082c-0.023,0-0.07,0.008-0.14,0.025l-0.14,0.01c-0.206,0-0.352-0.077-0.44-0.23
		c-0.088-0.154-0.132-0.411-0.132-0.773v-2.283c0-0.427-0.145-0.758-0.437-0.993c-0.291-0.235-0.702-0.353-1.231-0.353
		c-0.579,0-1.044,0.188-1.394,0.563c-0.26,0.279-0.391,0.539-0.391,0.778c0,0.094,0.075,0.179,0.224,0.258
		c0.148,0.077,0.313,0.116,0.496,0.116c0.08,0,0.119-0.034,0.115-0.104c-0.004-0.054-0.018-0.115-0.041-0.185
		c-0.051-0.165-0.076-0.312-0.076-0.439c0-0.432,0.257-0.648,0.77-0.648c0.381,0,0.685,0.116,0.909,0.348
		c0.167,0.17,0.252,0.477,0.252,0.921v0.719C196.848,325.793,196.158,325.99,195.751,326.237z"/>
</g>
</svg>
